ISO-10303-21;
HEADER;
FILE_DESCRIPTION (( 'STEP AP214' ),
    '1' );
FILE_NAME ('HL10-5-10.step',
    '2017-08-09T09:46:30',
    ( 'LISI AEROSPACE' ),
    ( 'LISI AEROSPACE' ),
    'SwSTEP 2.0',
    'SolidWorks 2015',
    '' );
FILE_SCHEMA (( 'AUTOMOTIVE_DESIGN' ));
ENDSEC;

DATA;
#1 = CARTESIAN_POINT ( 'NONE',  ( 0.04200000000000135600, 0.0000000000000000000, 0.0000000000000000000 ) ) ;
#2 = LINE ( 'NONE', #147, #304 ) ;
#3 = ORIENTED_EDGE ( 'NONE', *, *, #400, .T. ) ;
#4 = DIRECTION ( 'NONE',  ( 0.0000000000000000000, 0.0000000000000000000, 1.000000000000000000 ) ) ;
#5 = EDGE_CURVE ( 'NONE', #112, #143, #311, .T. ) ;
#6 = EDGE_LOOP ( 'NONE', ( #163, #97, #242, #355 ) ) ;
#7 = VECTOR ( 'NONE', #314, 39.37007874015748100 ) ;
#8 = FACE_OUTER_BOUND ( 'NONE', #116, .T. ) ;
#9 = CARTESIAN_POINT ( 'NONE',  ( 0.9790000000000000900, 0.03199999999999985500, -0.01847520861406815000 ) ) ;
#10 = AXIS2_PLACEMENT_3D ( 'NONE', #306, #308, #307 ) ;
#11 = SURFACE_STYLE_USAGE ( .BOTH. , #134 ) ;
#12 = ORIENTED_EDGE ( 'NONE', *, *, #232, .F. ) ;
#13 = ADVANCED_FACE ( 'NONE', ( #393 ), #43, .T. ) ;
#14 = VERTEX_POINT ( 'NONE', #98 ) ;
#15 = EDGE_CURVE ( 'NONE', #14, #269, #381, .T. ) ;
#16 = CARTESIAN_POINT ( 'NONE',  ( 0.8540000000000000900, 5.250270362823506100E-016, 0.03695041722813598900 ) ) ;
#17 = ADVANCED_FACE ( 'NONE', ( #8, #298 ), #286, .T. ) ;
#18 = DIRECTION ( 'NONE',  ( 0.0000000000000000000, 0.0000000000000000000, -1.000000000000000000 ) ) ;
#19 = LINE ( 'NONE', #153, #401 ) ;
#20 = EDGE_LOOP ( 'NONE', ( #75, #107, #404, #359, #12, #257 ) ) ;
#21 = AXIS2_PLACEMENT_3D ( 'NONE', #399, #252, #18 ) ;
#22 = CARTESIAN_POINT ( 'NONE',  ( 0.8540000000000000900, 0.03199999999999999400, -0.01847520861406792500 ) ) ;
#23 = DIRECTION ( 'NONE',  ( 0.0000000000000000000, -0.8660254037844362700, 0.5000000000000038900 ) ) ;
#24 = DIRECTION ( 'NONE',  ( 0.0000000000000000000, -0.0000000000000000000, -1.000000000000000000 ) ) ;
#25 = PRESENTATION_STYLE_ASSIGNMENT (( #457 ) ) ;
#26 = DIRECTION ( 'NONE',  ( -1.000000000000000000, 0.0000000000000000000, -0.0000000000000000000 ) ) ;
#27 = ORIENTED_EDGE ( 'NONE', *, *, #360, .T. ) ;
#28 = PLANE ( 'NONE',  #301 ) ;
#29 =( NAMED_UNIT ( * ) SI_UNIT ( $, .STERADIAN. ) SOLID_ANGLE_UNIT ( ) );
#30 = PLANE ( 'NONE',  #444 ) ;
#31 = CARTESIAN_POINT ( 'NONE',  ( 0.8540000000000000900, 0.0000000000000000000, 0.0000000000000000000 ) ) ;
#32 = EDGE_CURVE ( 'NONE', #89, #89, #371, .T. ) ;
#33 = CIRCLE ( 'NONE', #324, 0.08150000000000000300 ) ;
#34 = DIRECTION ( 'NONE',  ( 0.0000000000000000000, 0.8660254037844431500, 0.4999999999999919000 ) ) ;
#35 = EDGE_LOOP ( 'NONE', ( #152, #283, #104, #149, #85, #121 ) ) ;
#36 = CARTESIAN_POINT ( 'NONE',  ( 0.0000000000000000000, 0.0000000000000000000, 0.0000000000000000000 ) ) ;
#37 = CARTESIAN_POINT ( 'NONE',  ( 0.9789999999999985400, 0.0000000000000000000, 0.0000000000000000000 ) ) ;
#38 = UNCERTAINTY_MEASURE_WITH_UNIT (LENGTH_MEASURE( 1.000000000000000100E-005 ), #288, 'distance_accuracy_value', 'NONE');
#39 =( CONVERSION_BASED_UNIT ( 'INCH', #385 ) LENGTH_UNIT ( ) NAMED_UNIT ( #248 ) );
#40 = CARTESIAN_POINT ( 'NONE',  ( 0.9790000000000000900, 0.03200000000000012600, 0.01847520861406769600 ) ) ;
#41 = ORIENTED_EDGE ( 'NONE', *, *, #86, .F. ) ;
#42 = EDGE_CURVE ( 'NONE', #269, #143, #206, .T. ) ;
#43 = PLANE ( 'NONE',  #171 ) ;
#44 = VECTOR ( 'NONE', #58, 39.37007874015748100 ) ;
#45 = CARTESIAN_POINT ( 'NONE',  ( 0.9790000000000000900, -0.03199999999999999400, -0.01847520861406791100 ) ) ;
#46 = ORIENTED_EDGE ( 'NONE', *, *, #430, .F. ) ;
#47 = DIRECTION ( 'NONE',  ( 0.0000000000000000000, 0.0000000000000000000, -1.000000000000000000 ) ) ;
#48 = AXIS2_PLACEMENT_3D ( 'NONE', #144, #258, #24 ) ;
#49 = DIRECTION ( 'NONE',  ( 0.0000000000000000000, 0.0000000000000000000, -1.000000000000000000 ) ) ;
#50 = PRODUCT ( 'HL10-5-10', 'HL10-5-10', '', ( #164 ) ) ;
#51 = CARTESIAN_POINT ( 'NONE',  ( -39.37007874015748100, 0.0000000000000000000, 0.0000000000000000000 ) ) ;
#52 = LENGTH_MEASURE_WITH_UNIT ( LENGTH_MEASURE( 0.02539999999999999900 ), #299 );
#53 = VECTOR ( 'NONE', #227, 39.37007874015748900 ) ;
#54 = EDGE_LOOP ( 'NONE', ( #240 ) ) ;
#55 = DIRECTION ( 'NONE',  ( 0.0000000000000000000, 1.000000000000000000, 0.0000000000000000000 ) ) ;
#56 = ADVANCED_FACE ( 'NONE', ( #103, #122 ), #214, .F. ) ;
#57 = DIRECTION ( 'NONE',  ( 0.0000000000000000000, 0.0000000000000000000, 1.000000000000000000 ) ) ;
#58 = DIRECTION ( 'NONE',  ( 1.000000000000000000, 0.0000000000000000000, 0.0000000000000000000 ) ) ;
#59 = FACE_OUTER_BOUND ( 'NONE', #443, .T. ) ;
#60 = ORIENTED_EDGE ( 'NONE', *, *, #430, .T. ) ;
#61 = EDGE_CURVE ( 'NONE', #454, #112, #364, .T. ) ;
#62 = CARTESIAN_POINT ( 'NONE',  ( 0.9790000000000000900, -0.03199999999999972300, 0.01847520861406837200 ) ) ;
#63 = CARTESIAN_POINT ( 'NONE',  ( 0.06199999999999950000, 0.0000000000000000000, 0.0000000000000000000 ) ) ;
#64 = CARTESIAN_POINT ( 'NONE',  ( 0.8540000000000000900, -4.268512490100411300E-018, -0.03695041722813599500 ) ) ;
#65 = VERTEX_POINT ( 'NONE', #236 ) ;
#66 = LINE ( 'NONE', #45, #427 ) ;
#67 = EDGE_LOOP ( 'NONE', ( #429 ) ) ;
#68 = DIRECTION ( 'NONE',  ( 1.000000000000000000, 0.0000000000000000000, 0.0000000000000000000 ) ) ;
#69 = AXIS2_PLACEMENT_3D ( 'NONE', #331, #118, #361 ) ;
#70 = DIRECTION ( 'NONE',  ( 0.0000000000000000000, -0.8660254037844363800, 0.5000000000000041100 ) ) ;
#71 = CARTESIAN_POINT ( 'NONE',  ( 0.8540000000000000900, -0.03200000000000000100, -0.01847520861406792100 ) ) ;
#72 = EDGE_CURVE ( 'NONE', #441, #441, #277, .T. ) ;
#73 = PLANE ( 'NONE',  #48 ) ;
#74 = CYLINDRICAL_SURFACE ( 'NONE', #188, 0.08150000000000000300 ) ;
#75 = ORIENTED_EDGE ( 'NONE', *, *, #15, .F. ) ;
#76 = DIRECTION ( 'NONE',  ( 0.0000000000000000000, 0.0000000000000000000, 1.000000000000000000 ) ) ;
#77 = VERTEX_POINT ( 'NONE', #362 ) ;
#78 =( CONVERSION_BASED_UNIT ( 'INCH', #52 ) LENGTH_UNIT ( ) NAMED_UNIT ( #141 ) );
#79 = FACE_OUTER_BOUND ( 'NONE', #67, .T. ) ;
#80 = ORIENTED_EDGE ( 'NONE', *, *, #72, .T. ) ;
#81 =( NAMED_UNIT ( * ) SI_UNIT ( $, .STERADIAN. ) SOLID_ANGLE_UNIT ( ) );
#82 = DIRECTION ( 'NONE',  ( 0.0000000000000000000, -0.8660254037844397100, -0.4999999999999979500 ) ) ;
#83 = DIRECTION ( 'NONE',  ( 0.0000000000000000000, 0.8660254037844328200, -0.5000000000000101000 ) ) ;
#84 = CONICAL_SURFACE ( 'NONE', #21, 0.1259999999999999700, 0.7853981633973800000 ) ;
#85 = ORIENTED_EDGE ( 'NONE', *, *, #61, .T. ) ;
#86 = EDGE_CURVE ( 'NONE', #187, #187, #189, .T. ) ;
#87 = DIRECTION ( 'NONE',  ( 0.0000000000000000000, -0.8660254037844397100, -0.4999999999999979500 ) ) ;
#88 = DIRECTION ( 'NONE',  ( -1.000000000000000000, -0.0000000000000000000, -0.0000000000000000000 ) ) ;
#89 = VERTEX_POINT ( 'NONE', #333 ) ;
#90 = CARTESIAN_POINT ( 'NONE',  ( 0.0000000000000000000, 0.0000000000000000000, 0.0000000000000000000 ) ) ;
#91 = VECTOR ( 'NONE', #83, 39.37007874015748100 ) ;
#92 = EDGE_LOOP ( 'NONE', ( #80 ) ) ;
#93 = AXIS2_PLACEMENT_3D ( 'NONE', #310, #313, #23 ) ;
#94 = ADVANCED_FACE ( 'NONE', ( #435 ), #179, .F. ) ;
#95 = FACE_BOUND ( 'NONE', #175, .T. ) ;
#96 = EDGE_CURVE ( 'NONE', #127, #14, #267, .T. ) ;
#97 = ORIENTED_EDGE ( 'NONE', *, *, #378, .F. ) ;
#98 = CARTESIAN_POINT ( 'NONE',  ( 0.8540000000000000900, 0.03200000000000012600, 0.01847520861406769600 ) ) ;
#99 = DIRECTION ( 'NONE',  ( -0.0000000000000000000, 0.0000000000000000000, 1.000000000000000000 ) ) ;
#100 = DIRECTION ( 'NONE',  ( 0.0000000000000000000, 0.0000000000000000000, 1.000000000000000000 ) ) ;
#101 = SURFACE_STYLE_FILL_AREA ( #426 ) ;
#102 = EDGE_LOOP ( 'NONE', ( #341, #372, #316, #432 ) ) ;
#103 = FACE_OUTER_BOUND ( 'NONE', #54, .T. ) ;
#104 = ORIENTED_EDGE ( 'NONE', *, *, #129, .T. ) ;
#105 = CARTESIAN_POINT ( 'NONE',  ( 0.9790000000000000900, -4.268512490100411300E-018, -0.03695041722813599500 ) ) ;
#106 = ORIENTED_EDGE ( 'NONE', *, *, #32, .T. ) ;
#107 = ORIENTED_EDGE ( 'NONE', *, *, #96, .F. ) ;
#108 = CARTESIAN_POINT ( 'NONE',  ( 0.6670000000000000400, 0.08150000000000000300, 0.0000000000000000000 ) ) ;
#109 = FACE_OUTER_BOUND ( 'NONE', #235, .T. ) ;
#110 = ORIENTED_EDGE ( 'NONE', *, *, #129, .F. ) ;
#111 = CARTESIAN_POINT ( 'NONE',  ( 0.02200000000000320800, 0.0000000000000000000, 0.0000000000000000000 ) ) ;
#112 = VERTEX_POINT ( 'NONE', #40 ) ;
#113 = CLOSED_SHELL ( 'NONE', ( #56, #139, #17, #346, #246, #315, #222, #279, #218, #94, #178, #373, #347, #406, #13, #376, #437 ) ) ;
#114 = CARTESIAN_POINT ( 'NONE',  ( 0.9790000000000000900, -2.667820306312756800E-016, -0.03695041722813599500 ) ) ;
#115 = DIRECTION ( 'NONE',  ( 0.0000000000000000000, 0.0000000000000000000, 1.000000000000000000 ) ) ;
#116 = EDGE_LOOP ( 'NONE', ( #46 ) ) ;
#117 = VERTEX_POINT ( 'NONE', #64 ) ;
#118 = DIRECTION ( 'NONE',  ( -1.000000000000000000, -0.0000000000000000000, -0.0000000000000000000 ) ) ;
#119 = ORIENTED_EDGE ( 'NONE', *, *, #293, .F. ) ;
#120 = LINE ( 'NONE', #114, #309 ) ;
#121 = ORIENTED_EDGE ( 'NONE', *, *, #5, .T. ) ;
#122 = FACE_BOUND ( 'NONE', #35, .T. ) ;
#123 = CARTESIAN_POINT ( 'NONE',  ( 0.04200000000000135600, 0.0000000000000000000, 0.1259999999999999700 ) ) ;
#124 = UNCERTAINTY_MEASURE_WITH_UNIT (LENGTH_MEASURE( 1.000000000000000100E-005 ), #39, 'distance_accuracy_value', 'NONE');
#125 =( NAMED_UNIT ( * ) SI_UNIT ( $, .STERADIAN. ) SOLID_ANGLE_UNIT ( ) );
#126 = DIRECTION ( 'NONE',  ( 0.0000000000000000000, 0.0000000000000000000, 1.000000000000000000 ) ) ;
#127 = VERTEX_POINT ( 'NONE', #193 ) ;
#128 = ORIENTED_EDGE ( 'NONE', *, *, #360, .F. ) ;
#129 = EDGE_CURVE ( 'NONE', #368, #156, #66, .T. ) ;
#130 = CARTESIAN_POINT ( 'NONE',  ( 0.8540000000000000900, -0.03199999999999999400, 0.01847520861406792500 ) ) ;
#131 = DIRECTION ( 'NONE',  ( 0.0000000000000000000, 0.0000000000000000000, -1.000000000000000000 ) ) ;
#132 = FACE_OUTER_BOUND ( 'NONE', #20, .T. ) ;
#133 = EDGE_LOOP ( 'NONE', ( #191 ) ) ;
#134 = SURFACE_SIDE_STYLE ('',( #344 ) ) ;
#135 = AXIS2_PLACEMENT_3D ( 'NONE', #445, #165, #282 ) ;
#136 = DIRECTION ( 'NONE',  ( -1.000000000000000000, -0.0000000000000000000, -0.0000000000000000000 ) ) ;
#137 = COLOUR_RGB ( '',0.7529411764705882200, 0.7529411764705882200, 0.7529411764705882200 ) ;
#138 = VERTEX_POINT ( 'NONE', #223 ) ;
#139 = ADVANCED_FACE ( 'NONE', ( #79, #256 ), #336, .T. ) ;
#140 = CARTESIAN_POINT ( 'NONE',  ( 0.9790000000000000900, 5.250270362823506100E-016, 0.03695041722813598900 ) ) ;
#141 = DIMENSIONAL_EXPONENTS ( 1.000000000000000000, 0.0000000000000000000, 0.0000000000000000000, 0.0000000000000000000, 0.0000000000000000000, 0.0000000000000000000, 0.0000000000000000000 ) ;
#142 = CIRCLE ( 'NONE', #69, 0.07912500000000000100 ) ;
#143 = VERTEX_POINT ( 'NONE', #9 ) ;
#144 = CARTESIAN_POINT ( 'NONE',  ( 0.8540000000000000900, 0.03199999999999999400, 0.01847520861406791100 ) ) ;
#145 = PLANE ( 'NONE',  #135 ) ;
#146 = ORIENTED_EDGE ( 'NONE', *, *, #32, .F. ) ;
#147 = CARTESIAN_POINT ( 'NONE',  ( 0.8540000000000000900, -0.03199999999999999400, -0.01847520861406791100 ) ) ;
#148 =( GEOMETRIC_REPRESENTATION_CONTEXT ( 3 ) GLOBAL_UNCERTAINTY_ASSIGNED_CONTEXT ( ( #342 ) ) GLOBAL_UNIT_ASSIGNED_CONTEXT ( ( #78, #334, #125 ) ) REPRESENTATION_CONTEXT ( 'NONE', 'WORKASPACE' ) );
#149 = ORIENTED_EDGE ( 'NONE', *, *, #440, .T. ) ;
#150 = PLANE ( 'NONE',  #343 ) ;
#151 = EDGE_CURVE ( 'NONE', #170, #127, #415, .T. ) ;
#152 = ORIENTED_EDGE ( 'NONE', *, *, #213, .T. ) ;
#153 = CARTESIAN_POINT ( 'NONE',  ( 0.8540000000000000900, -0.03199999999999999400, 0.01847520861406792500 ) ) ;
#154 = FACE_OUTER_BOUND ( 'NONE', #281, .T. ) ;
#155 = DIRECTION ( 'NONE',  ( 0.0000000000000000000, 0.4999999999999920100, -0.8660254037844433700 ) ) ;
#156 = VERTEX_POINT ( 'NONE', #62 ) ;
#157 = DIRECTION ( 'NONE',  ( 0.0000000000000000000, -0.5000000000000101000, -0.8660254037844328200 ) ) ;
#158 = CARTESIAN_POINT ( 'NONE',  ( 0.02200000000000320800, 0.0000000000000000000, 0.1259999999999999700 ) ) ;
#159 = ORIENTED_EDGE ( 'NONE', *, *, #15, .T. ) ;
#160 = AXIS2_PLACEMENT_3D ( 'NONE', #192, #317, #181 ) ;
#161 = APPLICATION_PROTOCOL_DEFINITION ( 'draft international standard', 'automotive_design', 1998, #208 ) ;
#162 = COLOUR_RGB ( '',0.7529411764705882200, 0.7529411764705882200, 0.7529411764705882200 ) ;
#163 = ORIENTED_EDGE ( 'NONE', *, *, #440, .F. ) ;
#164 = PRODUCT_CONTEXT ( 'NONE', #208, 'mechanical' ) ;
#165 = DIRECTION ( 'NONE',  ( -1.000000000000000000, 0.0000000000000000000, -0.0000000000000000000 ) ) ;
#166 = DIRECTION ( 'NONE',  ( 0.0000000000000000000, 0.0000000000000000000, 1.000000000000000000 ) ) ;
#167 = MANIFOLD_SOLID_BREP ( 'Répétition circulaire1', #113 ) ;
#168 = FACE_OUTER_BOUND ( 'NONE', #197, .T. ) ;
#169 = CARTESIAN_POINT ( 'NONE',  ( 0.8540000000000000900, 0.03199999999999985500, -0.01847520861406815000 ) ) ;
#170 = VERTEX_POINT ( 'NONE', #130 ) ;
#171 = AXIS2_PLACEMENT_3D ( 'NONE', #300, #55, #268 ) ;
#172 = CARTESIAN_POINT ( 'NONE',  ( 0.8540000000000000900, 0.03199999999999985500, -0.01847520861406815000 ) ) ;
#173 = VERTEX_POINT ( 'NONE', #425 ) ;
#174 = PRESENTATION_STYLE_ASSIGNMENT (( #11 ) ) ;
#175 = EDGE_LOOP ( 'NONE', ( #291 ) ) ;
#176 = AXIS2_PLACEMENT_3D ( 'NONE', #295, #157, #392 ) ;
#177 = DIRECTION ( 'NONE',  ( -1.000000000000000000, -0.0000000000000000000, -0.0000000000000000000 ) ) ;
#178 = ADVANCED_FACE ( 'NONE', ( #219 ), #73, .T. ) ;
#179 = PLANE ( 'NONE',  #351 ) ;
#180 = EDGE_CURVE ( 'NONE', #138, #170, #2, .T. ) ;
#181 = DIRECTION ( 'NONE',  ( 0.0000000000000000000, 0.0000000000000000000, 1.000000000000000000 ) ) ;
#182 = CIRCLE ( 'NONE', #160, 0.07912500000000000100 ) ;
#183 = ORIENTED_EDGE ( 'NONE', *, *, #386, .F. ) ;
#184 = CARTESIAN_POINT ( 'NONE',  ( 0.04200000000000135600, 0.0000000000000000000, 0.0000000000000000000 ) ) ;
#185 = CARTESIAN_POINT ( 'NONE',  ( 0.8540000000000000900, -2.667820306312756800E-016, -0.03695041722813599500 ) ) ;
#186 = CARTESIAN_POINT ( 'NONE',  ( 0.8540000000000000900, 0.03199999999999999400, 0.01847520861406791100 ) ) ;
#187 = VERTEX_POINT ( 'NONE', #123 ) ;
#188 = AXIS2_PLACEMENT_3D ( 'NONE', #356, #88, #57 ) ;
#189 = CIRCLE ( 'NONE', #284, 0.1259999999999999700 ) ;
#190 =( NAMED_UNIT ( * ) PLANE_ANGLE_UNIT ( ) SI_UNIT ( $, .RADIAN. ) );
#191 = ORIENTED_EDGE ( 'NONE', *, *, #247, .T. ) ;
#192 = CARTESIAN_POINT ( 'NONE',  ( 0.9477500000000014200, 0.0000000000000000000, 0.0000000000000000000 ) ) ;
#193 = CARTESIAN_POINT ( 'NONE',  ( 0.8540000000000000900, 2.603792618961250900E-016, 0.03695041722813599500 ) ) ;
#194 = DIRECTION ( 'NONE',  ( -0.0000000000000000000, 0.0000000000000000000, 1.000000000000000000 ) ) ;
#195 = DIRECTION ( 'NONE',  ( 0.0000000000000000000, -0.8660254037844397100, -0.4999999999999979500 ) ) ;
#196 = CIRCLE ( 'NONE', #217, 0.1259999999999999700 ) ;
#197 = EDGE_LOOP ( 'NONE', ( #119 ) ) ;
#198 = DIRECTION ( 'NONE',  ( 0.0000000000000000000, 0.8660254037844431500, 0.4999999999999919000 ) ) ;
#199 = DIRECTION ( 'NONE',  ( -1.000000000000000000, -0.0000000000000000000, -0.0000000000000000000 ) ) ;
#200 = DIRECTION ( 'NONE',  ( -1.000000000000000000, -0.0000000000000000000, -0.0000000000000000000 ) ) ;
#201 = DIRECTION ( 'NONE',  ( -1.000000000000000000, -0.0000000000000000000, -0.0000000000000000000 ) ) ;
#202 = AXIS2_PLACEMENT_3D ( 'NONE', #63, #136, #408 ) ;
#203 = CARTESIAN_POINT ( 'NONE',  ( 0.9790000000000000900, -0.03199999999999972300, 0.01847520861406837200 ) ) ;
#204 = VECTOR ( 'NONE', #297, 39.37007874015748100 ) ;
#205 = CARTESIAN_POINT ( 'NONE',  ( 0.04200000000000135600, 0.0000000000000000000, 0.1014999999999999900 ) ) ;
#206 = LINE ( 'NONE', #22, #453 ) ;
#207 = EDGE_LOOP ( 'NONE', ( #410 ) ) ;
#208 = APPLICATION_CONTEXT ( 'automotive_design' ) ;
#209 = APPLICATION_PROTOCOL_DEFINITION ( 'draft international standard', 'automotive_design', 1998, #396 ) ;
#210 = DIRECTION ( 'NONE',  ( 1.000000000000000000, 0.0000000000000000000, 0.0000000000000000000 ) ) ;
#211 = VECTOR ( 'NONE', #70, 39.37007874015747400 ) ;
#212 = ORIENTED_EDGE ( 'NONE', *, *, #213, .F. ) ;
#213 = EDGE_CURVE ( 'NONE', #143, #262, #442, .T. ) ;
#214 = PLANE ( 'NONE',  #263 ) ;
#215 = LINE ( 'NONE', #203, #452 ) ;
#216 = VECTOR ( 'NONE', #47, 39.37007874015748100 ) ;
#217 = AXIS2_PLACEMENT_3D ( 'NONE', #111, #200, #390 ) ;
#218 = ADVANCED_FACE ( 'NONE', ( #95, #375 ), #84, .T. ) ;
#219 = FACE_OUTER_BOUND ( 'NONE', #253, .T. ) ;
#220 = ORIENTED_EDGE ( 'NONE', *, *, #61, .F. ) ;
#221 = DIRECTION ( 'NONE',  ( -1.000000000000000000, -0.0000000000000000000, -0.0000000000000000000 ) ) ;
#222 = ADVANCED_FACE ( 'NONE', ( #447, #280 ), #145, .F. ) ;
#223 = CARTESIAN_POINT ( 'NONE',  ( 0.8540000000000000900, -0.03199999999999999400, -0.01847520861406791100 ) ) ;
#224 = AXIS2_PLACEMENT_3D ( 'NONE', #379, #201, #115 ) ;
#225 = LINE ( 'NONE', #383, #7 ) ;
#226 = VECTOR ( 'NONE', #49, 39.37007874015748100 ) ;
#227 = DIRECTION ( 'NONE',  ( 0.0000000000000000000, 0.8660254037844431500, 0.4999999999999919000 ) ) ;
#228 = FILL_AREA_STYLE ('',( #352 ) ) ;
#229 = DIRECTION ( 'NONE',  ( -1.000000000000000000, -0.0000000000000000000, -0.0000000000000000000 ) ) ;
#230 = STYLED_ITEM ( 'NONE', ( #25 ), #266 ) ;
#231 = ORIENTED_EDGE ( 'NONE', *, *, #446, .T. ) ;
#232 = EDGE_CURVE ( 'NONE', #117, #138, #367, .T. ) ;
#233 = PRODUCT_DEFINITION_SHAPE ( 'NONE', 'NONE',  #374 ) ;
#234 = FACE_OUTER_BOUND ( 'NONE', #6, .T. ) ;
#235 = EDGE_LOOP ( 'NONE', ( #27 ) ) ;
#236 = CARTESIAN_POINT ( 'NONE',  ( 0.6669999999999959300, 0.0000000000000000000, 0.07912500000000000100 ) ) ;
#237 = AXIS2_PLACEMENT_3D ( 'NONE', #51, #199, #255 ) ;
#238 = SURFACE_SIDE_STYLE ('',( #101 ) ) ;
#239 = LENGTH_MEASURE_WITH_UNIT ( LENGTH_MEASURE( 0.02539999999999999900 ), #320 );
#240 = ORIENTED_EDGE ( 'NONE', *, *, #400, .F. ) ;
#241 = FACE_BOUND ( 'NONE', #377, .T. ) ;
#242 = ORIENTED_EDGE ( 'NONE', *, *, #151, .T. ) ;
#243 = AXIS2_PLACEMENT_3D ( 'NONE', #90, #411, #4 ) ;
#244 = EDGE_LOOP ( 'NONE', ( #41 ) ) ;
#245 = PRESENTATION_LAYER_ASSIGNMENT (  '', '', ( #230 ) ) ;
#246 = ADVANCED_FACE ( 'NONE', ( #438, #109 ), #74, .T. ) ;
#247 = EDGE_CURVE ( 'NONE', #77, #77, #182, .T. ) ;
#248 = DIMENSIONAL_EXPONENTS ( 1.000000000000000000, 0.0000000000000000000, 0.0000000000000000000, 0.0000000000000000000, 0.0000000000000000000, 0.0000000000000000000, 0.0000000000000000000 ) ;
#249 = LINE ( 'NONE', #327, #44 ) ;
#250 = ORIENTED_EDGE ( 'NONE', *, *, #421, .F. ) ;
#251 = DIRECTION ( 'NONE',  ( 0.0000000000000000000, 0.0000000000000000000, 1.000000000000000000 ) ) ;
#252 = DIRECTION ( 'NONE',  ( 1.000000000000000000, 0.0000000000000000000, 0.0000000000000000000 ) ) ;
#253 = EDGE_LOOP ( 'NONE', ( #387, #422, #159, #397 ) ) ;
#254 = AXIS2_PLACEMENT_3D ( 'NONE', #328, #177, #423 ) ;
#255 = DIRECTION ( 'NONE',  ( 0.0000000000000000000, 0.0000000000000000000, 1.000000000000000000 ) ) ;
#256 = FACE_BOUND ( 'NONE', #322, .T. ) ;
#257 = ORIENTED_EDGE ( 'NONE', *, *, #274, .F. ) ;
#258 = DIRECTION ( 'NONE',  ( 0.0000000000000000000, -1.000000000000000000, 0.0000000000000000000 ) ) ;
#259 = CARTESIAN_POINT ( 'NONE',  ( 0.9790000000000000900, -0.03199999999999999400, -0.01847520861406791100 ) ) ;
#260 = VECTOR ( 'NONE', #87, 39.37007874015748900 ) ;
#261 = DIRECTION ( 'NONE',  ( 0.0000000000000000000, 0.0000000000000000000, 1.000000000000000000 ) ) ;
#262 = VERTEX_POINT ( 'NONE', #105 ) ;
#263 = AXIS2_PLACEMENT_3D ( 'NONE', #414, #26, #99 ) ;
#264 = CARTESIAN_POINT ( 'NONE',  ( 0.8540000000000000900, 0.03199999999999999400, 0.01847520861406791100 ) ) ;
#265 = VERTEX_POINT ( 'NONE', #205 ) ;
#266 = ADVANCED_BREP_SHAPE_REPRESENTATION ( 'HL10-5-10', ( #167, #357 ), #148 ) ;
#267 = LINE ( 'NONE', #16, #354 ) ;
#268 = DIRECTION ( 'NONE',  ( 0.0000000000000000000, -0.0000000000000000000, 1.000000000000000000 ) ) ;
#269 = VERTEX_POINT ( 'NONE', #169 ) ;
#270 =( LENGTH_UNIT ( ) NAMED_UNIT ( * ) SI_UNIT ( $, .METRE. ) );
#271 = CARTESIAN_POINT ( 'NONE',  ( 0.9790000000000000900, 5.250270362823506100E-016, 0.03695041722813598900 ) ) ;
#272 = MECHANICAL_DESIGN_GEOMETRIC_PRESENTATION_REPRESENTATION (  '', ( #230 ), #289 ) ;
#273 = FACE_OUTER_BOUND ( 'NONE', #350, .T. ) ;
#274 = EDGE_CURVE ( 'NONE', #269, #117, #349, .T. ) ;
#275 = ORIENTED_EDGE ( 'NONE', *, *, #180, .T. ) ;
#276 = ORIENTED_EDGE ( 'NONE', *, *, #378, .T. ) ;
#277 = CIRCLE ( 'NONE', #243, 0.1039999999999997600 ) ;
#278 = EDGE_LOOP ( 'NONE', ( #146 ) ) ;
#279 = ADVANCED_FACE ( 'NONE', ( #168, #273 ), #420, .T. ) ;
#280 = FACE_BOUND ( 'NONE', #337, .T. ) ;
#281 = EDGE_LOOP ( 'NONE', ( #128 ) ) ;
#282 = DIRECTION ( 'NONE',  ( -0.0000000000000000000, 0.0000000000000000000, 1.000000000000000000 ) ) ;
#283 = ORIENTED_EDGE ( 'NONE', *, *, #405, .T. ) ;
#284 = AXIS2_PLACEMENT_3D ( 'NONE', #184, #221, #323 ) ;
#285 = CARTESIAN_POINT ( 'NONE',  ( 0.8540000000000000900, -0.03199999999999972300, 0.01847520861406837200 ) ) ;
#286 = CYLINDRICAL_SURFACE ( 'NONE', #224, 0.07912500000000000100 ) ;
#287 = ORIENTED_EDGE ( 'NONE', *, *, #96, .T. ) ;
#288 =( CONVERSION_BASED_UNIT ( 'INCH', #239 ) LENGTH_UNIT ( ) NAMED_UNIT ( #318 ) );
#289 =( GEOMETRIC_REPRESENTATION_CONTEXT ( 3 ) GLOBAL_UNCERTAINTY_ASSIGNED_CONTEXT ( ( #124 ) ) GLOBAL_UNIT_ASSIGNED_CONTEXT ( ( #39, #302, #81 ) ) REPRESENTATION_CONTEXT ( 'NONE', 'WORKASPACE' ) );
#290 = VECTOR ( 'NONE', #82, 39.37007874015748900 ) ;
#291 = ORIENTED_EDGE ( 'NONE', *, *, #72, .F. ) ;
#292 = CARTESIAN_POINT ( 'NONE',  ( 0.6669999999999959300, 0.0000000000000000000, 0.0000000000000000000 ) ) ;
#293 = EDGE_CURVE ( 'NONE', #434, #434, #196, .T. ) ;
#294 = DIRECTION ( 'NONE',  ( -1.000000000000000000, 0.0000000000000000000, 0.0000000000000000000 ) ) ;
#295 = CARTESIAN_POINT ( 'NONE',  ( 0.8540000000000000900, 5.250270362823506100E-016, 0.03695041722813598900 ) ) ;
#296 = FACE_OUTER_BOUND ( 'NONE', #449, .T. ) ;
#297 = DIRECTION ( 'NONE',  ( 1.000000000000000000, 0.0000000000000000000, 0.0000000000000000000 ) ) ;
#298 = FACE_OUTER_BOUND ( 'NONE', #133, .T. ) ;
#299 =( LENGTH_UNIT ( ) NAMED_UNIT ( * ) SI_UNIT ( $, .METRE. ) );
#300 = CARTESIAN_POINT ( 'NONE',  ( 0.8540000000000000900, -0.03199999999999999400, -0.01847520861406791100 ) ) ;
#301 = AXIS2_PLACEMENT_3D ( 'NONE', #108, #384, #194 ) ;
#302 =( NAMED_UNIT ( * ) PLANE_ANGLE_UNIT ( ) SI_UNIT ( $, .RADIAN. ) );
#303 = DIRECTION ( 'NONE',  ( -1.000000000000000000, -0.0000000000000000000, -0.0000000000000000000 ) ) ;
#304 = VECTOR ( 'NONE', #251, 39.37007874015748100 ) ;
#305 = ORIENTED_EDGE ( 'NONE', *, *, #319, .T. ) ;
#306 = CARTESIAN_POINT ( 'NONE',  ( 0.9789999999999985400, 0.0000000000000000000, 0.0000000000000000000 ) ) ;
#307 = DIRECTION ( 'NONE',  ( 0.0000000000000000000, 0.0000000000000000000, 1.000000000000000000 ) ) ;
#308 = DIRECTION ( 'NONE',  ( -1.000000000000000000, -0.0000000000000000000, -0.0000000000000000000 ) ) ;
#309 = VECTOR ( 'NONE', #312, 39.37007874015747400 ) ;
#310 = CARTESIAN_POINT ( 'NONE',  ( 0.8540000000000000900, -2.667820306312756800E-016, -0.03695041722813599500 ) ) ;
#311 = LINE ( 'NONE', #348, #226 ) ;
#312 = DIRECTION ( 'NONE',  ( 0.0000000000000000000, -0.8660254037844363800, 0.5000000000000041100 ) ) ;
#313 = DIRECTION ( 'NONE',  ( -0.0000000000000000000, 0.5000000000000040000, 0.8660254037844363800 ) ) ;
#314 = DIRECTION ( 'NONE',  ( 1.000000000000000000, 0.0000000000000000000, 0.0000000000000000000 ) ) ;
#315 = ADVANCED_FACE ( 'NONE', ( #431, #59 ), #340, .F. ) ;
#316 = ORIENTED_EDGE ( 'NONE', *, *, #232, .T. ) ;
#317 = DIRECTION ( 'NONE',  ( -1.000000000000000000, -0.0000000000000000000, -0.0000000000000000000 ) ) ;
#318 = DIMENSIONAL_EXPONENTS ( 1.000000000000000000, 0.0000000000000000000, 0.0000000000000000000, 0.0000000000000000000, 0.0000000000000000000, 0.0000000000000000000, 0.0000000000000000000 ) ;
#319 = EDGE_CURVE ( 'NONE', #117, #262, #249, .T. ) ;
#320 =( LENGTH_UNIT ( ) NAMED_UNIT ( * ) SI_UNIT ( $, .METRE. ) );
#321 = CIRCLE ( 'NONE', #428, 0.1014999999999999900 ) ;
#322 = EDGE_LOOP ( 'NONE', ( #3 ) ) ;
#323 = DIRECTION ( 'NONE',  ( 0.0000000000000000000, 0.0000000000000000000, 1.000000000000000000 ) ) ;
#324 = AXIS2_PLACEMENT_3D ( 'NONE', #292, #450, #261 ) ;
#325 = CARTESIAN_POINT ( 'NONE',  ( 0.8540000000000000900, 0.03199999999999985500, -0.01847520861406815000 ) ) ;
#326 = ORIENTED_EDGE ( 'NONE', *, *, #339, .F. ) ;
#327 = CARTESIAN_POINT ( 'NONE',  ( 0.8540000000000000900, -4.268512490100411300E-018, -0.03695041722813599500 ) ) ;
#328 = CARTESIAN_POINT ( 'NONE',  ( 0.06200000000000008300, 0.0000000000000000000, 0.0000000000000000000 ) ) ;
#329 = VECTOR ( 'NONE', #382, 39.37007874015748100 ) ;
#330 = ORIENTED_EDGE ( 'NONE', *, *, #42, .F. ) ;
#331 = CARTESIAN_POINT ( 'NONE',  ( 0.6669999999999959300, 0.0000000000000000000, 0.0000000000000000000 ) ) ;
#332 = AXIS2_PLACEMENT_3D ( 'NONE', #37, #229, #166 ) ;
#333 = CARTESIAN_POINT ( 'NONE',  ( 0.06199999999999950000, 0.0000000000000000000, 0.08150000000000000300 ) ) ;
#334 =( NAMED_UNIT ( * ) PLANE_ANGLE_UNIT ( ) SI_UNIT ( $, .RADIAN. ) );
#335 = DIRECTION ( 'NONE',  ( 0.0000000000000000000, 0.8660254037844328200, -0.5000000000000101000 ) ) ;
#336 = CONICAL_SURFACE ( 'NONE', #332, 0.05557643593428763400, 0.6457718232379476800 ) ;
#337 = EDGE_LOOP ( 'NONE', ( #439 ) ) ;
#338 = PLANE ( 'NONE',  #93 ) ;
#339 = EDGE_CURVE ( 'NONE', #138, #368, #358, .T. ) ;
#340 = TOROIDAL_SURFACE ( 'NONE', #254, 0.1014999999999999900, 0.02000000000000000000 ) ;
#341 = ORIENTED_EDGE ( 'NONE', *, *, #405, .F. ) ;
#342 = UNCERTAINTY_MEASURE_WITH_UNIT (LENGTH_MEASURE( 1.000000000000000100E-005 ), #78, 'distance_accuracy_value', 'NONE');
#343 = AXIS2_PLACEMENT_3D ( 'NONE', #325, #388, #195 ) ;
#344 = SURFACE_STYLE_FILL_AREA ( #228 ) ;
#345 = ORIENTED_EDGE ( 'NONE', *, *, #86, .T. ) ;
#346 = ADVANCED_FACE ( 'NONE', ( #154, #241 ), #28, .F. ) ;
#347 = ADVANCED_FACE ( 'NONE', ( #409 ), #150, .T. ) ;
#348 = CARTESIAN_POINT ( 'NONE',  ( 0.9790000000000000900, 0.03199999999999999400, 0.01847520861406791100 ) ) ;
#349 = LINE ( 'NONE', #172, #260 ) ;
#350 = EDGE_LOOP ( 'NONE', ( #345 ) ) ;
#351 = AXIS2_PLACEMENT_3D ( 'NONE', #416, #68, #131 ) ;
#352 = FILL_AREA_STYLE_COLOUR ( '', #162 ) ;
#353 = VERTEX_POINT ( 'NONE', #395 ) ;
#354 = VECTOR ( 'NONE', #335, 39.37007874015748100 ) ;
#355 = ORIENTED_EDGE ( 'NONE', *, *, #421, .T. ) ;
#356 = CARTESIAN_POINT ( 'NONE',  ( -39.37007874015748100, 0.0000000000000000000, 0.0000000000000000000 ) ) ;
#357 = AXIS2_PLACEMENT_3D ( 'NONE', #36, #126, #366 ) ;
#358 = LINE ( 'NONE', #71, #329 ) ;
#359 = ORIENTED_EDGE ( 'NONE', *, *, #180, .F. ) ;
#360 = EDGE_CURVE ( 'NONE', #353, #353, #33, .T. ) ;
#361 = DIRECTION ( 'NONE',  ( 0.0000000000000000000, 0.0000000000000000000, 1.000000000000000000 ) ) ;
#362 = CARTESIAN_POINT ( 'NONE',  ( 0.9477500000000014200, 0.0000000000000000000, 0.07912500000000000100 ) ) ;
#363 = SHAPE_DEFINITION_REPRESENTATION ( #233, #266 ) ;
#364 = LINE ( 'NONE', #140, #91 ) ;
#365 = EDGE_LOOP ( 'NONE', ( #110, #326, #275, #276 ) ) ;
#366 = DIRECTION ( 'NONE',  ( 1.000000000000000000, 0.0000000000000000000, 0.0000000000000000000 ) ) ;
#367 = LINE ( 'NONE', #185, #211 ) ;
#368 = VERTEX_POINT ( 'NONE', #259 ) ;
#369 = STYLED_ITEM ( 'NONE', ( #174 ), #167 ) ;
#370 = LINE ( 'NONE', #264, #204 ) ;
#371 = CIRCLE ( 'NONE', #202, 0.08150000000000000300 ) ;
#372 = ORIENTED_EDGE ( 'NONE', *, *, #319, .F. ) ;
#373 = ADVANCED_FACE ( 'NONE', ( #132 ), #418, .F. ) ;
#374 = PRODUCT_DEFINITION ( 'UNKNOWN', '', #398, #407 ) ;
#375 = FACE_OUTER_BOUND ( 'NONE', #207, .T. ) ;
#376 = ADVANCED_FACE ( 'NONE', ( #234 ), #30, .T. ) ;
#377 = EDGE_LOOP ( 'NONE', ( #60 ) ) ;
#378 = EDGE_CURVE ( 'NONE', #170, #156, #19, .T. ) ;
#379 = CARTESIAN_POINT ( 'NONE',  ( -39.37007874015748100, 0.0000000000000000000, 0.0000000000000000000 ) ) ;
#380 = FACE_OUTER_BOUND ( 'NONE', #102, .T. ) ;
#381 = LINE ( 'NONE', #186, #216 ) ;
#382 = DIRECTION ( 'NONE',  ( 1.000000000000000000, 0.0000000000000000000, 0.0000000000000000000 ) ) ;
#383 = CARTESIAN_POINT ( 'NONE',  ( 0.8540000000000000900, 2.603792618961250900E-016, 0.03695041722813599500 ) ) ;
#384 = DIRECTION ( 'NONE',  ( -1.000000000000000000, 0.0000000000000000000, -0.0000000000000000000 ) ) ;
#385 = LENGTH_MEASURE_WITH_UNIT ( LENGTH_MEASURE( 0.02539999999999999900 ), #270 );
#386 = EDGE_CURVE ( 'NONE', #265, #265, #321, .T. ) ;
#387 = ORIENTED_EDGE ( 'NONE', *, *, #5, .F. ) ;
#388 = DIRECTION ( 'NONE',  ( 0.0000000000000000000, -0.4999999999999980000, 0.8660254037844398200 ) ) ;
#389 = DIRECTION ( 'NONE',  ( 1.000000000000000000, 0.0000000000000000000, 0.0000000000000000000 ) ) ;
#390 = DIRECTION ( 'NONE',  ( 0.0000000000000000000, 0.0000000000000000000, 1.000000000000000000 ) ) ;
#391 = CIRCLE ( 'NONE', #10, 0.05557643593428763400 ) ;
#392 = DIRECTION ( 'NONE',  ( 0.0000000000000000000, 0.8660254037844328200, -0.5000000000000101000 ) ) ;
#393 = FACE_OUTER_BOUND ( 'NONE', #365, .T. ) ;
#394 = PRESENTATION_LAYER_ASSIGNMENT (  '', '', ( #369 ) ) ;
#395 = CARTESIAN_POINT ( 'NONE',  ( 0.6669999999999959300, 0.0000000000000000000, 0.08150000000000000300 ) ) ;
#396 = APPLICATION_CONTEXT ( 'automotive_design' ) ;
#397 = ORIENTED_EDGE ( 'NONE', *, *, #42, .T. ) ;
#398 = PRODUCT_DEFINITION_FORMATION_WITH_SPECIFIED_SOURCE ( 'ANY', '', #50, .NOT_KNOWN. ) ;
#399 = CARTESIAN_POINT ( 'NONE',  ( 0.02200000000000320800, 0.0000000000000000000, 0.0000000000000000000 ) ) ;
#400 = EDGE_CURVE ( 'NONE', #173, #173, #391, .T. ) ;
#401 = VECTOR ( 'NONE', #389, 39.37007874015748100 ) ;
#402 = EDGE_LOOP ( 'NONE', ( #212, #330, #436, #305 ) ) ;
#403 = AXIS2_PLACEMENT_3D ( 'NONE', #31, #294, #76 ) ;
#404 = ORIENTED_EDGE ( 'NONE', *, *, #151, .F. ) ;
#405 = EDGE_CURVE ( 'NONE', #262, #368, #120, .T. ) ;
#406 = ADVANCED_FACE ( 'NONE', ( #380 ), #338, .T. ) ;
#407 = PRODUCT_DEFINITION_CONTEXT ( 'detailed design', #396, 'design' ) ;
#408 = DIRECTION ( 'NONE',  ( 0.0000000000000000000, 0.0000000000000000000, 1.000000000000000000 ) ) ;
#409 = FACE_OUTER_BOUND ( 'NONE', #402, .T. ) ;
#410 = ORIENTED_EDGE ( 'NONE', *, *, #293, .T. ) ;
#411 = DIRECTION ( 'NONE',  ( -1.000000000000000000, -0.0000000000000000000, -0.0000000000000000000 ) ) ;
#412 = MECHANICAL_DESIGN_GEOMETRIC_PRESENTATION_REPRESENTATION (  '', ( #369 ), #433 ) ;
#413 = CARTESIAN_POINT ( 'NONE',  ( 0.9790000000000000900, 0.03199999999999985500, -0.01847520861406815000 ) ) ;
#414 = CARTESIAN_POINT ( 'NONE',  ( 0.9789999999999999800, 0.05557643593428763400, 0.0000000000000000000 ) ) ;
#415 = LINE ( 'NONE', #285, #53 ) ;
#416 = CARTESIAN_POINT ( 'NONE',  ( -1.281371487411106600E-018, 0.0000000000000000000, 0.0000000000000000000 ) ) ;
#417 = EDGE_LOOP ( 'NONE', ( #183 ) ) ;
#418 = PLANE ( 'NONE',  #403 ) ;
#419 = PRODUCT_RELATED_PRODUCT_CATEGORY ( 'part', '', ( #50 ) ) ;
#420 = CYLINDRICAL_SURFACE ( 'NONE', #237, 0.1259999999999999700 ) ;
#421 = EDGE_CURVE ( 'NONE', #127, #454, #225, .T. ) ;
#422 = ORIENTED_EDGE ( 'NONE', *, *, #446, .F. ) ;
#423 = DIRECTION ( 'NONE',  ( 0.0000000000000000000, 0.0000000000000000000, 1.000000000000000000 ) ) ;
#424 = CARTESIAN_POINT ( 'NONE',  ( 0.0000000000000000000, 0.0000000000000000000, 0.1039999999999997600 ) ) ;
#425 = CARTESIAN_POINT ( 'NONE',  ( 0.9789999999999985400, 0.0000000000000000000, 0.05557643593428763400 ) ) ;
#426 = FILL_AREA_STYLE ('',( #455 ) ) ;
#427 = VECTOR ( 'NONE', #100, 39.37007874015748100 ) ;
#428 = AXIS2_PLACEMENT_3D ( 'NONE', #1, #303, #456 ) ;
#429 = ORIENTED_EDGE ( 'NONE', *, *, #247, .F. ) ;
#430 = EDGE_CURVE ( 'NONE', #65, #65, #142, .T. ) ;
#431 = FACE_OUTER_BOUND ( 'NONE', #417, .T. ) ;
#432 = ORIENTED_EDGE ( 'NONE', *, *, #339, .T. ) ;
#433 =( GEOMETRIC_REPRESENTATION_CONTEXT ( 3 ) GLOBAL_UNCERTAINTY_ASSIGNED_CONTEXT ( ( #38 ) ) GLOBAL_UNIT_ASSIGNED_CONTEXT ( ( #288, #190, #29 ) ) REPRESENTATION_CONTEXT ( 'NONE', 'WORKASPACE' ) );
#434 = VERTEX_POINT ( 'NONE', #158 ) ;
#435 = FACE_OUTER_BOUND ( 'NONE', #92, .T. ) ;
#436 = ORIENTED_EDGE ( 'NONE', *, *, #274, .T. ) ;
#437 = ADVANCED_FACE ( 'NONE', ( #296 ), #451, .T. ) ;
#438 = FACE_OUTER_BOUND ( 'NONE', #278, .T. ) ;
#439 = ORIENTED_EDGE ( 'NONE', *, *, #386, .T. ) ;
#440 = EDGE_CURVE ( 'NONE', #156, #454, #215, .T. ) ;
#441 = VERTEX_POINT ( 'NONE', #424 ) ;
#442 = LINE ( 'NONE', #413, #290 ) ;
#443 = EDGE_LOOP ( 'NONE', ( #106 ) ) ;
#444 = AXIS2_PLACEMENT_3D ( 'NONE', #448, #155, #198 ) ;
#445 = CARTESIAN_POINT ( 'NONE',  ( 0.04200000000000007200, 0.1259999999999999700, 0.0000000000000000000 ) ) ;
#446 = EDGE_CURVE ( 'NONE', #14, #112, #370, .T. ) ;
#447 = FACE_OUTER_BOUND ( 'NONE', #244, .T. ) ;
#448 = CARTESIAN_POINT ( 'NONE',  ( 0.8540000000000000900, -0.03199999999999972300, 0.01847520861406837200 ) ) ;
#449 = EDGE_LOOP ( 'NONE', ( #220, #250, #287, #231 ) ) ;
#450 = DIRECTION ( 'NONE',  ( -1.000000000000000000, -0.0000000000000000000, -0.0000000000000000000 ) ) ;
#451 = PLANE ( 'NONE',  #176 ) ;
#452 = VECTOR ( 'NONE', #34, 39.37007874015748900 ) ;
#453 = VECTOR ( 'NONE', #210, 39.37007874015748100 ) ;
#454 = VERTEX_POINT ( 'NONE', #271 ) ;
#455 = FILL_AREA_STYLE_COLOUR ( '', #137 ) ;
#456 = DIRECTION ( 'NONE',  ( 0.0000000000000000000, 0.0000000000000000000, 1.000000000000000000 ) ) ;
#457 = SURFACE_STYLE_USAGE ( .BOTH. , #238 ) ;
ENDSEC;
END-ISO-10303-21;
