ISO-10303-21;
HEADER;
FILE_DESCRIPTION (( 'STEP AP203' ),
    '1' );
FILE_NAME ('HL10-4-2.STEP',
    '2026-04-01T23:46:45',
    ( 'ltabalon_s2' ),
    ( '' ),
    'SwSTEP 2.0',
    'SolidWorks 2020',
    '' );
FILE_SCHEMA (( 'CONFIG_CONTROL_DESIGN' ));
ENDSEC;

DATA;
#1 = DATE_AND_TIME ( #641, #429 ) ;
#2 = CARTESIAN_POINT ( 'NONE',  ( 0.4559999999999999054, 0.04257643593428764306, 0.0000000000000000000 ) ) ;
#3 = EDGE_CURVE ( 'NONE', #274, #154, #611, .T. ) ;
#4 = ORIENTED_EDGE ( 'NONE', *, *, #106, .T. ) ;
#5 = CARTESIAN_POINT ( 'NONE',  ( 0.05200000000000042782, 0.0000000000000000000, 0.06850000000000004696 ) ) ;
#6 = VECTOR ( 'NONE', #138, 39.37007874015748854 ) ;
#7 = ORIENTED_EDGE ( 'NONE', *, *, #245, .T. ) ;
#8 = CARTESIAN_POINT ( 'NONE',  ( -39.37007874015748143, 0.0000000000000000000, 0.0000000000000000000 ) ) ;
#9 = EDGE_LOOP ( 'NONE', ( #170, #451 ) ) ;
#10 = CARTESIAN_POINT ( 'NONE',  ( 0.05200000000000008782, 0.0000000000000000000, 0.08350000000000007416 ) ) ;
#11 = EDGE_CURVE ( 'NONE', #350, #606, #393, .T. ) ;
#12 = DIRECTION ( 'NONE',  ( -1.000000000000000000, -0.0000000000000000000, -0.0000000000000000000 ) ) ;
#13 = ORIENTED_EDGE ( 'NONE', *, *, #27, .F. ) ;
#14 = CARTESIAN_POINT ( 'NONE',  ( 0.01700000000000367190, 0.0000000000000000000, 0.0000000000000000000 ) ) ;
#15 = DIRECTION ( 'NONE',  ( 0.0000000000000000000, 0.0000000000000000000, -1.000000000000000000 ) ) ;
#16 = EDGE_LOOP ( 'NONE', ( #498, #289, #124, #575 ) ) ;
#17 = DIRECTION ( 'NONE',  ( 0.0000000000000000000, -0.8660254037844362651, 0.5000000000000041078 ) ) ;
#18 = CIRCLE ( 'NONE', #266, 0.08350000000000007416 ) ;
#19 = CIRCLE ( 'NONE', #389, 0.04257643593428764306 ) ;
#20 = DIRECTION ( 'NONE',  ( 0.0000000000000000000, -1.000000000000000000, 0.0000000000000000000 ) ) ;
#21 = ADVANCED_FACE ( 'NONE', ( #178 ), #118, .T. ) ;
#22 = VERTEX_POINT ( 'NONE', #65 ) ;
#23 = EDGE_LOOP ( 'NONE', ( #297, #293, #609, #664 ) ) ;
#24 = FACE_OUTER_BOUND ( 'NONE', #602, .T. ) ;
#25 = ORIENTED_EDGE ( 'NONE', *, *, #677, .F. ) ;
#26 = CARTESIAN_POINT ( 'NONE',  ( 0.05200000000000042782, 0.0000000000000000000, 0.0000000000000000000 ) ) ;
#27 = EDGE_CURVE ( 'NONE', #173, #350, #444, .T. ) ;
#28 = DIRECTION ( 'NONE',  ( -1.000000000000000000, -0.0000000000000000000, -0.0000000000000000000 ) ) ;
#29 = VECTOR ( 'NONE', #435, 39.37007874015748143 ) ;
#30 = ORIENTED_EDGE ( 'NONE', *, *, #308, .F. ) ;
#31 = CARTESIAN_POINT ( 'NONE',  ( 0.3634999999999999343, -0.03199999999999999373, -0.01847520861406791101 ) ) ;
#32 = CIRCLE ( 'NONE', #241, 0.06612500000000000322 ) ;
#33 = CIRCLE ( 'NONE', #421, 0.1162500000000000200 ) ;
#34 = EDGE_LOOP ( 'NONE', ( #671, #560, #211, #224, #335, #629 ) ) ;
#35 = CARTESIAN_POINT ( 'NONE',  ( 0.4559999999999999054, 5.250270362823506089E-16, 0.03695041722813598856 ) ) ;
#36 = EDGE_CURVE ( 'NONE', #599, #274, #232, .T. ) ;
#37 = CARTESIAN_POINT ( 'NONE',  ( 0.3634999999999999343, -0.03200000000000000067, -0.01847520861406792142 ) ) ;
#38 = ORIENTED_EDGE ( 'NONE', *, *, #175, .F. ) ;
#39 = DIRECTION ( 'NONE',  ( 0.0000000000000000000, 0.0000000000000000000, 1.000000000000000000 ) ) ;
#40 = FACE_OUTER_BOUND ( 'NONE', #221, .T. ) ;
#41 = CC_DESIGN_APPROVAL ( #151, ( #53 ) ) ;
#42 = DATE_AND_TIME ( #581, #344 ) ;
#43 = DIRECTION ( 'NONE',  ( 0.0000000000000000000, 0.0000000000000000000, 1.000000000000000000 ) ) ;
#44 = EDGE_CURVE ( 'NONE', #159, #484, #299, .T. ) ;
#45 = PERSON_AND_ORGANIZATION ( #146, #255 ) ;
#46 = LINE ( 'NONE', #210, #304 ) ;
#47 = EDGE_CURVE ( 'NONE', #509, #475, #222, .T. ) ;
#48 = CARTESIAN_POINT ( 'NONE',  ( 0.0000000000000000000, 0.0000000000000000000, 0.0000000000000000000 ) ) ;
#49 = PLANE ( 'NONE',  #204 ) ;
#50 = AXIS2_PLACEMENT_3D ( 'NONE', #8, #394, #657 ) ;
#51 = VECTOR ( 'NONE', #99, 39.37007874015748143 ) ;
#52 = CYLINDRICAL_SURFACE ( 'NONE', #195, 0.06850000000000003308 ) ;
#53 = PRODUCT_DEFINITION ( 'UNKNOWN', '', #314, #522 ) ;
#54 = CALENDAR_DATE ( 2026, 1, 4 ) ;
#55 = CARTESIAN_POINT ( 'NONE',  ( 0.1619999999999989782, 0.0000000000000000000, 0.06612500000000000322 ) ) ;
#56 = CARTESIAN_POINT ( 'NONE',  ( 0.3634999999999999343, -0.03199999999999999373, -0.01847520861406791101 ) ) ;
#57 = ORIENTED_EDGE ( 'NONE', *, *, #527, .T. ) ;
#58 = DIRECTION ( 'NONE',  ( -1.000000000000000000, -0.0000000000000000000, -0.0000000000000000000 ) ) ;
#59 = AXIS2_PLACEMENT_3D ( 'NONE', #405, #621, #272 ) ;
#60 = EDGE_LOOP ( 'NONE', ( #431, #115, #70, #654 ) ) ;
#61 = DIRECTION ( 'NONE',  ( 0.0000000000000000000, 0.4999999999999920064, -0.8660254037844433705 ) ) ;
#62 = ADVANCED_FACE ( 'NONE', ( #396 ), #294, .T. ) ;
#63 = CARTESIAN_POINT ( 'NONE',  ( 0.3634999999999999343, 0.03199999999999985495, -0.01847520861406815040 ) ) ;
#64 = ORIENTED_EDGE ( 'NONE', *, *, #476, .F. ) ;
#65 = CARTESIAN_POINT ( 'NONE',  ( 0.0000000000000000000, 1.319556926081272932E-17, 0.09924999999999997713 ) ) ;
#66 = DIRECTION ( 'NONE',  ( -1.000000000000000000, -0.0000000000000000000, -0.0000000000000000000 ) ) ;
#67 = ORIENTED_EDGE ( 'NONE', *, *, #131, .F. ) ;
#68 = CARTESIAN_POINT ( 'NONE',  ( 0.3634999999999999343, -0.03199999999999972311, 0.01847520861406837245 ) ) ;
#69 = LINE ( 'NONE', #223, #410 ) ;
#70 = ORIENTED_EDGE ( 'NONE', *, *, #74, .T. ) ;
#71 = CARTESIAN_POINT ( 'NONE',  ( 0.01700000000000367190, 0.0000000000000000000, -0.1162500000000000200 ) ) ;
#72 = VECTOR ( 'NONE', #482, 39.37007874015748854 ) ;
#73 = PRODUCT ( 'HL10-4-2', 'HL10-4-2', '', ( #149 ) ) ;
#74 = EDGE_CURVE ( 'NONE', #623, #484, #322, .T. ) ;
#75 = DIRECTION ( 'NONE',  ( 0.0000000000000000000, 0.0000000000000000000, 1.000000000000000000 ) ) ;
#76 = EDGE_LOOP ( 'NONE', ( #678, #549, #234, #663 ) ) ;
#77 = CARTESIAN_POINT ( 'NONE',  ( 0.05200000000000042782, 0.0000000000000000000, 0.0000000000000000000 ) ) ;
#78 = ORIENTED_EDGE ( 'NONE', *, *, #44, .T. ) ;
#79 = CARTESIAN_POINT ( 'NONE',  ( 0.3634999999999999343, 0.03199999999999999373, 0.01847520861406791101 ) ) ;
#80 = DIRECTION ( 'NONE',  ( 0.0000000000000000000, 0.0000000000000000000, -1.000000000000000000 ) ) ;
#81 = ORIENTED_EDGE ( 'NONE', *, *, #592, .T. ) ;
#82 = CIRCLE ( 'NONE', #473, 0.1162500000000000200 ) ;
#83 = ADVANCED_FACE ( 'NONE', ( #652 ), #290, .T. ) ;
#84 = VECTOR ( 'NONE', #351, 39.37007874015748143 ) ;
#85 = CARTESIAN_POINT ( 'NONE',  ( 0.4559999999999999054, 0.03200000000000012557, 0.01847520861406769591 ) ) ;
#86 = VERTEX_POINT ( 'NONE', #121 ) ;
#87 = CARTESIAN_POINT ( 'NONE',  ( 0.01700000000000367190, 0.0000000000000000000, 0.0000000000000000000 ) ) ;
#88 = CARTESIAN_POINT ( 'NONE',  ( 0.4559999999999999054, -2.667820306312756818E-16, -0.03695041722813599550 ) ) ;
#89 = VERTEX_POINT ( 'NONE', #561 ) ;
#90 = CARTESIAN_POINT ( 'NONE',  ( 0.05200000000000008782, 0.0000000000000000000, 0.0000000000000000000 ) ) ;
#91 = EDGE_CURVE ( 'NONE', #480, #382, #296, .T. ) ;
#92 = PERSON_AND_ORGANIZATION_ROLE ( 'design_owner' ) ;
#93 = DIRECTION ( 'NONE',  ( -1.000000000000000000, -0.0000000000000000000, -0.0000000000000000000 ) ) ;
#94 = VECTOR ( 'NONE', #348, 39.37007874015748143 ) ;
#95 = EDGE_CURVE ( 'NONE', #22, #154, #286, .T. ) ;
#96 = DIRECTION ( 'NONE',  ( -1.000000000000000000, -0.0000000000000000000, -0.0000000000000000000 ) ) ;
#97 = COORDINATED_UNIVERSAL_TIME_OFFSET ( 8, 0, .BEHIND. ) ;
#98 = CARTESIAN_POINT ( 'NONE',  ( 0.4559999999999997389, 0.0000000000000000000, 0.04257643593428764306 ) ) ;
#99 = DIRECTION ( 'NONE',  ( -1.000000000000000000, -0.0000000000000000000, -0.0000000000000000000 ) ) ;
#100 = APPROVAL ( #537, 'UNSPECIFIED' ) ;
#101 = AXIS2_PLACEMENT_3D ( 'NONE', #258, #377, #640 ) ;
#102 = DIRECTION ( 'NONE',  ( 0.0000000000000000000, 0.0000000000000000000, 1.000000000000000000 ) ) ;
#103 = VECTOR ( 'NONE', #254, 39.37007874015748143 ) ;
#104 = LINE ( 'NONE', #156, #72 ) ;
#105 = FACE_OUTER_BOUND ( 'NONE', #556, .T. ) ;
#106 = EDGE_CURVE ( 'NONE', #484, #623, #496, .T. ) ;
#107 = FACE_OUTER_BOUND ( 'NONE', #120, .T. ) ;
#108 = ORIENTED_EDGE ( 'NONE', *, *, #36, .F. ) ;
#109 = VERTEX_POINT ( 'NONE', #610 ) ;
#110 = AXIS2_PLACEMENT_3D ( 'NONE', #574, #622, #295 ) ;
#111 = FACE_OUTER_BOUND ( 'NONE', #552, .T. ) ;
#112 = AXIS2_PLACEMENT_3D ( 'NONE', #90, #681, #39 ) ;
#113 = ADVANCED_FACE ( 'NONE', ( #331 ), #125, .T. ) ;
#114 = VERTEX_POINT ( 'NONE', #133 ) ;
#115 = ORIENTED_EDGE ( 'NONE', *, *, #162, .T. ) ;
#116 = CYLINDRICAL_SURFACE ( 'NONE', #464, 0.06850000000000003308 ) ;
#117 = EDGE_LOOP ( 'NONE', ( #64, #698, #461, #231 ) ) ;
#118 = CYLINDRICAL_SURFACE ( 'NONE', #265, 0.1162500000000000200 ) ;
#119 = CARTESIAN_POINT ( 'NONE',  ( -39.37007874015748143, 8.097976959361873640E-18, -0.06612500000000000322 ) ) ;
#120 = EDGE_LOOP ( 'NONE', ( #658, #357, #697, #152 ) ) ;
#121 = CARTESIAN_POINT ( 'NONE',  ( 0.03700000000000181616, 0.0000000000000000000, 0.1162500000000000200 ) ) ;
#122 = ADVANCED_FACE ( 'NONE', ( #465 ), #535, .F. ) ;
#123 = FACE_OUTER_BOUND ( 'NONE', #247, .T. ) ;
#124 = ORIENTED_EDGE ( 'NONE', *, *, #91, .F. ) ;
#125 = PLANE ( 'NONE',  #454 ) ;
#126 = VECTOR ( 'NONE', #329, 39.37007874015748143 ) ;
#127 = CARTESIAN_POINT ( 'NONE',  ( 0.1619999999999989782, 0.0000000000000000000, 0.0000000000000000000 ) ) ;
#128 = ORIENTED_EDGE ( 'NONE', *, *, #320, .F. ) ;
#129 = CARTESIAN_POINT ( 'NONE',  ( 0.3634999999999999343, -2.667820306312756818E-16, -0.03695041722813599550 ) ) ;
#130 = AXIS2_PLACEMENT_3D ( 'NONE', #77, #399, #499 ) ;
#131 = EDGE_CURVE ( 'NONE', #524, #302, #250, .T. ) ;
#132 = ORIENTED_EDGE ( 'NONE', *, *, #131, .T. ) ;
#133 = CARTESIAN_POINT ( 'NONE',  ( 0.3634999999999999343, -4.268512490100411279E-18, -0.03695041722813599550 ) ) ;
#134 = DIRECTION ( 'NONE',  ( -1.000000000000000000, -0.0000000000000000000, -0.0000000000000000000 ) ) ;
#135 = ORIENTED_EDGE ( 'NONE', *, *, #685, .T. ) ;
#136 = LINE ( 'NONE', #194, #84 ) ;
#137 = AXIS2_PLACEMENT_3D ( 'NONE', #63, #276, #233 ) ;
#138 = DIRECTION ( 'NONE',  ( 0.0000000000000000000, -0.8660254037844397068, -0.4999999999999979461 ) ) ;
#139 = EDGE_LOOP ( 'NONE', ( #346, #225 ) ) ;
#140 = CARTESIAN_POINT ( 'NONE',  ( 0.3634999999999999343, 5.250270362823506089E-16, 0.03695041722813598856 ) ) ;
#141 = LINE ( 'NONE', #37, #94 ) ;
#142 = DIRECTION ( 'NONE',  ( -0.0000000000000000000, 1.000000000000000000, 1.224646799147353207E-16 ) ) ;
#143 = CARTESIAN_POINT ( 'NONE',  ( 0.03700000000000181616, 0.0000000000000000000, 0.0000000000000000000 ) ) ;
#144 = VECTOR ( 'NONE', #472, 39.37007874015748143 ) ;
#145 = CIRCLE ( 'NONE', #673, 0.1162500000000000200 ) ;
#146 = PERSON ( 'UNSPECIFIED', 'UNSPECIFIED', 'UNSPECIFIED', ('UNSPECIFIED'), ('UNSPECIFIED'), ('UNSPECIFIED') ) ;
#147 = DATE_AND_TIME ( #202, #199 ) ;
#148 = LINE ( 'NONE', #256, #660 ) ;
#149 = MECHANICAL_CONTEXT ( 'NONE', #312, 'mechanical' ) ;
#150 = DIRECTION ( 'NONE',  ( 0.0000000000000000000, 0.8660254037844431485, 0.4999999999999918954 ) ) ;
#151 = APPROVAL ( #257, 'UNSPECIFIED' ) ;
#152 = ORIENTED_EDGE ( 'NONE', *, *, #592, .F. ) ;
#153 = FACE_OUTER_BOUND ( 'NONE', #139, .T. ) ;
#154 = VERTEX_POINT ( 'NONE', #679 ) ;
#155 = CIRCLE ( 'NONE', #227, 0.06850000000000000533 ) ;
#156 = CARTESIAN_POINT ( 'NONE',  ( 0.4559999999999999054, 0.03199999999999985495, -0.01847520861406815040 ) ) ;
#157 = ADVANCED_FACE ( 'NONE', ( #567 ), #169, .F. ) ;
#158 = DIRECTION ( 'NONE',  ( 0.0000000000000000000, 0.0000000000000000000, 1.000000000000000000 ) ) ;
#159 = VERTEX_POINT ( 'NONE', #633 ) ;
#160 = DIRECTION ( 'NONE',  ( -1.000000000000000000, -0.0000000000000000000, -0.0000000000000000000 ) ) ;
#161 = PRODUCT_RELATED_PRODUCT_CATEGORY ( 'detail', '', ( #73 ) ) ;
#162 = EDGE_CURVE ( 'NONE', #404, #623, #514, .T. ) ;
#163 = CARTESIAN_POINT ( 'NONE',  ( 0.1619999999999989782, 0.0000000000000000000, 0.0000000000000000000 ) ) ;
#164 = ORIENTED_EDGE ( 'NONE', *, *, #106, .F. ) ;
#165 = CARTESIAN_POINT ( 'NONE',  ( -39.37007874015748143, 0.0000000000000000000, 0.0000000000000000000 ) ) ;
#166 = AXIS2_PLACEMENT_3D ( 'NONE', #26, #607, #238 ) ;
#167 = CIRCLE ( 'NONE', #287, 0.06612500000000000322 ) ;
#168 = CARTESIAN_POINT ( 'NONE',  ( -39.37007874015748143, 1.423651904008798341E-17, -0.1162500000000000200 ) ) ;
#169 = TOROIDAL_SURFACE ( 'NONE', #230, 0.08350000000000007416, 0.01500000000000002720 ) ;
#170 = ORIENTED_EDGE ( 'NONE', *, *, #586, .F. ) ;
#171 = ORIENTED_EDGE ( 'NONE', *, *, #27, .T. ) ;
#172 = PLANE ( 'NONE',  #137 ) ;
#173 = VERTEX_POINT ( 'NONE', #243 ) ;
#174 = CARTESIAN_POINT ( 'NONE',  ( 0.4559999999999999054, -0.03199999999999999373, -0.01847520861406791101 ) ) ;
#175 = EDGE_CURVE ( 'NONE', #173, #475, #136, .T. ) ;
#176 = FACE_OUTER_BOUND ( 'NONE', #9, .T. ) ;
#177 = EDGE_LOOP ( 'NONE', ( #392, #447, #455, #353 ) ) ;
#178 = FACE_OUTER_BOUND ( 'NONE', #117, .T. ) ;
#179 = CARTESIAN_POINT ( 'NONE',  ( 0.3634999999999999343, -0.03199999999999999373, -0.01847520861406791101 ) ) ;
#180 = CIRCLE ( 'NONE', #323, 0.06850000000000000533 ) ;
#181 = EDGE_LOOP ( 'NONE', ( #135, #81 ) ) ;
#182 = DIRECTION ( 'NONE',  ( -1.000000000000000000, -0.0000000000000000000, -0.0000000000000000000 ) ) ;
#183 = AXIS2_PLACEMENT_3D ( 'NONE', #391, #66, #597 ) ;
#184 = ADVANCED_FACE ( 'NONE', ( #521 ), #474, .T. ) ;
#185 = LENGTH_MEASURE_WITH_UNIT ( LENGTH_MEASURE( 0.02539999999999999897 ), #515 );
#186 = ORIENTED_EDGE ( 'NONE', *, *, #539, .T. ) ;
#187 = DIRECTION ( 'NONE',  ( -1.000000000000000000, -0.0000000000000000000, -0.0000000000000000000 ) ) ;
#188 = CARTESIAN_POINT ( 'NONE',  ( 0.3634999999999999343, -4.268512490100411279E-18, -0.03695041722813599550 ) ) ;
#189 = ADVANCED_FACE ( 'NONE', ( #624 ), #570, .T. ) ;
#190 = ORIENTED_EDGE ( 'NONE', *, *, #689, .F. ) ;
#191 = CARTESIAN_POINT ( 'NONE',  ( 0.4559999999999997389, 0.0000000000000000000, 0.0000000000000000000 ) ) ;
#192 = PLANE ( 'NONE',  #110 ) ;
#193 = ORIENTED_EDGE ( 'NONE', *, *, #604, .T. ) ;
#194 = CARTESIAN_POINT ( 'NONE',  ( 0.3634999999999999343, -0.03199999999999999373, 0.01847520861406792489 ) ) ;
#195 = AXIS2_PLACEMENT_3D ( 'NONE', #325, #96, #530 ) ;
#196 = CARTESIAN_POINT ( 'NONE',  ( 0.01700000000000367190, 0.0000000000000000000, 0.0000000000000000000 ) ) ;
#197 = CARTESIAN_POINT ( 'NONE',  ( 0.05200000000000008782, 1.022580077288040899E-17, -0.08350000000000007416 ) ) ;
#198 = ADVANCED_FACE ( 'NONE', ( #40 ), #333, .T. ) ;
#199 = LOCAL_TIME ( 16, 46, 45.00000000000000000, #200 ) ;
#200 = COORDINATED_UNIVERSAL_TIME_OFFSET ( 8, 0, .BEHIND. ) ;
#201 = CARTESIAN_POINT ( 'NONE',  ( 9.670766684054788454E-19, 0.0000000000000000000, 0.0000000000000000000 ) ) ;
#202 = CALENDAR_DATE ( 2026, 1, 4 ) ;
#203 = FACE_BOUND ( 'NONE', #34, .T. ) ;
#204 = AXIS2_PLACEMENT_3D ( 'NONE', #385, #20, #288 ) ;
#205 = AXIS2_PLACEMENT_3D ( 'NONE', #303, #517, #298 ) ;
#206 = EDGE_CURVE ( 'NONE', #89, #644, #313, .T. ) ;
#207 = PERSON_AND_ORGANIZATION ( #146, #255 ) ;
#208 = DIRECTION ( 'NONE',  ( -1.000000000000000000, 0.0000000000000000000, -0.0000000000000000000 ) ) ;
#209 = ORIENTED_EDGE ( 'NONE', *, *, #407, .F. ) ;
#210 = CARTESIAN_POINT ( 'NONE',  ( -39.37007874015748143, 0.0000000000000000000, 0.06850000000000003308 ) ) ;
#211 = ORIENTED_EDGE ( 'NONE', *, *, #47, .T. ) ;
#212 = ORIENTED_EDGE ( 'NONE', *, *, #677, .T. ) ;
#213 = APPROVAL_ROLE ( '' ) ;
#214 = LINE ( 'NONE', #419, #691 ) ;
#215 = VERTEX_POINT ( 'NONE', #307 ) ;
#216 = ADVANCED_FACE ( 'NONE', ( #630 ), #452, .T. ) ;
#217 = CARTESIAN_POINT ( 'NONE',  ( 0.3634999999999999343, 2.603792618961250911E-16, 0.03695041722813599550 ) ) ;
#218 = ORIENTED_EDGE ( 'NONE', *, *, #320, .T. ) ;
#219 = CC_DESIGN_APPROVAL ( #100, ( #314 ) ) ;
#220 = CARTESIAN_POINT ( 'NONE',  ( 0.4559999999999999054, -0.03199999999999972311, 0.01847520861406837245 ) ) ;
#221 = EDGE_LOOP ( 'NONE', ( #459, #7, #408, #30 ) ) ;
#222 = LINE ( 'NONE', #174, #263 ) ;
#223 = CARTESIAN_POINT ( 'NONE',  ( -39.37007874015748143, 8.388830574159374005E-18, -0.06850000000000003308 ) ) ;
#224 = ORIENTED_EDGE ( 'NONE', *, *, #337, .T. ) ;
#225 = ORIENTED_EDGE ( 'NONE', *, *, #245, .F. ) ;
#226 = AXIS2_PLACEMENT_3D ( 'NONE', #14, #596, #553 ) ;
#227 = AXIS2_PLACEMENT_3D ( 'NONE', #163, #284, #551 ) ;
#228 = CC_DESIGN_DATE_AND_TIME_ASSIGNMENT ( #1, #424, ( #53 ) ) ;
#229 = LINE ( 'NONE', #217, #126 ) ;
#230 = AXIS2_PLACEMENT_3D ( 'NONE', #676, #616, #414 ) ;
#231 = ORIENTED_EDGE ( 'NONE', *, *, #3, .F. ) ;
#232 = LINE ( 'NONE', #71, #29 ) ;
#233 = DIRECTION ( 'NONE',  ( 0.0000000000000000000, -0.8660254037844397068, -0.4999999999999979461 ) ) ;
#234 = ORIENTED_EDGE ( 'NONE', *, *, #685, .F. ) ;
#235 = DIRECTION ( 'NONE',  ( 0.0000000000000000000, 0.0000000000000000000, -1.000000000000000000 ) ) ;
#236 = CARTESIAN_POINT ( 'NONE',  ( 0.0000000000000000000, 0.0000000000000000000, 0.0000000000000000000 ) ) ;
#237 = EDGE_LOOP ( 'NONE', ( #328, #363 ) ) ;
#238 = DIRECTION ( 'NONE',  ( 0.0000000000000000000, 0.0000000000000000000, 1.000000000000000000 ) ) ;
#239 = EDGE_CURVE ( 'NONE', #606, #524, #364, .T. ) ;
#240 = LINE ( 'NONE', #179, #558 ) ;
#241 = AXIS2_PLACEMENT_3D ( 'NONE', #458, #618, #506 ) ;
#242 = ORIENTED_EDGE ( 'NONE', *, *, #239, .T. ) ;
#243 = CARTESIAN_POINT ( 'NONE',  ( 0.3634999999999999343, -0.03199999999999999373, 0.01847520861406792489 ) ) ;
#244 = AXIS2_PLACEMENT_3D ( 'NONE', #197, #142, #573 ) ;
#245 = EDGE_CURVE ( 'NONE', #536, #413, #275, .T. ) ;
#246 = LINE ( 'NONE', #401, #6 ) ;
#247 = EDGE_LOOP ( 'NONE', ( #693, #190, #193, #281 ) ) ;
#248 = CARTESIAN_POINT ( 'NONE',  ( 0.01700000000000367190, 1.423651904008798341E-17, -0.1162500000000000200 ) ) ;
#249 = ORIENTED_EDGE ( 'NONE', *, *, #11, .T. ) ;
#250 = LINE ( 'NONE', #358, #390 ) ;
#251 = AXIS2_PLACEMENT_3D ( 'NONE', #165, #160, #340 ) ;
#252 =( CONVERSION_BASED_UNIT ( 'INCH', #185 ) LENGTH_UNIT ( ) NAMED_UNIT ( #682 ) );
#253 = EDGE_CURVE ( 'NONE', #86, #615, #33, .T. ) ;
#254 = DIRECTION ( 'NONE',  ( 0.0000000000000000000, 0.0000000000000000000, -1.000000000000000000 ) ) ;
#255 = ORGANIZATION ( 'UNSPECIFIED', 'UNSPECIFIED', '' ) ;
#256 = CARTESIAN_POINT ( 'NONE',  ( 0.4559999999999997389, 5.214109598602770437E-18, -0.04257643593428764306 ) ) ;
#257 = APPROVAL_STATUS ( 'not_yet_approved' ) ;
#258 = CARTESIAN_POINT ( 'NONE',  ( 0.03700000000000007450, 0.1162500000000000200, 0.0000000000000000000 ) ) ;
#259 = EDGE_CURVE ( 'NONE', #114, #285, #336, .T. ) ;
#260 = PERSON_AND_ORGANIZATION_ROLE ( 'creator' ) ;
#261 = VECTOR ( 'NONE', #383, 39.37007874015748143 ) ;
#262 = DIRECTION ( 'NONE',  ( 0.0000000000000000000, 0.0000000000000000000, -1.000000000000000000 ) ) ;
#263 = VECTOR ( 'NONE', #282, 39.37007874015748143 ) ;
#264 = ORIENTED_EDGE ( 'NONE', *, *, #432, .F. ) ;
#265 = AXIS2_PLACEMENT_3D ( 'NONE', #550, #557, #278 ) ;
#266 = AXIS2_PLACEMENT_3D ( 'NONE', #565, #523, #75 ) ;
#267 = VECTOR ( 'NONE', #510, 39.37007874015747433 ) ;
#268 = DIRECTION ( 'NONE',  ( 1.000000000000000000, 0.0000000000000000000, 0.0000000000000000000 ) ) ;
#269 = DIRECTION ( 'NONE',  ( -0.7986355100472655177, 7.370108417819903315E-17, -0.6018150231520843496 ) ) ;
#270 = EDGE_LOOP ( 'NONE', ( #212, #306 ) ) ;
#271 = DATE_AND_TIME ( #54, #580 ) ;
#272 = DIRECTION ( 'NONE',  ( 0.0000000000000000000, 0.0000000000000000000, 1.000000000000000000 ) ) ;
#273 = DIRECTION ( 'NONE',  ( 0.0000000000000000000, 1.000000000000000000, 0.0000000000000000000 ) ) ;
#274 = VERTEX_POINT ( 'NONE', #248 ) ;
#275 = CIRCLE ( 'NONE', #205, 0.04257643593428764306 ) ;
#276 = DIRECTION ( 'NONE',  ( 0.0000000000000000000, -0.4999999999999980016, 0.8660254037844398178 ) ) ;
#277 = ORIENTED_EDGE ( 'NONE', *, *, #239, .F. ) ;
#278 = DIRECTION ( 'NONE',  ( 0.0000000000000000000, 0.0000000000000000000, 1.000000000000000000 ) ) ;
#279 = ADVANCED_BREP_SHAPE_REPRESENTATION ( 'HL10-4-2', ( #628, #487 ), #378 ) ;
#280 = CYLINDRICAL_SURFACE ( 'NONE', #183, 0.06612500000000000322 ) ;
#281 = ORIENTED_EDGE ( 'NONE', *, *, #175, .T. ) ;
#282 = DIRECTION ( 'NONE',  ( 0.0000000000000000000, 0.0000000000000000000, 1.000000000000000000 ) ) ;
#283 = CC_DESIGN_PERSON_AND_ORGANIZATION_ASSIGNMENT ( #589, #92, ( #73 ) ) ;
#284 = DIRECTION ( 'NONE',  ( -1.000000000000000000, -0.0000000000000000000, -0.0000000000000000000 ) ) ;
#285 = VERTEX_POINT ( 'NONE', #31 ) ;
#286 = LINE ( 'NONE', #667, #261 ) ;
#287 = AXIS2_PLACEMENT_3D ( 'NONE', #127, #28, #355 ) ;
#288 = DIRECTION ( 'NONE',  ( 0.0000000000000000000, -0.0000000000000000000, -1.000000000000000000 ) ) ;
#289 = ORIENTED_EDGE ( 'NONE', *, *, #384, .T. ) ;
#290 = CYLINDRICAL_SURFACE ( 'NONE', #251, 0.1162500000000000200 ) ;
#291 = CARTESIAN_POINT ( 'NONE',  ( 0.05200000000000042782, 8.388830574159375546E-18, -0.06850000000000004696 ) ) ;
#292 = EDGE_CURVE ( 'NONE', #154, #274, #145, .T. ) ;
#293 = ORIENTED_EDGE ( 'NONE', *, *, #668, .F. ) ;
#294 = PLANE ( 'NONE',  #388 ) ;
#295 = DIRECTION ( 'NONE',  ( 0.0000000000000000000, 0.0000000000000000000, 1.000000000000000000 ) ) ;
#296 = CIRCLE ( 'NONE', #511, 0.06612500000000000322 ) ;
#297 = ORIENTED_EDGE ( 'NONE', *, *, #656, .F. ) ;
#298 = DIRECTION ( 'NONE',  ( 0.0000000000000000000, 0.0000000000000000000, 1.000000000000000000 ) ) ;
#299 = CIRCLE ( 'NONE', #688, 0.01500000000000002720 ) ;
#300 = DIRECTION ( 'NONE',  ( 0.0000000000000000000, 0.0000000000000000000, 1.000000000000000000 ) ) ;
#301 = AXIS2_PLACEMENT_3D ( 'NONE', #430, #650, #158 ) ;
#302 = VERTEX_POINT ( 'NONE', #460 ) ;
#303 = CARTESIAN_POINT ( 'NONE',  ( 0.4559999999999997389, 0.0000000000000000000, 0.0000000000000000000 ) ) ;
#304 = VECTOR ( 'NONE', #316, 39.37007874015748143 ) ;
#305 = DIRECTION ( 'NONE',  ( 1.000000000000000000, 0.0000000000000000000, 0.0000000000000000000 ) ) ;
#306 = ORIENTED_EDGE ( 'NONE', *, *, #407, .T. ) ;
#307 = CARTESIAN_POINT ( 'NONE',  ( 0.4559999999999999054, -4.268512490100411279E-18, -0.03695041722813599550 ) ) ;
#308 = EDGE_CURVE ( 'NONE', #382, #480, #600, .T. ) ;
#309 = CARTESIAN_POINT ( 'NONE',  ( 0.03700000000000181616, 1.423651904008798341E-17, -0.1162500000000000200 ) ) ;
#310 = ORIENTED_EDGE ( 'NONE', *, *, #3, .T. ) ;
#311 = DIRECTION ( 'NONE',  ( 0.0000000000000000000, -0.5000000000000101030, -0.8660254037844329345 ) ) ;
#312 = APPLICATION_CONTEXT ( 'configuration controlled 3d designs of mechanical parts and assemblies' ) ;
#313 = LINE ( 'NONE', #35, #639 ) ;
#314 = PRODUCT_DEFINITION_FORMATION_WITH_SPECIFIED_SOURCE ( 'ANY', '', #73, .NOT_KNOWN. ) ;
#315 = PERSON_AND_ORGANIZATION ( #146, #255 ) ;
#316 = DIRECTION ( 'NONE',  ( -1.000000000000000000, -0.0000000000000000000, -0.0000000000000000000 ) ) ;
#317 = EDGE_CURVE ( 'NONE', #606, #644, #687, .T. ) ;
#318 = DIRECTION ( 'NONE',  ( -0.7986355100472655177, 0.0000000000000000000, 0.6018150231520843496 ) ) ;
#319 = CC_DESIGN_DATE_AND_TIME_ASSIGNMENT ( #147, #469, ( #505 ) ) ;
#320 = EDGE_CURVE ( 'NONE', #694, #484, #46, .T. ) ;
#321 = CARTESIAN_POINT ( 'NONE',  ( 0.3634999999999999343, 2.603792618961250911E-16, 0.03695041722813599550 ) ) ;
#322 = CIRCLE ( 'NONE', #166, 0.06850000000000004696 ) ;
#323 = AXIS2_PLACEMENT_3D ( 'NONE', #594, #58, #548 ) ;
#324 = PERSON_AND_ORGANIZATION ( #146, #255 ) ;
#325 = CARTESIAN_POINT ( 'NONE',  ( -39.37007874015748143, 0.0000000000000000000, 0.0000000000000000000 ) ) ;
#326 = ADVANCED_FACE ( 'NONE', ( #153, #203 ), #416, .F. ) ;
#327 = DIRECTION ( 'NONE',  ( 0.0000000000000000000, 0.0000000000000000000, 1.000000000000000000 ) ) ;
#328 = ORIENTED_EDGE ( 'NONE', *, *, #577, .T. ) ;
#329 = DIRECTION ( 'NONE',  ( 1.000000000000000000, 0.0000000000000000000, 0.0000000000000000000 ) ) ;
#330 = ORIENTED_EDGE ( 'NONE', *, *, #36, .T. ) ;
#331 = FACE_OUTER_BOUND ( 'NONE', #479, .T. ) ;
#332 = VECTOR ( 'NONE', #670, 39.37007874015747433 ) ;
#333 = CONICAL_SURFACE ( 'NONE', #582, 0.04257643593428764306, 0.6457718232379472401 ) ;
#334 = CARTESIAN_POINT ( 'NONE',  ( 0.4559999999999997389, 6.656043278982322038E-18, -0.04257643593428764306 ) ) ;
#335 = ORIENTED_EDGE ( 'NONE', *, *, #206, .T. ) ;
#336 = LINE ( 'NONE', #129, #267 ) ;
#337 = EDGE_CURVE ( 'NONE', #475, #89, #214, .T. ) ;
#338 = CARTESIAN_POINT ( 'NONE',  ( 0.4559999999999999054, -0.03199999999999999373, -0.01847520861406791101 ) ) ;
#339 = ORIENTED_EDGE ( 'NONE', *, *, #604, .F. ) ;
#340 = DIRECTION ( 'NONE',  ( 0.0000000000000000000, 0.0000000000000000000, 1.000000000000000000 ) ) ;
#341 = CARTESIAN_POINT ( 'NONE',  ( 0.3634999999999999343, 0.03199999999999985495, -0.01847520861406815040 ) ) ;
#342 = ORIENTED_EDGE ( 'NONE', *, *, #554, .T. ) ;
#343 = DIRECTION ( 'NONE',  ( 0.0000000000000000000, 0.8660254037844431485, 0.4999999999999918954 ) ) ;
#344 = LOCAL_TIME ( 16, 46, 45.00000000000000000, #373 ) ;
#345 = PLANE ( 'NONE',  #625 ) ;
#346 = ORIENTED_EDGE ( 'NONE', *, *, #371, .F. ) ;
#347 = ORIENTED_EDGE ( 'NONE', *, *, #162, .F. ) ;
#348 = DIRECTION ( 'NONE',  ( 1.000000000000000000, 0.0000000000000000000, 0.0000000000000000000 ) ) ;
#349 = EDGE_CURVE ( 'NONE', #86, #154, #590, .T. ) ;
#350 = VERTEX_POINT ( 'NONE', #321 ) ;
#351 = DIRECTION ( 'NONE',  ( 1.000000000000000000, 0.0000000000000000000, 0.0000000000000000000 ) ) ;
#352 =( NAMED_UNIT ( * ) SI_UNIT ( $, .STERADIAN. ) SOLID_ANGLE_UNIT ( ) );
#353 = ORIENTED_EDGE ( 'NONE', *, *, #349, .F. ) ;
#354 = CARTESIAN_POINT ( 'NONE',  ( 0.4559999999999997389, 0.0000000000000000000, 0.0000000000000000000 ) ) ;
#355 = DIRECTION ( 'NONE',  ( 0.0000000000000000000, 0.0000000000000000000, 1.000000000000000000 ) ) ;
#356 = AXIS2_PLACEMENT_3D ( 'NONE', #201, #585, #262 ) ;
#357 = ORIENTED_EDGE ( 'NONE', *, *, #308, .T. ) ;
#358 = CARTESIAN_POINT ( 'NONE',  ( 0.3634999999999999343, 0.03199999999999999373, -0.01847520861406792489 ) ) ;
#359 = AXIS2_PLACEMENT_3D ( 'NONE', #191, #93, #43 ) ;
#360 = CC_DESIGN_PERSON_AND_ORGANIZATION_ASSIGNMENT ( #45, #477, ( #53 ) ) ;
#361 = UNCERTAINTY_MEASURE_WITH_UNIT (LENGTH_MEASURE( 1.000000000000000082E-05 ), #252, 'distance_accuracy_value', 'NONE');
#362 = DIRECTION ( 'NONE',  ( 1.000000000000000000, 0.0000000000000000000, 0.0000000000000000000 ) ) ;
#363 = ORIENTED_EDGE ( 'NONE', *, *, #619, .T. ) ;
#364 = LINE ( 'NONE', #79, #103 ) ;
#365 = DIRECTION ( 'NONE',  ( -1.000000000000000000, -0.0000000000000000000, -0.0000000000000000000 ) ) ;
#366 = ADVANCED_FACE ( 'NONE', ( #583 ), #52, .T. ) ;
#367 = CALENDAR_DATE ( 2026, 1, 4 ) ;
#368 = LINE ( 'NONE', #98, #420 ) ;
#369 = CONICAL_SURFACE ( 'NONE', #636, 0.1162500000000000200, 0.7853981633973418086 ) ;
#370 = APPROVAL_DATE_TIME ( #42, #151 ) ;
#371 = EDGE_CURVE ( 'NONE', #413, #536, #19, .T. ) ;
#372 = CARTESIAN_POINT ( 'NONE',  ( -39.37007874015748143, 0.0000000000000000000, 0.06612500000000000322 ) ) ;
#373 = COORDINATED_UNIVERSAL_TIME_OFFSET ( 8, 0, .BEHIND. ) ;
#374 = CARTESIAN_POINT ( 'NONE',  ( 0.4559999999999997389, 0.0000000000000000000, 0.04257643593428764306 ) ) ;
#375 = ORIENTED_EDGE ( 'NONE', *, *, #539, .F. ) ;
#376 = APPROVAL_ROLE ( '' ) ;
#377 = DIRECTION ( 'NONE',  ( -1.000000000000000000, 0.0000000000000000000, -0.0000000000000000000 ) ) ;
#378 =( GEOMETRIC_REPRESENTATION_CONTEXT ( 3 ) GLOBAL_UNCERTAINTY_ASSIGNED_CONTEXT ( ( #361 ) ) GLOBAL_UNIT_ASSIGNED_CONTEXT ( ( #252, #403, #352 ) ) REPRESENTATION_CONTEXT ( 'NONE', 'WORKASPACE' ) );
#379 = CC_DESIGN_PERSON_AND_ORGANIZATION_ASSIGNMENT ( #686, #638, ( #314 ) ) ;
#380 = DIRECTION ( 'NONE',  ( -1.000000000000000000, -0.0000000000000000000, -0.0000000000000000000 ) ) ;
#381 = CARTESIAN_POINT ( 'NONE',  ( 0.1619999999999999496, 0.06850000000000000533, 0.0000000000000000000 ) ) ;
#382 = VERTEX_POINT ( 'NONE', #684 ) ;
#383 = DIRECTION ( 'NONE',  ( 0.7071067811866228459, 8.659560562354010877E-17, 0.7071067811864721886 ) ) ;
#384 = EDGE_CURVE ( 'NONE', #536, #382, #148, .T. ) ;
#385 = CARTESIAN_POINT ( 'NONE',  ( 0.3634999999999999343, 0.03199999999999999373, 0.01847520861406791101 ) ) ;
#386 = VERTEX_POINT ( 'NONE', #696 ) ;
#387 = ORIENTED_EDGE ( 'NONE', *, *, #337, .F. ) ;
#388 = AXIS2_PLACEMENT_3D ( 'NONE', #508, #495, #17 ) ;
#389 = AXIS2_PLACEMENT_3D ( 'NONE', #635, #380, #478 ) ;
#390 = VECTOR ( 'NONE', #576, 39.37007874015748143 ) ;
#391 = CARTESIAN_POINT ( 'NONE',  ( -39.37007874015748143, 0.0000000000000000000, 0.0000000000000000000 ) ) ;
#392 = ORIENTED_EDGE ( 'NONE', *, *, #253, .T. ) ;
#393 = LINE ( 'NONE', #490, #463 ) ;
#394 = DIRECTION ( 'NONE',  ( -1.000000000000000000, -0.0000000000000000000, -0.0000000000000000000 ) ) ;
#395 = ORIENTED_EDGE ( 'NONE', *, *, #11, .F. ) ;
#396 = FACE_OUTER_BOUND ( 'NONE', #23, .T. ) ;
#397 = LINE ( 'NONE', #119, #546 ) ;
#398 = ORIENTED_EDGE ( 'NONE', *, *, #206, .F. ) ;
#399 = DIRECTION ( 'NONE',  ( -1.000000000000000000, -0.0000000000000000000, -0.0000000000000000000 ) ) ;
#400 = APPROVAL_PERSON_ORGANIZATION ( #315, #100, #376 ) ;
#401 = CARTESIAN_POINT ( 'NONE',  ( 0.3634999999999999343, 0.03199999999999985495, -0.01847520861406815040 ) ) ;
#402 = DIRECTION ( 'NONE',  ( 0.0000000000000000000, 0.0000000000000000000, 1.000000000000000000 ) ) ;
#403 =( NAMED_UNIT ( * ) PLANE_ANGLE_UNIT ( ) SI_UNIT ( $, .RADIAN. ) );
#404 = VERTEX_POINT ( 'NONE', #538 ) ;
#405 = CARTESIAN_POINT ( 'NONE',  ( 0.4247500000000026255, 0.0000000000000000000, 0.0000000000000000000 ) ) ;
#406 = CARTESIAN_POINT ( 'NONE',  ( 0.0000000000000000000, 0.0000000000000000000, -0.09924999999999997713 ) ) ;
#407 = EDGE_CURVE ( 'NONE', #22, #599, #672, .T. ) ;
#408 = ORIENTED_EDGE ( 'NONE', *, *, #449, .T. ) ;
#409 = DIRECTION ( 'NONE',  ( 0.0000000000000000000, 0.8660254037844431485, 0.4999999999999918954 ) ) ;
#410 = VECTOR ( 'NONE', #497, 39.37007874015748143 ) ;
#411 = ORIENTED_EDGE ( 'NONE', *, *, #292, .T. ) ;
#412 = DIRECTION ( 'NONE',  ( 0.0000000000000000000, 0.0000000000000000000, -1.000000000000000000 ) ) ;
#413 = VERTEX_POINT ( 'NONE', #374 ) ;
#414 = DIRECTION ( 'NONE',  ( 0.0000000000000000000, 0.0000000000000000000, 1.000000000000000000 ) ) ;
#415 = ADVANCED_FACE ( 'NONE', ( #105, #425 ), #646, .F. ) ;
#416 = PLANE ( 'NONE',  #547 ) ;
#417 = EDGE_CURVE ( 'NONE', #480, #423, #692, .T. ) ;
#418 = APPROVAL_STATUS ( 'not_yet_approved' ) ;
#419 = CARTESIAN_POINT ( 'NONE',  ( 0.4559999999999999054, -0.03199999999999972311, 0.01847520861406837245 ) ) ;
#420 = VECTOR ( 'NONE', #318, 39.37007874015748854 ) ;
#421 = AXIS2_PLACEMENT_3D ( 'NONE', #525, #182, #402 ) ;
#422 = DIRECTION ( 'NONE',  ( -1.000000000000000000, -0.0000000000000000000, -0.0000000000000000000 ) ) ;
#423 = VERTEX_POINT ( 'NONE', #55 ) ;
#424 = DATE_TIME_ROLE ( 'creation_date' ) ;
#425 = FACE_BOUND ( 'NONE', #237, .T. ) ;
#426 = EDGE_CURVE ( 'NONE', #302, #215, #104, .T. ) ;
#427 = SHAPE_DEFINITION_REPRESENTATION ( #493, #279 ) ;
#428 = CARTESIAN_POINT ( 'NONE',  ( 0.3634999999999999343, 0.03199999999999999373, 0.01847520861406791101 ) ) ;
#429 = LOCAL_TIME ( 16, 46, 45.00000000000000000, #584 ) ;
#430 = CARTESIAN_POINT ( 'NONE',  ( 0.03700000000000181616, 0.0000000000000000000, 0.0000000000000000000 ) ) ;
#431 = ORIENTED_EDGE ( 'NONE', *, *, #619, .F. ) ;
#432 = EDGE_CURVE ( 'NONE', #615, #86, #82, .T. ) ;
#433 = DIRECTION ( 'NONE',  ( -1.000000000000000000, -0.0000000000000000000, -0.0000000000000000000 ) ) ;
#434 = ORIENTED_EDGE ( 'NONE', *, *, #74, .F. ) ;
#435 = DIRECTION ( 'NONE',  ( 0.7071067811866228459, 0.0000000000000000000, -0.7071067811864721886 ) ) ;
#436 = ADVANCED_FACE ( 'NONE', ( #540 ), #467, .F. ) ;
#437 = CARTESIAN_POINT ( 'NONE',  ( -39.37007874015748143, 0.0000000000000000000, 0.0000000000000000000 ) ) ;
#438 = ORIENTED_EDGE ( 'NONE', *, *, #253, .F. ) ;
#439 = ORIENTED_EDGE ( 'NONE', *, *, #586, .T. ) ;
#440 = VECTOR ( 'NONE', #653, 39.37007874015748143 ) ;
#441 = AXIS2_PLACEMENT_3D ( 'NONE', #140, #311, #564 ) ;
#442 = FACE_BOUND ( 'NONE', #181, .T. ) ;
#443 = ORIENTED_EDGE ( 'NONE', *, *, #543, .F. ) ;
#444 = LINE ( 'NONE', #68, #569 ) ;
#445 = LOCAL_TIME ( 16, 46, 45.00000000000000000, #531 ) ;
#446 = DIRECTION ( 'NONE',  ( 0.0000000000000000000, 0.0000000000000000000, 1.000000000000000000 ) ) ;
#447 = ORIENTED_EDGE ( 'NONE', *, *, #476, .T. ) ;
#448 = DIRECTION ( 'NONE',  ( 0.0000000000000000000, 0.0000000000000000000, 1.000000000000000000 ) ) ;
#449 = EDGE_CURVE ( 'NONE', #413, #480, #368, .T. ) ;
#450 = FACE_OUTER_BOUND ( 'NONE', #645, .T. ) ;
#451 = ORIENTED_EDGE ( 'NONE', *, *, #527, .F. ) ;
#452 = PLANE ( 'NONE',  #441 ) ;
#453 = AXIS2_PLACEMENT_3D ( 'NONE', #381, #542, #608 ) ;
#454 = AXIS2_PLACEMENT_3D ( 'NONE', #545, #61, #409 ) ;
#455 = ORIENTED_EDGE ( 'NONE', *, *, #292, .F. ) ;
#456 = CARTESIAN_POINT ( 'NONE',  ( 0.01700000000000367190, 0.0000000000000000000, 0.0000000000000000000 ) ) ;
#457 = ADVANCED_FACE ( 'NONE', ( #532 ), #49, .T. ) ;
#458 = CARTESIAN_POINT ( 'NONE',  ( 0.1619999999999989782, 0.0000000000000000000, 0.0000000000000000000 ) ) ;
#459 = ORIENTED_EDGE ( 'NONE', *, *, #384, .F. ) ;
#460 = CARTESIAN_POINT ( 'NONE',  ( 0.4559999999999999054, 0.03199999999999985495, -0.01847520861406815040 ) ) ;
#461 = ORIENTED_EDGE ( 'NONE', *, *, #349, .T. ) ;
#462 = DIRECTION ( 'NONE',  ( 1.000000000000000000, 0.0000000000000000000, 0.0000000000000000000 ) ) ;
#463 = VECTOR ( 'NONE', #603, 39.37007874015748143 ) ;
#464 = AXIS2_PLACEMENT_3D ( 'NONE', #437, #12, #446 ) ;
#465 = FACE_OUTER_BOUND ( 'NONE', #60, .T. ) ;
#466 = ADVANCED_FACE ( 'NONE', ( #488 ), #172, .T. ) ;
#467 = PLANE ( 'NONE',  #356 ) ;
#468 = ADVANCED_FACE ( 'NONE', ( #107 ), #492, .T. ) ;
#469 = DATE_TIME_ROLE ( 'classification_date' ) ;
#470 = DIRECTION ( 'NONE',  ( 1.000000000000000000, 0.0000000000000000000, 0.0000000000000000000 ) ) ;
#471 = PERSON_AND_ORGANIZATION ( #146, #255 ) ;
#472 = DIRECTION ( 'NONE',  ( -1.000000000000000000, -0.0000000000000000000, -0.0000000000000000000 ) ) ;
#473 = AXIS2_PLACEMENT_3D ( 'NONE', #143, #593, #327 ) ;
#474 = CONICAL_SURFACE ( 'NONE', #359, 0.04257643593428764306, 0.6457718232379472401 ) ;
#475 = VERTEX_POINT ( 'NONE', #220 ) ;
#476 = EDGE_CURVE ( 'NONE', #615, #274, #502, .T. ) ;
#477 = PERSON_AND_ORGANIZATION_ROLE ( 'creator' ) ;
#478 = DIRECTION ( 'NONE',  ( 0.0000000000000000000, 0.0000000000000000000, 1.000000000000000000 ) ) ;
#479 = EDGE_LOOP ( 'NONE', ( #387, #38, #171, #342 ) ) ;
#480 = VERTEX_POINT ( 'NONE', #601 ) ;
#481 = PERSON_AND_ORGANIZATION ( #146, #255 ) ;
#482 = DIRECTION ( 'NONE',  ( 0.0000000000000000000, -0.8660254037844397068, -0.4999999999999979461 ) ) ;
#483 = DIRECTION ( 'NONE',  ( 0.0000000000000000000, -0.0000000000000000000, 1.000000000000000000 ) ) ;
#484 = VERTEX_POINT ( 'NONE', #5 ) ;
#485 = VECTOR ( 'NONE', #15, 39.37007874015748143 ) ;
#486 = ADVANCED_FACE ( 'NONE', ( #662 ), #280, .T. ) ;
#487 = AXIS2_PLACEMENT_3D ( 'NONE', #48, #102, #268 ) ;
#488 = FACE_OUTER_BOUND ( 'NONE', #598, .T. ) ;
#489 = ORIENTED_EDGE ( 'NONE', *, *, #317, .T. ) ;
#490 = CARTESIAN_POINT ( 'NONE',  ( 0.3634999999999999343, 5.250270362823506089E-16, 0.03695041722813598856 ) ) ;
#491 = CC_DESIGN_SECURITY_CLASSIFICATION ( #505, ( #314 ) ) ;
#492 = CYLINDRICAL_SURFACE ( 'NONE', #50, 0.06612500000000000322 ) ;
#493 = PRODUCT_DEFINITION_SHAPE ( 'NONE', 'NONE',  #53 ) ;
#494 = EDGE_LOOP ( 'NONE', ( #439, #186, #164, #128 ) ) ;
#495 = DIRECTION ( 'NONE',  ( -0.0000000000000000000, 0.5000000000000041078, 0.8660254037844362651 ) ) ;
#496 = CIRCLE ( 'NONE', #130, 0.06850000000000004696 ) ;
#497 = DIRECTION ( 'NONE',  ( -1.000000000000000000, -0.0000000000000000000, -0.0000000000000000000 ) ) ;
#498 = ORIENTED_EDGE ( 'NONE', *, *, #371, .T. ) ;
#499 = DIRECTION ( 'NONE',  ( 0.0000000000000000000, 0.0000000000000000000, 1.000000000000000000 ) ) ;
#500 = VECTOR ( 'NONE', #362, 39.37007874015748143 ) ;
#501 = ADVANCED_FACE ( 'NONE', ( #111 ), #116, .T. ) ;
#502 = LINE ( 'NONE', #168, #440 ) ;
#503 = ORIENTED_EDGE ( 'NONE', *, *, #95, .F. ) ;
#504 = DIRECTION ( 'NONE',  ( 0.0000000000000000000, -1.000000000000000000, 0.0000000000000000000 ) ) ;
#505 = SECURITY_CLASSIFICATION ( '', '', #695 ) ;
#506 = DIRECTION ( 'NONE',  ( 0.0000000000000000000, 0.0000000000000000000, 1.000000000000000000 ) ) ;
#507 = EDGE_LOOP ( 'NONE', ( #503, #25, #330, #310 ) ) ;
#508 = CARTESIAN_POINT ( 'NONE',  ( 0.3634999999999999343, -2.667820306312756818E-16, -0.03695041722813599550 ) ) ;
#509 = VERTEX_POINT ( 'NONE', #338 ) ;
#510 = DIRECTION ( 'NONE',  ( 0.0000000000000000000, -0.8660254037844363761, 0.5000000000000041078 ) ) ;
#511 = AXIS2_PLACEMENT_3D ( 'NONE', #655, #659, #448 ) ;
#512 = EDGE_CURVE ( 'NONE', #382, #386, #397, .T. ) ;
#513 = CIRCLE ( 'NONE', #591, 0.09924999999999997713 ) ;
#514 = CIRCLE ( 'NONE', #244, 0.01500000000000002720 ) ;
#515 =( LENGTH_UNIT ( ) NAMED_UNIT ( * ) SI_UNIT ( $, .METRE. ) );
#516 = ORIENTED_EDGE ( 'NONE', *, *, #637, .F. ) ;
#517 = DIRECTION ( 'NONE',  ( -1.000000000000000000, -0.0000000000000000000, -0.0000000000000000000 ) ) ;
#518 = LINE ( 'NONE', #88, #332 ) ;
#519 = APPROVAL_PERSON_ORGANIZATION ( #471, #642, #213 ) ;
#520 = EDGE_LOOP ( 'NONE', ( #347, #651, #78, #4 ) ) ;
#521 = FACE_OUTER_BOUND ( 'NONE', #16, .T. ) ;
#522 = DESIGN_CONTEXT ( 'detailed design', #669, 'design' ) ;
#523 = DIRECTION ( 'NONE',  ( -1.000000000000000000, -0.0000000000000000000, -0.0000000000000000000 ) ) ;
#524 = VERTEX_POINT ( 'NONE', #341 ) ;
#525 = CARTESIAN_POINT ( 'NONE',  ( 0.03700000000000181616, 0.0000000000000000000, 0.0000000000000000000 ) ) ;
#526 = CIRCLE ( 'NONE', #301, 0.08350000000000007416 ) ;
#527 = EDGE_CURVE ( 'NONE', #109, #694, #155, .T. ) ;
#528 = DIRECTION ( 'NONE',  ( 0.0000000000000000000, 0.8660254037844328234, -0.5000000000000101030 ) ) ;
#529 = PERSON_AND_ORGANIZATION_ROLE ( 'classification_officer' ) ;
#530 = DIRECTION ( 'NONE',  ( 0.0000000000000000000, 0.0000000000000000000, 1.000000000000000000 ) ) ;
#531 = COORDINATED_UNIVERSAL_TIME_OFFSET ( 8, 0, .BEHIND. ) ;
#532 = FACE_OUTER_BOUND ( 'NONE', #666, .T. ) ;
#533 = ORIENTED_EDGE ( 'NONE', *, *, #637, .T. ) ;
#534 = DIRECTION ( 'NONE',  ( 0.0000000000000000000, 0.0000000000000000000, 1.000000000000000000 ) ) ;
#535 = TOROIDAL_SURFACE ( 'NONE', #112, 0.08350000000000007416, 0.01500000000000002720 ) ;
#536 = VERTEX_POINT ( 'NONE', #334 ) ;
#537 = APPROVAL_STATUS ( 'not_yet_approved' ) ;
#538 = CARTESIAN_POINT ( 'NONE',  ( 0.03700000000000094186, 1.022580077288040899E-17, -0.08350000000000007416 ) ) ;
#539 = EDGE_CURVE ( 'NONE', #109, #623, #69, .T. ) ;
#540 = FACE_OUTER_BOUND ( 'NONE', #270, .T. ) ;
#541 = ORIENTED_EDGE ( 'NONE', *, *, #426, .F. ) ;
#542 = DIRECTION ( 'NONE',  ( -1.000000000000000000, 0.0000000000000000000, -0.0000000000000000000 ) ) ;
#543 = EDGE_CURVE ( 'NONE', #644, #302, #605, .T. ) ;
#544 = ORIENTED_EDGE ( 'NONE', *, *, #317, .F. ) ;
#545 = CARTESIAN_POINT ( 'NONE',  ( 0.3634999999999999343, -0.03199999999999972311, 0.01847520861406837245 ) ) ;
#546 = VECTOR ( 'NONE', #433, 39.37007874015748143 ) ;
#547 = AXIS2_PLACEMENT_3D ( 'NONE', #2, #208, #588 ) ;
#548 = DIRECTION ( 'NONE',  ( 0.0000000000000000000, 0.0000000000000000000, 1.000000000000000000 ) ) ;
#549 = ORIENTED_EDGE ( 'NONE', *, *, #512, .T. ) ;
#550 = CARTESIAN_POINT ( 'NONE',  ( -39.37007874015748143, 0.0000000000000000000, 0.0000000000000000000 ) ) ;
#551 = DIRECTION ( 'NONE',  ( 0.0000000000000000000, 0.0000000000000000000, 1.000000000000000000 ) ) ;
#552 = EDGE_LOOP ( 'NONE', ( #375, #57, #218, #434 ) ) ;
#553 = DIRECTION ( 'NONE',  ( 0.0000000000000000000, 0.0000000000000000000, 1.000000000000000000 ) ) ;
#554 = EDGE_CURVE ( 'NONE', #350, #89, #229, .T. ) ;
#555 = PLANE ( 'NONE',  #453 ) ;
#556 = EDGE_LOOP ( 'NONE', ( #438, #264 ) ) ;
#557 = DIRECTION ( 'NONE',  ( -1.000000000000000000, -0.0000000000000000000, -0.0000000000000000000 ) ) ;
#558 = VECTOR ( 'NONE', #300, 39.37007874015748143 ) ;
#559 = LINE ( 'NONE', #188, #500 ) ;
#560 = ORIENTED_EDGE ( 'NONE', *, *, #656, .T. ) ;
#561 = CARTESIAN_POINT ( 'NONE',  ( 0.4559999999999999054, 5.250270362823506089E-16, 0.03695041722813598856 ) ) ;
#562 = CARTESIAN_POINT ( 'NONE',  ( 0.1619999999999989782, 0.0000000000000000000, 0.06850000000000000533 ) ) ;
#563 = ADVANCED_FACE ( 'NONE', ( #176, #442 ), #555, .F. ) ;
#564 = DIRECTION ( 'NONE',  ( 0.0000000000000000000, 0.8660254037844328234, -0.5000000000000099920 ) ) ;
#565 = CARTESIAN_POINT ( 'NONE',  ( 0.03700000000000181616, 0.0000000000000000000, 0.0000000000000000000 ) ) ;
#566 = ORIENTED_EDGE ( 'NONE', *, *, #554, .F. ) ;
#567 = FACE_OUTER_BOUND ( 'NONE', #520, .T. ) ;
#568 = ADVANCED_FACE ( 'NONE', ( #123 ), #345, .T. ) ;
#569 = VECTOR ( 'NONE', #343, 39.37007874015748854 ) ;
#570 = CONICAL_SURFACE ( 'NONE', #626, 0.1162500000000000200, 0.7853981633973418086 ) ;
#571 = CARTESIAN_POINT ( 'NONE',  ( 0.3634999999999999343, 0.03200000000000012557, 0.01847520861406769591 ) ) ;
#572 = ORIENTED_EDGE ( 'NONE', *, *, #668, .T. ) ;
#573 = DIRECTION ( 'NONE',  ( 0.0000000000000000000, -1.224646799147353454E-16, 1.000000000000000000 ) ) ;
#574 = CARTESIAN_POINT ( 'NONE',  ( 0.3634999999999999343, 0.0000000000000000000, 0.0000000000000000000 ) ) ;
#575 = ORIENTED_EDGE ( 'NONE', *, *, #449, .F. ) ;
#576 = DIRECTION ( 'NONE',  ( 1.000000000000000000, 0.0000000000000000000, 0.0000000000000000000 ) ) ;
#577 = EDGE_CURVE ( 'NONE', #159, #404, #526, .T. ) ;
#578 = APPLICATION_PROTOCOL_DEFINITION ( 'international standard', 'config_control_design', 1994, #669 ) ;
#579 = DIRECTION ( 'NONE',  ( 0.0000000000000000000, 0.0000000000000000000, 1.000000000000000000 ) ) ;
#580 = LOCAL_TIME ( 16, 46, 45.00000000000000000, #97 ) ;
#581 = CALENDAR_DATE ( 2026, 1, 4 ) ;
#582 = AXIS2_PLACEMENT_3D ( 'NONE', #354, #365, #579 ) ;
#583 = FACE_OUTER_BOUND ( 'NONE', #494, .T. ) ;
#584 = COORDINATED_UNIVERSAL_TIME_OFFSET ( 8, 0, .BEHIND. ) ;
#585 = DIRECTION ( 'NONE',  ( 1.000000000000000000, 0.0000000000000000000, 0.0000000000000000000 ) ) ;
#586 = EDGE_CURVE ( 'NONE', #694, #109, #180, .T. ) ;
#587 = APPROVAL_DATE_TIME ( #683, #642 ) ;
#588 = DIRECTION ( 'NONE',  ( -0.0000000000000000000, 0.0000000000000000000, 1.000000000000000000 ) ) ;
#589 = PERSON_AND_ORGANIZATION ( #146, #255 ) ;
#590 = LINE ( 'NONE', #643, #51 ) ;
#591 = AXIS2_PLACEMENT_3D ( 'NONE', #236, #134, #614 ) ;
#592 = EDGE_CURVE ( 'NONE', #386, #423, #32, .T. ) ;
#593 = DIRECTION ( 'NONE',  ( -1.000000000000000000, -0.0000000000000000000, -0.0000000000000000000 ) ) ;
#594 = CARTESIAN_POINT ( 'NONE',  ( 0.1619999999999989782, 0.0000000000000000000, 0.0000000000000000000 ) ) ;
#595 = ORIENTED_EDGE ( 'NONE', *, *, #95, .T. ) ;
#596 = DIRECTION ( 'NONE',  ( -1.000000000000000000, -0.0000000000000000000, -0.0000000000000000000 ) ) ;
#597 = DIRECTION ( 'NONE',  ( 0.0000000000000000000, 0.0000000000000000000, 1.000000000000000000 ) ) ;
#598 = EDGE_LOOP ( 'NONE', ( #541, #67, #533, #572 ) ) ;
#599 = VERTEX_POINT ( 'NONE', #406 ) ;
#600 = CIRCLE ( 'NONE', #59, 0.06612500000000000322 ) ;
#601 = CARTESIAN_POINT ( 'NONE',  ( 0.4247500000000026255, 0.0000000000000000000, 0.06612500000000000322 ) ) ;
#602 = EDGE_LOOP ( 'NONE', ( #277, #395, #13, #339, #620, #516 ) ) ;
#603 = DIRECTION ( 'NONE',  ( 0.0000000000000000000, 0.8660254037844328234, -0.5000000000000101030 ) ) ;
#604 = EDGE_CURVE ( 'NONE', #285, #173, #240, .T. ) ;
#605 = LINE ( 'NONE', #665, #485 ) ;
#606 = VERTEX_POINT ( 'NONE', #571 ) ;
#607 = DIRECTION ( 'NONE',  ( -1.000000000000000000, -0.0000000000000000000, -0.0000000000000000000 ) ) ;
#608 = DIRECTION ( 'NONE',  ( -0.0000000000000000000, 0.0000000000000000000, 1.000000000000000000 ) ) ;
#609 = ORIENTED_EDGE ( 'NONE', *, *, #259, .T. ) ;
#610 = CARTESIAN_POINT ( 'NONE',  ( 0.1619999999999989782, 8.388830574159372464E-18, -0.06850000000000000533 ) ) ;
#611 = CIRCLE ( 'NONE', #226, 0.1162500000000000200 ) ;
#612 = AXIS2_PLACEMENT_3D ( 'NONE', #647, #422, #534 ) ;
#613 = ADVANCED_FACE ( 'NONE', ( #24 ), #192, .F. ) ;
#614 = DIRECTION ( 'NONE',  ( 0.0000000000000000000, 0.0000000000000000000, 1.000000000000000000 ) ) ;
#615 = VERTEX_POINT ( 'NONE', #309 ) ;
#616 = DIRECTION ( 'NONE',  ( -1.000000000000000000, -0.0000000000000000000, -0.0000000000000000000 ) ) ;
#617 = CC_DESIGN_PERSON_AND_ORGANIZATION_ASSIGNMENT ( #481, #529, ( #505 ) ) ;
#618 = DIRECTION ( 'NONE',  ( -1.000000000000000000, -0.0000000000000000000, -0.0000000000000000000 ) ) ;
#619 = EDGE_CURVE ( 'NONE', #404, #159, #18, .T. ) ;
#620 = ORIENTED_EDGE ( 'NONE', *, *, #259, .F. ) ;
#621 = DIRECTION ( 'NONE',  ( -1.000000000000000000, -0.0000000000000000000, -0.0000000000000000000 ) ) ;
#622 = DIRECTION ( 'NONE',  ( -1.000000000000000000, 0.0000000000000000000, 0.0000000000000000000 ) ) ;
#623 = VERTEX_POINT ( 'NONE', #291 ) ;
#624 = FACE_OUTER_BOUND ( 'NONE', #507, .T. ) ;
#625 = AXIS2_PLACEMENT_3D ( 'NONE', #56, #273, #483 ) ;
#626 = AXIS2_PLACEMENT_3D ( 'NONE', #87, #462, #412 ) ;
#627 = APPLICATION_PROTOCOL_DEFINITION ( 'international standard', 'config_control_design', 1994, #312 ) ;
#628 = MANIFOLD_SOLID_BREP ( 'Répétition circulaire1', #680 ) ;
#629 = ORIENTED_EDGE ( 'NONE', *, *, #543, .T. ) ;
#630 = FACE_OUTER_BOUND ( 'NONE', #675, .T. ) ;
#631 = CC_DESIGN_PERSON_AND_ORGANIZATION_ASSIGNMENT ( #207, #260, ( #314 ) ) ;
#632 = CC_DESIGN_APPROVAL ( #642, ( #505 ) ) ;
#633 = CARTESIAN_POINT ( 'NONE',  ( 0.03700000000000094186, 0.0000000000000000000, 0.08350000000000007416 ) ) ;
#634 = APPROVAL_DATE_TIME ( #271, #100 ) ;
#635 = CARTESIAN_POINT ( 'NONE',  ( 0.4559999999999997389, 0.0000000000000000000, 0.0000000000000000000 ) ) ;
#636 = AXIS2_PLACEMENT_3D ( 'NONE', #196, #305, #80 ) ;
#637 = EDGE_CURVE ( 'NONE', #524, #114, #246, .T. ) ;
#638 = PERSON_AND_ORGANIZATION_ROLE ( 'design_supplier' ) ;
#639 = VECTOR ( 'NONE', #528, 39.37007874015748143 ) ;
#640 = DIRECTION ( 'NONE',  ( -0.0000000000000000000, 0.0000000000000000000, 1.000000000000000000 ) ) ;
#641 = CALENDAR_DATE ( 2026, 1, 4 ) ;
#642 = APPROVAL ( #418, 'UNSPECIFIED' ) ;
#643 = CARTESIAN_POINT ( 'NONE',  ( -39.37007874015748143, 0.0000000000000000000, 0.1162500000000000200 ) ) ;
#644 = VERTEX_POINT ( 'NONE', #85 ) ;
#645 = EDGE_LOOP ( 'NONE', ( #209, #595, #411, #108 ) ) ;
#646 = PLANE ( 'NONE',  #101 ) ;
#647 = CARTESIAN_POINT ( 'NONE',  ( 0.0000000000000000000, 0.0000000000000000000, 0.0000000000000000000 ) ) ;
#648 = APPROVAL_PERSON_ORGANIZATION ( #324, #151, #690 ) ;
#649 = ADVANCED_FACE ( 'NONE', ( #450 ), #369, .T. ) ;
#650 = DIRECTION ( 'NONE',  ( -1.000000000000000000, -0.0000000000000000000, -0.0000000000000000000 ) ) ;
#651 = ORIENTED_EDGE ( 'NONE', *, *, #577, .F. ) ;
#652 = FACE_OUTER_BOUND ( 'NONE', #177, .T. ) ;
#653 = DIRECTION ( 'NONE',  ( -1.000000000000000000, -0.0000000000000000000, -0.0000000000000000000 ) ) ;
#654 = ORIENTED_EDGE ( 'NONE', *, *, #44, .F. ) ;
#655 = CARTESIAN_POINT ( 'NONE',  ( 0.4247500000000026255, 0.0000000000000000000, 0.0000000000000000000 ) ) ;
#656 = EDGE_CURVE ( 'NONE', #215, #509, #518, .T. ) ;
#657 = DIRECTION ( 'NONE',  ( 0.0000000000000000000, 0.0000000000000000000, 1.000000000000000000 ) ) ;
#658 = ORIENTED_EDGE ( 'NONE', *, *, #512, .F. ) ;
#659 = DIRECTION ( 'NONE',  ( -1.000000000000000000, -0.0000000000000000000, -0.0000000000000000000 ) ) ;
#660 = VECTOR ( 'NONE', #269, 39.37007874015748854 ) ;
#661 = VECTOR ( 'NONE', #470, 39.37007874015748143 ) ;
#662 = FACE_OUTER_BOUND ( 'NONE', #76, .T. ) ;
#663 = ORIENTED_EDGE ( 'NONE', *, *, #417, .F. ) ;
#664 = ORIENTED_EDGE ( 'NONE', *, *, #689, .T. ) ;
#665 = CARTESIAN_POINT ( 'NONE',  ( 0.4559999999999999054, 0.03199999999999999373, 0.01847520861406791101 ) ) ;
#666 = EDGE_LOOP ( 'NONE', ( #443, #544, #242, #132 ) ) ;
#667 = CARTESIAN_POINT ( 'NONE',  ( 0.01700000000000367190, 1.423651904008798341E-17, 0.1162500000000000200 ) ) ;
#668 = EDGE_CURVE ( 'NONE', #114, #215, #559, .T. ) ;
#669 = APPLICATION_CONTEXT ( 'configuration controlled 3d designs of mechanical parts and assemblies' ) ;
#670 = DIRECTION ( 'NONE',  ( 0.0000000000000000000, -0.8660254037844363761, 0.5000000000000041078 ) ) ;
#671 = ORIENTED_EDGE ( 'NONE', *, *, #426, .T. ) ;
#672 = CIRCLE ( 'NONE', #612, 0.09924999999999997713 ) ;
#673 = AXIS2_PLACEMENT_3D ( 'NONE', #456, #187, #674 ) ;
#674 = DIRECTION ( 'NONE',  ( 0.0000000000000000000, 0.0000000000000000000, 1.000000000000000000 ) ) ;
#675 = EDGE_LOOP ( 'NONE', ( #398, #566, #249, #489 ) ) ;
#676 = CARTESIAN_POINT ( 'NONE',  ( 0.05200000000000008782, 0.0000000000000000000, 0.0000000000000000000 ) ) ;
#677 = EDGE_CURVE ( 'NONE', #599, #22, #513, .T. ) ;
#678 = ORIENTED_EDGE ( 'NONE', *, *, #91, .T. ) ;
#679 = CARTESIAN_POINT ( 'NONE',  ( 0.01700000000000367190, 0.0000000000000000000, 0.1162500000000000200 ) ) ;
#680 = CLOSED_SHELL ( 'NONE', ( #649, #83, #122, #366, #486, #184, #326, #198, #468, #563, #501, #157, #415, #21, #189, #436, #457, #613, #466, #62, #568, #113, #216 ) ) ;
#681 = DIRECTION ( 'NONE',  ( -1.000000000000000000, -0.0000000000000000000, -0.0000000000000000000 ) ) ;
#682 = DIMENSIONAL_EXPONENTS ( 1.000000000000000000, 0.0000000000000000000, 0.0000000000000000000, 0.0000000000000000000, 0.0000000000000000000, 0.0000000000000000000, 0.0000000000000000000 ) ;
#683 = DATE_AND_TIME ( #367, #445 ) ;
#684 = CARTESIAN_POINT ( 'NONE',  ( 0.4247500000000026255, 8.097976959361872099E-18, -0.06612500000000000322 ) ) ;
#685 = EDGE_CURVE ( 'NONE', #423, #386, #167, .T. ) ;
#686 = PERSON_AND_ORGANIZATION ( #146, #255 ) ;
#687 = LINE ( 'NONE', #428, #661 ) ;
#688 = AXIS2_PLACEMENT_3D ( 'NONE', #10, #504, #235 ) ;
#689 = EDGE_CURVE ( 'NONE', #285, #509, #141, .T. ) ;
#690 = APPROVAL_ROLE ( '' ) ;
#691 = VECTOR ( 'NONE', #150, 39.37007874015748854 ) ;
#692 = LINE ( 'NONE', #372, #144 ) ;
#693 = ORIENTED_EDGE ( 'NONE', *, *, #47, .F. ) ;
#694 = VERTEX_POINT ( 'NONE', #562 ) ;
#695 = SECURITY_CLASSIFICATION_LEVEL ( 'unclassified' ) ;
#696 = CARTESIAN_POINT ( 'NONE',  ( 0.1619999999999989782, 8.097976959361873640E-18, -0.06612500000000000322 ) ) ;
#697 = ORIENTED_EDGE ( 'NONE', *, *, #417, .T. ) ;
#698 = ORIENTED_EDGE ( 'NONE', *, *, #432, .T. ) ;
ENDSEC;
END-ISO-10303-21;
