ISO-10303-21;
HEADER;
FILE_DESCRIPTION (( 'STEP AP214' ),
    '1' );
FILE_NAME ('HL379--5.step',
    '2018-01-17T14:32:51',
    ( 'LISI AEROSPACE' ),
    ( 'LISI AEROSPACE' ),
    'SwSTEP 2.0',
    'SolidWorks 2015',
    '' );
FILE_SCHEMA (( 'AUTOMOTIVE_DESIGN' ));
ENDSEC;

DATA;
#1 = EDGE_CURVE ( 'NONE', #629, #629, #769, .T. ) ;
#2 = ORIENTED_EDGE ( 'NONE', *, *, #174, .T. ) ;
#3 = DIRECTION ( 'NONE',  ( 0.0000000000000000000, 0.0000000000000000000, 1.000000000000000000 ) ) ;
#4 = EDGE_LOOP ( 'NONE', ( #716 ) ) ;
#5 = SURFACE_STYLE_FILL_AREA ( #669 ) ;
#6 = VERTEX_POINT ( 'NONE', #53 ) ;
#7 = LENGTH_MEASURE_WITH_UNIT ( LENGTH_MEASURE( 0.02539999999999999900 ), #291 );
#8 = ADVANCED_FACE ( 'NONE', ( #146 ), #530, .T. ) ;
#9 = DIRECTION ( 'NONE',  ( -1.000000000000000000, -0.0000000000000000000, -0.0000000000000000000 ) ) ;
#10 = EDGE_CURVE ( 'NONE', #661, #661, #342, .T. ) ;
#11 = DIRECTION ( 'NONE',  ( 0.0000000000000000000, 0.4999999999999998900, 0.8660254037844386000 ) ) ;
#12 = ORIENTED_EDGE ( 'NONE', *, *, #56, .F. ) ;
#13 = VERTEX_POINT ( 'NONE', #229 ) ;
#14 = CARTESIAN_POINT ( 'NONE',  ( 0.3420000000000000300, 0.09600624933376678000, 0.1427122983097904000 ) ) ;
#15 = ORIENTED_EDGE ( 'NONE', *, *, #833, .F. ) ;
#16 = VECTOR ( 'NONE', #540, 39.37007874015748100 ) ;
#17 = AXIS2_PLACEMENT_3D ( 'NONE', #563, #162, #32 ) ;
#18 = EDGE_LOOP ( 'NONE', ( #82 ) ) ;
#19 = ADVANCED_FACE ( 'NONE', ( #268 ), #578, .T. ) ;
#20 = CIRCLE ( 'NONE', #388, 0.1200000000000000000 ) ;
#21 =( LENGTH_UNIT ( ) NAMED_UNIT ( * ) SI_UNIT ( $, .METRE. ) );
#22 = EDGE_CURVE ( 'NONE', #26, #677, #665, .T. ) ;
#23 = DIRECTION ( 'NONE',  ( -0.0000000000000000000, 0.0000000000000000000, 1.000000000000000000 ) ) ;
#24 = DIRECTION ( 'NONE',  ( 0.0000000000000000000, 0.0000000000000000000, 1.000000000000000000 ) ) ;
#25 = ORIENTED_EDGE ( 'NONE', *, *, #621, .T. ) ;
#26 = VERTEX_POINT ( 'NONE', #369 ) ;
#27 = VERTEX_POINT ( 'NONE', #751 ) ;
#28 = ORIENTED_EDGE ( 'NONE', *, *, #828, .F. ) ;
#29 = VERTEX_POINT ( 'NONE', #809 ) ;
#30 = CARTESIAN_POINT ( 'NONE',  ( 0.4370000000000000000, -0.08920061658979718000, -0.1544999999999998900 ) ) ;
#31 = CARTESIAN_POINT ( 'NONE',  ( 0.4370000000000000000, -0.08920061658979715200, 0.1545000000000000300 ) ) ;
#32 = DIRECTION ( 'NONE',  ( 0.0000000000000000000, 0.0000000000000000000, 1.000000000000000000 ) ) ;
#33 = DIRECTION ( 'NONE',  ( -1.000000000000000000, -0.0000000000000000000, -0.0000000000000000000 ) ) ;
#34 = CARTESIAN_POINT ( 'NONE',  ( 0.4370000000000000000, 0.07558935110185842400, -0.1544999999999998900 ) ) ;
#35 = ORIENTED_EDGE ( 'NONE', *, *, #503, .T. ) ;
#36 = ADVANCED_FACE ( 'NONE', ( #417 ), #183, .T. ) ;
#37 = CARTESIAN_POINT ( 'NONE',  ( 0.1009122333409322400, 0.0000000000000000000, 0.1260961894323342500 ) ) ;
#38 = EDGE_LOOP ( 'NONE', ( #788 ) ) ;
#39 = EDGE_CURVE ( 'NONE', #41, #658, #613, .T. ) ;
#40 = ORIENTED_EDGE ( 'NONE', *, *, #243, .F. ) ;
#41 = VERTEX_POINT ( 'NONE', #541 ) ;
#42 = CARTESIAN_POINT ( 'NONE',  ( 0.4370000000000000000, 0.0000000000000000000, 0.08200000000000000300 ) ) ;
#43 = DIRECTION ( 'NONE',  ( 1.000000000000000000, 0.0000000000000000000, 0.0000000000000000000 ) ) ;
#44 = ADVANCED_FACE ( 'NONE', ( #606, #426 ), #654, .T. ) ;
#45 = DIRECTION ( 'NONE',  ( -1.000000000000000000, -0.0000000000000000000, -0.0000000000000000000 ) ) ;
#46 = PRODUCT_CONTEXT ( 'NONE', #514, 'mechanical' ) ;
#47 = CIRCLE ( 'NONE', #344, 0.1060000000000000000 ) ;
#48 = CARTESIAN_POINT ( 'NONE',  ( 0.4370000000000000000, -0.07558935110185816000, 0.1545000000000000300 ) ) ;
#49 = ORIENTED_EDGE ( 'NONE', *, *, #1, .F. ) ;
#50 = ORIENTED_EDGE ( 'NONE', *, *, #243, .T. ) ;
#51 = FACE_OUTER_BOUND ( 'NONE', #190, .T. ) ;
#52 = EDGE_LOOP ( 'NONE', ( #289 ) ) ;
#53 = CARTESIAN_POINT ( 'NONE',  ( 0.4370000000000000000, 0.1715956004356249700, -0.01178770169020931400 ) ) ;
#54 =( LENGTH_UNIT ( ) NAMED_UNIT ( * ) SI_UNIT ( $, .METRE. ) );
#55 = EDGE_LOOP ( 'NONE', ( #469 ) ) ;
#56 = EDGE_CURVE ( 'NONE', #706, #706, #251, .T. ) ;
#57 = ORIENTED_EDGE ( 'NONE', *, *, #10, .F. ) ;
#58 = DIRECTION ( 'NONE',  ( -1.000000000000000000, -0.0000000000000000000, -0.0000000000000000000 ) ) ;
#59 = ORIENTED_EDGE ( 'NONE', *, *, #552, .F. ) ;
#60 = ORIENTED_EDGE ( 'NONE', *, *, #442, .F. ) ;
#61 = DIRECTION ( 'NONE',  ( 1.000000000000000000, 0.0000000000000000000, 0.0000000000000000000 ) ) ;
#62 = DIRECTION ( 'NONE',  ( 0.0000000000000000000, 0.0000000000000000000, 1.000000000000000000 ) ) ;
#63 = AXIS2_PLACEMENT_3D ( 'NONE', #823, #710, #640 ) ;
#64 = AXIS2_PLACEMENT_3D ( 'NONE', #187, #118, #837 ) ;
#65 = CARTESIAN_POINT ( 'NONE',  ( 0.3420000000000000300, -0.1715956004356249400, -0.01178770169020933200 ) ) ;
#66 = AXIS2_PLACEMENT_3D ( 'NONE', #727, #144, #204 ) ;
#67 = VERTEX_POINT ( 'NONE', #309 ) ;
#68 = EDGE_LOOP ( 'NONE', ( #479 ) ) ;
#69 = DIRECTION ( 'NONE',  ( -1.000000000000000000, -0.0000000000000000000, -0.0000000000000000000 ) ) ;
#70 = ORIENTED_EDGE ( 'NONE', *, *, #22, .F. ) ;
#71 = FACE_OUTER_BOUND ( 'NONE', #119, .T. ) ;
#72 = CARTESIAN_POINT ( 'NONE',  ( 0.4370000000000000000, 0.1784012331795943600, 6.065455793024548000E-017 ) ) ;
#73 = EDGE_CURVE ( 'NONE', #452, #452, #280, .T. ) ;
#74 = ORIENTED_EDGE ( 'NONE', *, *, #697, .T. ) ;
#75 = AXIS2_PLACEMENT_3D ( 'NONE', #311, #182, #644 ) ;
#76 = ORIENTED_EDGE ( 'NONE', *, *, #177, .F. ) ;
#77 = ORIENTED_EDGE ( 'NONE', *, *, #483, .T. ) ;
#78 = EDGE_CURVE ( 'NONE', #739, #189, #745, .T. ) ;
#79 = CARTESIAN_POINT ( 'NONE',  ( 0.1759122333409323400, 0.0000000000000000000, 0.0000000000000000000 ) ) ;
#80 = CARTESIAN_POINT ( 'NONE',  ( 0.0000000000000000000, -0.1715956004356249100, 0.01178770169020949300 ) ) ;
#81 =( NAMED_UNIT ( * ) PLANE_ANGLE_UNIT ( ) SI_UNIT ( $, .RADIAN. ) );
#82 = ORIENTED_EDGE ( 'NONE', *, *, #10, .T. ) ;
#83 = FACE_BOUND ( 'NONE', #348, .T. ) ;
#84 = EDGE_LOOP ( 'NONE', ( #35 ) ) ;
#85 = ORIENTED_EDGE ( 'NONE', *, *, #477, .T. ) ;
#86 = VECTOR ( 'NONE', #607, 39.37007874015748100 ) ;
#87 = AXIS2_PLACEMENT_3D ( 'NONE', #496, #360, #564 ) ;
#88 = AXIS2_PLACEMENT_3D ( 'NONE', #446, #45, #515 ) ;
#89 = AXIS2_PLACEMENT_3D ( 'NONE', #626, #819, #451 ) ;
#90 = EDGE_LOOP ( 'NONE', ( #474, #485, #95, #255 ) ) ;
#91 = EDGE_LOOP ( 'NONE', ( #211 ) ) ;
#92 = EDGE_LOOP ( 'NONE', ( #60 ) ) ;
#93 = EDGE_CURVE ( 'NONE', #334, #207, #687, .T. ) ;
#94 = DIRECTION ( 'NONE',  ( 1.000000000000000000, 0.0000000000000000000, 0.0000000000000000000 ) ) ;
#95 = ORIENTED_EDGE ( 'NONE', *, *, #800, .F. ) ;
#96 = EDGE_CURVE ( 'NONE', #765, #250, #472, .T. ) ;
#97 = CARTESIAN_POINT ( 'NONE',  ( 0.3420000000000000300, 0.0000000000000000000, 0.0000000000000000000 ) ) ;
#98 = CARTESIAN_POINT ( 'NONE',  ( 0.1050000000000000000, 0.0000000000000000000, 0.08550000000000000700 ) ) ;
#99 = FACE_OUTER_BOUND ( 'NONE', #123, .T. ) ;
#100 = CARTESIAN_POINT ( 'NONE',  ( 0.3420000000000000300, 0.0000000000000000000, 0.0000000000000000000 ) ) ;
#101 = ADVANCED_FACE ( 'NONE', ( #99, #549 ), #612, .T. ) ;
#102 = CARTESIAN_POINT ( 'NONE',  ( 0.1049999999999999700, 0.0000000000000000000, 0.08199999999999997600 ) ) ;
#103 = EDGE_CURVE ( 'NONE', #41, #334, #504, .T. ) ;
#104 = EDGE_CURVE ( 'NONE', #723, #207, #584, .T. ) ;
#105 = CARTESIAN_POINT ( 'NONE',  ( 0.2670000000000000700, 0.0000000000000000000, 0.0000000000000000000 ) ) ;
#106 = COLOUR_RGB ( '',0.7921568627450980000, 0.8196078431372548800, 0.9333333333333333500 ) ;
#107 = FILL_AREA_STYLE_COLOUR ( '', #579 ) ;
#108 = EDGE_LOOP ( 'NONE', ( #15, #762, #430, #391, #491, #224, #70, #695, #216, #168, #488, #322 ) ) ;
#109 = EDGE_LOOP ( 'NONE', ( #499 ) ) ;
#110 = CYLINDRICAL_SURFACE ( 'NONE', #271, 0.1424999999999999900 ) ;
#111 = EDGE_CURVE ( 'NONE', #26, #411, #524, .T. ) ;
#112 = APPLICATION_PROTOCOL_DEFINITION ( 'draft international standard', 'automotive_design', 1998, #517 ) ;
#113 = CARTESIAN_POINT ( 'NONE',  ( 0.3420000000000000300, -0.09600624933376654400, -0.1427122983097905700 ) ) ;
#114 = VECTOR ( 'NONE', #798, 39.37007874015748100 ) ;
#115 = CARTESIAN_POINT ( 'NONE',  ( 0.1357198544762638300, 0.0000000000000000000, 0.0000000000000000000 ) ) ;
#116 =( NAMED_UNIT ( * ) PLANE_ANGLE_UNIT ( ) SI_UNIT ( $, .RADIAN. ) );
#117 = ORIENTED_EDGE ( 'NONE', *, *, #73, .T. ) ;
#118 = DIRECTION ( 'NONE',  ( -1.000000000000000000, -0.0000000000000000000, -0.0000000000000000000 ) ) ;
#119 = EDGE_LOOP ( 'NONE', ( #49 ) ) ;
#120 = FACE_OUTER_BOUND ( 'NONE', #365, .T. ) ;
#121 = VERTEX_POINT ( 'NONE', #164 ) ;
#122 = DIRECTION ( 'NONE',  ( -1.000000000000000000, -0.0000000000000000000, -0.0000000000000000000 ) ) ;
#123 = EDGE_LOOP ( 'NONE', ( #460 ) ) ;
#124 = EDGE_CURVE ( 'NONE', #67, #733, #361, .T. ) ;
#125 = DIRECTION ( 'NONE',  ( -1.000000000000000000, -0.0000000000000000000, -0.0000000000000000000 ) ) ;
#126 = CARTESIAN_POINT ( 'NONE',  ( 0.1009122333409322400, 0.0000000000000000000, 0.0000000000000000000 ) ) ;
#127 = DIRECTION ( 'NONE',  ( 1.000000000000000000, 0.0000000000000000000, 0.0000000000000000000 ) ) ;
#128 =( GEOMETRIC_REPRESENTATION_CONTEXT ( 3 ) GLOBAL_UNCERTAINTY_ASSIGNED_CONTEXT ( ( #528 ) ) GLOBAL_UNIT_ASSIGNED_CONTEXT ( ( #487, #81, #556 ) ) REPRESENTATION_CONTEXT ( 'NONE', 'WORKASPACE' ) );
#129 = LINE ( 'NONE', #559, #699 ) ;
#130 = EDGE_CURVE ( 'NONE', #435, #435, #815, .T. ) ;
#131 = EDGE_LOOP ( 'NONE', ( #186 ) ) ;
#132 = VERTEX_POINT ( 'NONE', #34 ) ;
#133 = ORIENTED_EDGE ( 'NONE', *, *, #697, .F. ) ;
#134 = DIRECTION ( 'NONE',  ( -1.000000000000000000, -0.0000000000000000000, -0.0000000000000000000 ) ) ;
#135 = AXIS2_PLACEMENT_3D ( 'NONE', #628, #645, #296 ) ;
#136 = EDGE_CURVE ( 'NONE', #433, #433, #562, .T. ) ;
#137 = DIRECTION ( 'NONE',  ( -1.000000000000000000, -0.0000000000000000000, -0.0000000000000000000 ) ) ;
#138 = PRODUCT_DEFINITION ( 'UNKNOWN', '', #213, #201 ) ;
#139 = ORIENTED_EDGE ( 'NONE', *, *, #779, .F. ) ;
#140 = ORIENTED_EDGE ( 'NONE', *, *, #376, .T. ) ;
#141 = PLANE ( 'NONE',  #380 ) ;
#142 = ORIENTED_EDGE ( 'NONE', *, *, #656, .F. ) ;
#143 = ORIENTED_EDGE ( 'NONE', *, *, #93, .T. ) ;
#144 = DIRECTION ( 'NONE',  ( -1.000000000000000000, -0.0000000000000000000, -0.0000000000000000000 ) ) ;
#145 = AXIS2_PLACEMENT_3D ( 'NONE', #126, #526, #516 ) ;
#146 = FACE_OUTER_BOUND ( 'NONE', #781, .T. ) ;
#147 = DIRECTION ( 'NONE',  ( 0.0000000000000000000, 0.0000000000000000000, 1.000000000000000000 ) ) ;
#148 = ADVANCED_FACE ( 'NONE', ( #636, #736 ), #683, .F. ) ;
#149 = EDGE_LOOP ( 'NONE', ( #198, #253, #357, #264 ) ) ;
#150 = PRESENTATION_LAYER_ASSIGNMENT (  '', '', ( #340 ) ) ;
#151 = ORIENTED_EDGE ( 'NONE', *, *, #39, .F. ) ;
#152 = AXIS2_PLACEMENT_3D ( 'NONE', #689, #834, #568 ) ;
#153 = EDGE_LOOP ( 'NONE', ( #285 ) ) ;
#154 = EDGE_CURVE ( 'NONE', #733, #507, #590, .T. ) ;
#155 = VECTOR ( 'NONE', #295, 39.37007874015748100 ) ;
#156 = AXIS2_PLACEMENT_3D ( 'NONE', #770, #840, #464 ) ;
#157 = CARTESIAN_POINT ( 'NONE',  ( 0.3420000000000000300, -0.07558935110185850700, -0.1544999999999998900 ) ) ;
#158 = ORIENTED_EDGE ( 'NONE', *, *, #332, .F. ) ;
#159 = CARTESIAN_POINT ( 'NONE',  ( 0.3420000000000000300, 0.0000000000000000000, 0.0000000000000000000 ) ) ;
#160 = ORIENTED_EDGE ( 'NONE', *, *, #104, .T. ) ;
#161 = CARTESIAN_POINT ( 'NONE',  ( 0.3420000000000000300, 0.0000000000000000000, 0.0000000000000000000 ) ) ;
#162 = DIRECTION ( 'NONE',  ( -1.000000000000000000, -0.0000000000000000000, -0.0000000000000000000 ) ) ;
#163 = FACE_OUTER_BOUND ( 'NONE', #226, .T. ) ;
#164 = CARTESIAN_POINT ( 'NONE',  ( 0.4370000000000000000, 0.1715956004356249700, 0.01178770169020947900 ) ) ;
#165 = AXIS2_PLACEMENT_3D ( 'NONE', #259, #725, #338 ) ;
#166 = DIRECTION ( 'NONE',  ( 0.0000000000000000000, 0.0000000000000000000, 1.000000000000000000 ) ) ;
#167 = CARTESIAN_POINT ( 'NONE',  ( 0.3420000000000000300, 0.0000000000000000000, 0.1050000000000000000 ) ) ;
#168 = ORIENTED_EDGE ( 'NONE', *, *, #154, .T. ) ;
#169 = ADVANCED_FACE ( 'NONE', ( #163, #339 ), #218, .T. ) ;
#170 = EDGE_LOOP ( 'NONE', ( #449 ) ) ;
#171 = DIRECTION ( 'NONE',  ( 0.0000000000000000000, 0.0000000000000000000, 1.000000000000000000 ) ) ;
#172 = SURFACE_SIDE_STYLE ('',( #254 ) ) ;
#173 = CARTESIAN_POINT ( 'NONE',  ( 0.0000000000000000000, 0.0000000000000000000, 0.0000000000000000000 ) ) ;
#174 = EDGE_CURVE ( 'NONE', #250, #189, #595, .T. ) ;
#175 = PLANE ( 'NONE',  #573 ) ;
#176 = ORIENTED_EDGE ( 'NONE', *, *, #275, .F. ) ;
#177 = EDGE_CURVE ( 'NONE', #121, #26, #674, .T. ) ;
#178 = ORIENTED_EDGE ( 'NONE', *, *, #825, .T. ) ;
#179 = DIRECTION ( 'NONE',  ( -1.000000000000000000, -0.0000000000000000000, -0.0000000000000000000 ) ) ;
#180 = ORIENTED_EDGE ( 'NONE', *, *, #771, .F. ) ;
#181 = PRODUCT_RELATED_PRODUCT_CATEGORY ( 'part', '', ( #760 ) ) ;
#182 = DIRECTION ( 'NONE',  ( 1.000000000000000000, 0.0000000000000000000, 0.0000000000000000000 ) ) ;
#183 = PLANE ( 'NONE',  #152 ) ;
#184 = AXIS2_PLACEMENT_3D ( 'NONE', #105, #829, #519 ) ;
#185 = PLANE ( 'NONE',  #307 ) ;
#186 = ORIENTED_EDGE ( 'NONE', *, *, #483, .F. ) ;
#187 = CARTESIAN_POINT ( 'NONE',  ( 0.1050000000000000000, 0.0000000000000000000, 0.0000000000000000000 ) ) ;
#188 = ORIENTED_EDGE ( 'NONE', *, *, #580, .T. ) ;
#189 = VERTEX_POINT ( 'NONE', #812 ) ;
#190 = EDGE_LOOP ( 'NONE', ( #286 ) ) ;
#191 = UNCERTAINTY_MEASURE_WITH_UNIT (LENGTH_MEASURE( 1.000000000000000100E-005 ), #297, 'distance_accuracy_value', 'NONE');
#192 = AXIS2_PLACEMENT_3D ( 'NONE', #610, #738, #355 ) ;
#193 = ADVANCED_FACE ( 'NONE', ( #646 ), #709, .T. ) ;
#194 = AXIS2_PLACEMENT_3D ( 'NONE', #431, #33, #501 ) ;
#195 = DIRECTION ( 'NONE',  ( 1.000000000000000000, 0.0000000000000000000, 0.0000000000000000000 ) ) ;
#196 = DIRECTION ( 'NONE',  ( 0.0000000000000000000, 0.4999999999999997200, -0.8660254037844388200 ) ) ;
#197 = ORIENTED_EDGE ( 'NONE', *, *, #231, .F. ) ;
#198 = ORIENTED_EDGE ( 'NONE', *, *, #124, .T. ) ;
#199 = ORIENTED_EDGE ( 'NONE', *, *, #552, .T. ) ;
#200 = DIRECTION ( 'NONE',  ( 0.0000000000000000000, 0.0000000000000000000, 1.000000000000000000 ) ) ;
#201 = PRODUCT_DEFINITION_CONTEXT ( 'detailed design', #517, 'design' ) ;
#202 = EDGE_CURVE ( 'NONE', #13, #13, #795, .T. ) ;
#203 = DIRECTION ( 'NONE',  ( 0.0000000000000000000, 0.0000000000000000000, -1.000000000000000000 ) ) ;
#204 = DIRECTION ( 'NONE',  ( 0.0000000000000000000, 0.0000000000000000000, 1.000000000000000000 ) ) ;
#205 = AXIS2_PLACEMENT_3D ( 'NONE', #399, #195, #653 ) ;
#206 = ORIENTED_EDGE ( 'NONE', *, *, #587, .T. ) ;
#207 = VERTEX_POINT ( 'NONE', #700 ) ;
#208 = ORIENTED_EDGE ( 'NONE', *, *, #534, .F. ) ;
#209 = DIMENSIONAL_EXPONENTS ( 1.000000000000000000, 0.0000000000000000000, 0.0000000000000000000, 0.0000000000000000000, 0.0000000000000000000, 0.0000000000000000000, 0.0000000000000000000 ) ;
#210 = AXIS2_PLACEMENT_3D ( 'NONE', #115, #704, #454 ) ;
#211 = ORIENTED_EDGE ( 'NONE', *, *, #202, .F. ) ;
#212 = FILL_AREA_STYLE_COLOUR ( '', #106 ) ;
#213 = PRODUCT_DEFINITION_FORMATION_WITH_SPECIFIED_SOURCE ( 'ANY', '', #760, .NOT_KNOWN. ) ;
#214 = PLANE ( 'NONE',  #192 ) ;
#215 = EDGE_CURVE ( 'NONE', #262, #262, #20, .T. ) ;
#216 = ORIENTED_EDGE ( 'NONE', *, *, #413, .F. ) ;
#217 =( GEOMETRIC_REPRESENTATION_CONTEXT ( 3 ) GLOBAL_UNCERTAINTY_ASSIGNED_CONTEXT ( ( #703 ) ) GLOBAL_UNIT_ASSIGNED_CONTEXT ( ( #525, #116, #583 ) ) REPRESENTATION_CONTEXT ( 'NONE', 'WORKASPACE' ) );
#218 = CYLINDRICAL_SURFACE ( 'NONE', #685, 0.09499999999999998700 ) ;
#219 = ORIENTED_EDGE ( 'NONE', *, *, #779, .T. ) ;
#220 = DIRECTION ( 'NONE',  ( 0.0000000000000000000, 0.0000000000000000000, 1.000000000000000000 ) ) ;
#221 = DIRECTION ( 'NONE',  ( 0.0000000000000000000, 0.0000000000000000000, 1.000000000000000000 ) ) ;
#222 = CARTESIAN_POINT ( 'NONE',  ( 0.3420000000000000300, 0.07558935110185822900, 0.1545000000000000300 ) ) ;
#223 = CARTESIAN_POINT ( 'NONE',  ( 0.3420000000000000300, 0.0000000000000000000, 0.0000000000000000000 ) ) ;
#224 = ORIENTED_EDGE ( 'NONE', *, *, #777, .T. ) ;
#225 = ORIENTED_EDGE ( 'NONE', *, *, #366, .F. ) ;
#226 = EDGE_LOOP ( 'NONE', ( #57 ) ) ;
#227 = CIRCLE ( 'NONE', #707, 0.1424999999999999900 ) ;
#228 = ORIENTED_EDGE ( 'NONE', *, *, #93, .F. ) ;
#229 = CARTESIAN_POINT ( 'NONE',  ( 0.2670000000000000700, 0.0000000000000000000, -0.08199999999999999000 ) ) ;
#230 = DIRECTION ( 'NONE',  ( -1.000000000000000000, -0.0000000000000000000, -0.0000000000000000000 ) ) ;
#231 = EDGE_CURVE ( 'NONE', #121, #6, #832, .T. ) ;
#232 = AXIS2_PLACEMENT_3D ( 'NONE', #582, #179, #637 ) ;
#233 = DIRECTION ( 'NONE',  ( -1.000000000000000000, -0.0000000000000000000, -0.0000000000000000000 ) ) ;
#234 =( LENGTH_UNIT ( ) NAMED_UNIT ( * ) SI_UNIT ( $, .METRE. ) );
#235 = DIRECTION ( 'NONE',  ( -1.000000000000000000, -0.0000000000000000000, -0.0000000000000000000 ) ) ;
#236 = ORIENTED_EDGE ( 'NONE', *, *, #174, .F. ) ;
#237 = CIRCLE ( 'NONE', #165, 0.1720000000000000100 ) ;
#238 = CARTESIAN_POINT ( 'NONE',  ( -0.1591917095467278200, -0.1784012331795943000, 9.484417715851561500E-017 ) ) ;
#239 = EDGE_LOOP ( 'NONE', ( #236, #729, #432, #728 ) ) ;
#240 = FACE_OUTER_BOUND ( 'NONE', #316, .T. ) ;
#241 = EDGE_LOOP ( 'NONE', ( #40, #151, #133, #748 ) ) ;
#242 = DIRECTION ( 'NONE',  ( 1.000000000000000000, 0.0000000000000000000, -0.0000000000000000000 ) ) ;
#243 = EDGE_CURVE ( 'NONE', #658, #260, #792, .T. ) ;
#244 = ORIENTED_EDGE ( 'NONE', *, *, #522, .F. ) ;
#245 = CIRCLE ( 'NONE', #608, 0.08200000000000000300 ) ;
#246 = CARTESIAN_POINT ( 'NONE',  ( 0.3420000000000000300, 0.1768009248846957600, -0.002771815274538253600 ) ) ;
#247 = EDGE_LOOP ( 'NONE', ( #117 ) ) ;
#248 = LINE ( 'NONE', #246, #337 ) ;
#249 = AXIS2_PLACEMENT_3D ( 'NONE', #655, #331, #200 ) ;
#250 = VERTEX_POINT ( 'NONE', #113 ) ;
#251 = CIRCLE ( 'NONE', #64, 0.08550000000000000700 ) ;
#252 = DIRECTION ( 'NONE',  ( -1.000000000000000000, -0.0000000000000000000, -0.0000000000000000000 ) ) ;
#253 = ORIENTED_EDGE ( 'NONE', *, *, #413, .T. ) ;
#254 = SURFACE_STYLE_FILL_AREA ( #577 ) ;
#255 = ORIENTED_EDGE ( 'NONE', *, *, #332, .T. ) ;
#256 = ORIENTED_EDGE ( 'NONE', *, *, #78, .F. ) ;
#257 = FACE_BOUND ( 'NONE', #38, .T. ) ;
#258 = AXIS2_PLACEMENT_3D ( 'NONE', #625, #230, #696 ) ;
#259 = CARTESIAN_POINT ( 'NONE',  ( 0.4370000000000000000, 0.0000000000000000000, 0.0000000000000000000 ) ) ;
#260 = VERTEX_POINT ( 'NONE', #48 ) ;
#261 = DIRECTION ( 'NONE',  ( 0.0000000000000000000, 0.4999999999999998900, 0.8660254037844386000 ) ) ;
#262 = VERTEX_POINT ( 'NONE', #692 ) ;
#263 = ADVANCED_FACE ( 'NONE', ( #313 ), #175, .T. ) ;
#264 = ORIENTED_EDGE ( 'NONE', *, *, #587, .F. ) ;
#265 = ORIENTED_EDGE ( 'NONE', *, *, #215, .T. ) ;
#266 = DIRECTION ( 'NONE',  ( -1.000000000000000000, -0.0000000000000000000, -0.0000000000000000000 ) ) ;
#267 = CARTESIAN_POINT ( 'NONE',  ( 0.0000000000000000000, 0.07558935110185850700, -0.1544999999999998900 ) ) ;
#268 = FACE_OUTER_BOUND ( 'NONE', #299, .T. ) ;
#269 = CARTESIAN_POINT ( 'NONE',  ( 0.1049999999999999700, 0.0000000000000000000, 0.0000000000000000000 ) ) ;
#270 = ADVANCED_FACE ( 'NONE', ( #374 ), #401, .T. ) ;
#271 = AXIS2_PLACEMENT_3D ( 'NONE', #494, #794, #24 ) ;
#272 = AXIS2_PLACEMENT_3D ( 'NONE', #238, #379, #196 ) ;
#273 = PLANE ( 'NONE',  #520 ) ;
#274 = ORIENTED_EDGE ( 'NONE', *, *, #376, .F. ) ;
#275 = EDGE_CURVE ( 'NONE', #723, #260, #349, .T. ) ;
#276 = EDGE_LOOP ( 'NONE', ( #77 ) ) ;
#277 = FACE_OUTER_BOUND ( 'NONE', #170, .T. ) ;
#278 = CARTESIAN_POINT ( 'NONE',  ( 0.4370000000000000000, -0.1715956004356249700, -0.01178770169020919500 ) ) ;
#279 = MECHANICAL_DESIGN_GEOMETRIC_PRESENTATION_REPRESENTATION (  '', ( #560 ), #128 ) ;
#280 = CIRCLE ( 'NONE', #793, 0.1424999999999999900 ) ;
#281 = CARTESIAN_POINT ( 'NONE',  ( -0.1591917095467278200, -0.08920061658979715200, 0.1545000000000000300 ) ) ;
#282 = ORIENTED_EDGE ( 'NONE', *, *, #825, .F. ) ;
#283 = PRESENTATION_STYLE_ASSIGNMENT (( #630 ) ) ;
#284 = AXIS2_PLACEMENT_3D ( 'NONE', #378, #820, #453 ) ;
#285 = ORIENTED_EDGE ( 'NONE', *, *, #521, .F. ) ;
#286 = ORIENTED_EDGE ( 'NONE', *, *, #56, .T. ) ;
#287 = VECTOR ( 'NONE', #761, 39.37007874015748100 ) ;
#288 = ADVANCED_FACE ( 'NONE', ( #257, #421 ), #371, .T. ) ;
#289 = ORIENTED_EDGE ( 'NONE', *, *, #130, .F. ) ;
#290 = DIRECTION ( 'NONE',  ( 0.0000000000000000000, 0.0000000000000000000, 1.000000000000000000 ) ) ;
#291 =( LENGTH_UNIT ( ) NAMED_UNIT ( * ) SI_UNIT ( $, .METRE. ) );
#292 = AXIS2_PLACEMENT_3D ( 'NONE', #364, #806, #437 ) ;
#293 = CARTESIAN_POINT ( 'NONE',  ( 0.2870000000000000300, 0.0000000000000000000, 0.0000000000000000000 ) ) ;
#294 = CARTESIAN_POINT ( 'NONE',  ( 3.422887803616852000E-017, 0.0000000000000000000, 0.08550000000000000700 ) ) ;
#295 = DIRECTION ( 'NONE',  ( -1.000000000000000000, -0.0000000000000000000, -0.0000000000000000000 ) ) ;
#296 = DIRECTION ( 'NONE',  ( 0.0000000000000000000, 0.0000000000000000000, 1.000000000000000000 ) ) ;
#297 =( CONVERSION_BASED_UNIT ( 'INCH', #7 ) LENGTH_UNIT ( ) NAMED_UNIT ( #667 ) );
#298 = FACE_OUTER_BOUND ( 'NONE', #406, .T. ) ;
#299 = EDGE_LOOP ( 'NONE', ( #370, #642, #2, #256 ) ) ;
#300 = LINE ( 'NONE', #329, #16 ) ;
#301 = CARTESIAN_POINT ( 'NONE',  ( 0.3420000000000000300, 0.1768009248846958100, 0.002771815274538291400 ) ) ;
#302 = ORIENTED_EDGE ( 'NONE', *, *, #78, .T. ) ;
#303 = VERTEX_POINT ( 'NONE', #441 ) ;
#304 =( NAMED_UNIT ( * ) PLANE_ANGLE_UNIT ( ) SI_UNIT ( $, .RADIAN. ) );
#305 = CARTESIAN_POINT ( 'NONE',  ( 0.0000000000000000000, -0.07558935110185822900, 0.1545000000000000300 ) ) ;
#306 = MANIFOLD_SOLID_BREP ( 'Split1[1]', #467 ) ;
#307 = AXIS2_PLACEMENT_3D ( 'NONE', #835, #127, #588 ) ;
#308 = DIRECTION ( 'NONE',  ( 0.0000000000000000000, 0.0000000000000000000, 1.000000000000000000 ) ) ;
#309 = CARTESIAN_POINT ( 'NONE',  ( 0.4370000000000000000, 0.09600624933376654400, -0.1427122983097906300 ) ) ;
#310 = ADVANCED_FACE ( 'NONE', ( #328, #558 ), #539, .F. ) ;
#311 = CARTESIAN_POINT ( 'NONE',  ( 0.2670000000000000700, 0.0000000000000000000, 0.0000000000000000000 ) ) ;
#312 = EDGE_LOOP ( 'NONE', ( #274 ) ) ;
#313 = FACE_OUTER_BOUND ( 'NONE', #698, .T. ) ;
#314 = VERTEX_POINT ( 'NONE', #711 ) ;
#315 = VERTEX_POINT ( 'NONE', #42 ) ;
#316 = EDGE_LOOP ( 'NONE', ( #670 ) ) ;
#317 = CARTESIAN_POINT ( 'NONE',  ( 0.3420000000000000300, -0.1715956004356248600, 0.01178770169020956900 ) ) ;
#318 = ORIENTED_EDGE ( 'NONE', *, *, #800, .T. ) ;
#319 = DIMENSIONAL_EXPONENTS ( 1.000000000000000000, 0.0000000000000000000, 0.0000000000000000000, 0.0000000000000000000, 0.0000000000000000000, 0.0000000000000000000, 0.0000000000000000000 ) ;
#320 = CARTESIAN_POINT ( 'NONE',  ( 0.0000000000000000000, -0.07558935110185850700, -0.1544999999999998900 ) ) ;
#321 = DIRECTION ( 'NONE',  ( -1.000000000000000000, -0.0000000000000000000, -0.0000000000000000000 ) ) ;
#322 = ORIENTED_EDGE ( 'NONE', *, *, #96, .T. ) ;
#323 = VERTEX_POINT ( 'NONE', #509 ) ;
#324 = DIRECTION ( 'NONE',  ( -0.0000000000000000000, 0.4999999999999998900, 0.8660254037844386000 ) ) ;
#325 = EDGE_LOOP ( 'NONE', ( #12 ) ) ;
#326 = AXIS2_PLACEMENT_3D ( 'NONE', #542, #134, #593 ) ;
#327 = VERTEX_POINT ( 'NONE', #389 ) ;
#328 = FACE_OUTER_BOUND ( 'NONE', #55, .T. ) ;
#329 = CARTESIAN_POINT ( 'NONE',  ( 0.0000000000000000000, 0.09600624933376664100, 0.1427122983097904900 ) ) ;
#330 = AXIS2_PLACEMENT_3D ( 'NONE', #159, #614, #220 ) ;
#331 = DIRECTION ( 'NONE',  ( -1.000000000000000000, -0.0000000000000000000, -0.0000000000000000000 ) ) ;
#332 = EDGE_CURVE ( 'NONE', #314, #327, #497, .T. ) ;
#333 = ADVANCED_FACE ( 'NONE', ( #546, #486 ), #831, .T. ) ;
#334 = VERTEX_POINT ( 'NONE', #317 ) ;
#335 = VERTEX_POINT ( 'NONE', #372 ) ;
#336 = ORIENTED_EDGE ( 'NONE', *, *, #596, .T. ) ;
#337 = VECTOR ( 'NONE', #324, 39.37007874015748100 ) ;
#338 = DIRECTION ( 'NONE',  ( 0.0000000000000000000, 0.0000000000000000000, 1.000000000000000000 ) ) ;
#339 = FACE_OUTER_BOUND ( 'NONE', #535, .T. ) ;
#340 = STYLED_ITEM ( 'NONE', ( #393 ), #306 ) ;
#341 = VECTOR ( 'NONE', #43, 39.37007874015748100 ) ;
#342 = CIRCLE ( 'NONE', #184, 0.09499999999999998700 ) ;
#343 = PLANE ( 'NONE',  #810 ) ;
#344 = AXIS2_PLACEMENT_3D ( 'NONE', #778, #407, #3 ) ;
#345 = EDGE_CURVE ( 'NONE', #457, #457, #533, .T. ) ;
#346 = ORIENTED_EDGE ( 'NONE', *, *, #215, .F. ) ;
#347 = DIRECTION ( 'NONE',  ( -1.000000000000000000, -0.0000000000000000000, -0.0000000000000000000 ) ) ;
#348 = EDGE_LOOP ( 'NONE', ( #409 ) ) ;
#349 = CIRCLE ( 'NONE', #232, 0.1720000000000000100 ) ;
#350 = DIMENSIONAL_EXPONENTS ( 1.000000000000000000, 0.0000000000000000000, 0.0000000000000000000, 0.0000000000000000000, 0.0000000000000000000, 0.0000000000000000000, 0.0000000000000000000 ) ;
#351 = COLOUR_RGB ( '',0.7921568627450980000, 0.8196078431372548800, 0.9333333333333333500 ) ;
#352 = DIRECTION ( 'NONE',  ( 0.0000000000000000000, 0.0000000000000000000, 1.000000000000000000 ) ) ;
#353 = CARTESIAN_POINT ( 'NONE',  ( 0.4370000000000000000, -0.09600624933376660000, 0.1427122983097905400 ) ) ;
#354 = VECTOR ( 'NONE', #448, 39.37007874015748100 ) ;
#355 = DIRECTION ( 'NONE',  ( 0.0000000000000000000, 0.0000000000000000000, -1.000000000000000000 ) ) ;
#356 = EDGE_CURVE ( 'NONE', #456, #765, #508, .T. ) ;
#357 = ORIENTED_EDGE ( 'NONE', *, *, #822, .T. ) ;
#358 = DIRECTION ( 'NONE',  ( 1.000000000000000000, 0.0000000000000000000, 0.0000000000000000000 ) ) ;
#359 = ORIENTED_EDGE ( 'NONE', *, *, #103, .T. ) ;
#360 = DIRECTION ( 'NONE',  ( -1.000000000000000000, -0.0000000000000000000, -0.0000000000000000000 ) ) ;
#361 = LINE ( 'NONE', #619, #513 ) ;
#362 = DIRECTION ( 'NONE',  ( 0.0000000000000000000, -0.8660254037844386000, 0.5000000000000001100 ) ) ;
#363 = DIRECTION ( 'NONE',  ( -1.000000000000000000, -0.0000000000000000000, -0.0000000000000000000 ) ) ;
#364 = CARTESIAN_POINT ( 'NONE',  ( 0.4370000000000000000, 0.0000000000000000000, 0.0000000000000000000 ) ) ;
#365 = EDGE_LOOP ( 'NONE', ( #395 ) ) ;
#366 = EDGE_CURVE ( 'NONE', #27, #27, #581, .T. ) ;
#367 = DIRECTION ( 'NONE',  ( 0.0000000000000000000, 0.0000000000000000000, 1.000000000000000000 ) ) ;
#368 = ORIENTED_EDGE ( 'NONE', *, *, #22, .T. ) ;
#369 = CARTESIAN_POINT ( 'NONE',  ( 0.3420000000000000300, 0.1715956004356249100, 0.01178770169020966500 ) ) ;
#370 = ORIENTED_EDGE ( 'NONE', *, *, #771, .T. ) ;
#371 = CONICAL_SURFACE ( 'NONE', #210, 0.1060000000000000000, 0.5235987755982999300 ) ;
#372 = CARTESIAN_POINT ( 'NONE',  ( 0.1870000000000000600, 0.0000000000000000000, -0.1060000000000000000 ) ) ;
#373 = EDGE_LOOP ( 'NONE', ( #225 ) ) ;
#374 = FACE_OUTER_BOUND ( 'NONE', #414, .T. ) ;
#375 =( NAMED_UNIT ( * ) SI_UNIT ( $, .STERADIAN. ) SOLID_ANGLE_UNIT ( ) );
#376 = EDGE_CURVE ( 'NONE', #335, #335, #538, .T. ) ;
#377 = AXIS2_PLACEMENT_3D ( 'NONE', #161, #615, #221 ) ;
#378 = CARTESIAN_POINT ( 'NONE',  ( 0.4370000000000000000, 0.0000000000000000000, 0.0000000000000000000 ) ) ;
#379 = DIRECTION ( 'NONE',  ( 0.0000000000000000000, -0.8660254037844388200, -0.4999999999999997200 ) ) ;
#380 = AXIS2_PLACEMENT_3D ( 'NONE', #780, #601, #203 ) ;
#381 = EDGE_LOOP ( 'NONE', ( #265 ) ) ;
#382 = EDGE_LOOP ( 'NONE', ( #436, #498, #25, #139 ) ) ;
#383 = VECTOR ( 'NONE', #425, 39.37007874015748100 ) ;
#384 = DIRECTION ( 'NONE',  ( -1.000000000000000000, -0.0000000000000000000, -0.0000000000000000000 ) ) ;
#385 = EDGE_LOOP ( 'NONE', ( #302, #28, #219, #208, #206, #197, #199, #158, #178, #176, #160, #465 ) ) ;
#386 = SURFACE_STYLE_FILL_AREA ( #387 ) ;
#387 = FILL_AREA_STYLE ('',( #763 ) ) ;
#388 = AXIS2_PLACEMENT_3D ( 'NONE', #632, #235, #702 ) ;
#389 = CARTESIAN_POINT ( 'NONE',  ( 0.4370000000000000000, 0.09600624933376671100, 0.1427122983097905100 ) ) ;
#390 = EDGE_LOOP ( 'NONE', ( #142 ) ) ;
#391 = ORIENTED_EDGE ( 'NONE', *, *, #39, .T. ) ;
#392 = ORIENTED_EDGE ( 'NONE', *, *, #534, .T. ) ;
#393 = PRESENTATION_STYLE_ASSIGNMENT (( #455 ) ) ;
#394 = CARTESIAN_POINT ( 'NONE',  ( 0.3420000000000000300, 0.1715956004356248600, -0.01178770169020946700 ) ) ;
#395 = ORIENTED_EDGE ( 'NONE', *, *, #130, .T. ) ;
#396 = LINE ( 'NONE', #555, #484 ) ;
#397 = DIRECTION ( 'NONE',  ( 0.0000000000000000000, 0.0000000000000000000, 1.000000000000000000 ) ) ;
#398 = PLANE ( 'NONE',  #156 ) ;
#399 = CARTESIAN_POINT ( 'NONE',  ( 0.2870000000000000300, 0.09499999999999998700, 0.0000000000000000000 ) ) ;
#400 = ADVANCED_FACE ( 'NONE', ( #475, #277 ), #185, .F. ) ;
#401 = CYLINDRICAL_SURFACE ( 'NONE', #428, 0.1720000000000000100 ) ;
#402 = ORIENTED_EDGE ( 'NONE', *, *, #104, .F. ) ;
#403 = DIRECTION ( 'NONE',  ( -1.000000000000000000, -0.0000000000000000000, -0.0000000000000000000 ) ) ;
#404 = ORIENTED_EDGE ( 'NONE', *, *, #442, .T. ) ;
#405 = FACE_OUTER_BOUND ( 'NONE', #325, .T. ) ;
#406 = EDGE_LOOP ( 'NONE', ( #742 ) ) ;
#407 = DIRECTION ( 'NONE',  ( 1.000000000000000000, 0.0000000000000000000, 0.0000000000000000000 ) ) ;
#408 = CARTESIAN_POINT ( 'NONE',  ( 0.4370000000000000000, 0.0000000000000000000, 0.0000000000000000000 ) ) ;
#409 = ORIENTED_EDGE ( 'NONE', *, *, #345, .F. ) ;
#410 = DIRECTION ( 'NONE',  ( 0.0000000000000000000, 0.8660254037844387100, -0.4999999999999999400 ) ) ;
#411 = VERTEX_POINT ( 'NONE', #394 ) ;
#412 = TOROIDAL_SURFACE ( 'NONE', #651, 0.2559999999999999500, 0.1499999999999999900 ) ;
#413 = EDGE_CURVE ( 'NONE', #733, #411, #248, .T. ) ;
#414 = EDGE_LOOP ( 'NONE', ( #510, #666, #766, #392 ) ) ;
#415 = DIRECTION ( 'NONE',  ( -1.000000000000000000, -0.0000000000000000000, -0.0000000000000000000 ) ) ;
#416 = SURFACE_STYLE_USAGE ( .BOTH. , #785 ) ;
#417 = FACE_OUTER_BOUND ( 'NONE', #382, .T. ) ;
#418 = CYLINDRICAL_SURFACE ( 'NONE', #466, 0.1720000000000000100 ) ;
#419 = DIRECTION ( 'NONE',  ( -1.000000000000000000, 0.0000000000000000000, -0.0000000000000000000 ) ) ;
#420 = ORIENTED_EDGE ( 'NONE', *, *, #177, .T. ) ;
#421 = FACE_OUTER_BOUND ( 'NONE', #68, .T. ) ;
#422 = ORIENTED_EDGE ( 'NONE', *, *, #345, .T. ) ;
#423 = LINE ( 'NONE', #30, #383 ) ;
#424 = AXIS2_PLACEMENT_3D ( 'NONE', #408, #9, #480 ) ;
#425 = DIRECTION ( 'NONE',  ( 0.0000000000000000000, 1.000000000000000000, 0.0000000000000000000 ) ) ;
#426 = FACE_OUTER_BOUND ( 'NONE', #312, .T. ) ;
#427 = CARTESIAN_POINT ( 'NONE',  ( 0.0000000000000000000, 0.07558935110185822900, 0.1545000000000000300 ) ) ;
#428 = AXIS2_PLACEMENT_3D ( 'NONE', #173, #384, #308 ) ;
#429 = DIRECTION ( 'NONE',  ( 0.0000000000000000000, -0.5000000000000002200, -0.8660254037844386000 ) ) ;
#430 = ORIENTED_EDGE ( 'NONE', *, *, #103, .F. ) ;
#431 = CARTESIAN_POINT ( 'NONE',  ( 0.1870000000000000600, 0.0000000000000000000, 0.0000000000000000000 ) ) ;
#432 = ORIENTED_EDGE ( 'NONE', *, *, #356, .F. ) ;
#433 = VERTEX_POINT ( 'NONE', #624 ) ;
#434 = ORIENTED_EDGE ( 'NONE', *, *, #366, .T. ) ;
#435 = VERTEX_POINT ( 'NONE', #167 ) ;
#436 = ORIENTED_EDGE ( 'NONE', *, *, #356, .T. ) ;
#437 = DIRECTION ( 'NONE',  ( 0.0000000000000000000, 0.0000000000000000000, 1.000000000000000000 ) ) ;
#438 = DIRECTION ( 'NONE',  ( 0.0000000000000000000, 0.0000000000000000000, -1.000000000000000000 ) ) ;
#439 = AXIS2_PLACEMENT_3D ( 'NONE', #281, #362, #799 ) ;
#440 = ADVANCED_FACE ( 'NONE', ( #476 ), #398, .T. ) ;
#441 = CARTESIAN_POINT ( 'NONE',  ( 0.2670000000000000700, 0.0000000000000000000, -0.08199999999999999000 ) ) ;
#442 = EDGE_CURVE ( 'NONE', #29, #29, #227, .T. ) ;
#443 = CARTESIAN_POINT ( 'NONE',  ( 0.0000000000000000000, -0.09600624933376647500, -0.1427122983097906300 ) ) ;
#444 = APPLICATION_PROTOCOL_DEFINITION ( 'draft international standard', 'automotive_design', 1998, #514 ) ;
#445 = VECTOR ( 'NONE', #746, 39.37007874015748900 ) ;
#446 = CARTESIAN_POINT ( 'NONE',  ( 0.2670000000000000700, 0.0000000000000000000, 0.0000000000000000000 ) ) ;
#447 = FACE_BOUND ( 'NONE', #373, .T. ) ;
#448 = DIRECTION ( 'NONE',  ( 0.0000000000000000000, 0.4999999999999998300, -0.8660254037844388200 ) ) ;
#449 = ORIENTED_EDGE ( 'NONE', *, *, #817, .T. ) ;
#450 = FACE_OUTER_BOUND ( 'NONE', #241, .T. ) ;
#451 = DIRECTION ( 'NONE',  ( 1.000000000000000000, 0.0000000000000000000, 0.0000000000000000000 ) ) ;
#452 = VERTEX_POINT ( 'NONE', #572 ) ;
#453 = DIRECTION ( 'NONE',  ( 0.0000000000000000000, 0.0000000000000000000, 1.000000000000000000 ) ) ;
#454 = DIRECTION ( 'NONE',  ( 0.0000000000000000000, 0.0000000000000000000, 1.000000000000000000 ) ) ;
#455 = SURFACE_STYLE_USAGE ( .BOTH. , #827 ) ;
#456 = VERTEX_POINT ( 'NONE', #591 ) ;
#457 = VERTEX_POINT ( 'NONE', #294 ) ;
#458 = SHAPE_DEFINITION_REPRESENTATION ( #682, #804 ) ;
#459 = ORIENTED_EDGE ( 'NONE', *, *, #111, .F. ) ;
#460 = ORIENTED_EDGE ( 'NONE', *, *, #817, .F. ) ;
#461 = CARTESIAN_POINT ( 'NONE',  ( 3.422887803616852000E-017, 0.0000000000000000000, 0.0000000000000000000 ) ) ;
#462 = CARTESIAN_POINT ( 'NONE',  ( 0.1870000000000000600, 0.0000000000000000000, 0.0000000000000000000 ) ) ;
#463 = CARTESIAN_POINT ( 'NONE',  ( 0.07249999999999999500, 0.0000000000000000000, 0.0000000000000000000 ) ) ;
#464 = DIRECTION ( 'NONE',  ( 0.0000000000000000000, -0.4999999999999998300, 0.8660254037844386000 ) ) ;
#465 = ORIENTED_EDGE ( 'NONE', *, *, #580, .F. ) ;
#466 = AXIS2_PLACEMENT_3D ( 'NONE', #481, #266, #784 ) ;
#467 = CLOSED_SHELL ( 'NONE', ( #567, #19, #36, #609, #440, #263, #786, #169, #490, #805, #543, #148, #506, #599, #193, #270, #616, #8, #719 ) ) ;
#468 = CARTESIAN_POINT ( 'NONE',  ( 0.0000000000000000000, 0.0000000000000000000, 0.0000000000000000000 ) ) ;
#469 = ORIENTED_EDGE ( 'NONE', *, *, #656, .T. ) ;
#470 = CARTESIAN_POINT ( 'NONE',  ( 0.4370000000000000000, 0.0000000000000000000, 0.0000000000000000000 ) ) ;
#471 = AXIS2_PLACEMENT_3D ( 'NONE', #603, #347, #147 ) ;
#472 = CIRCLE ( 'NONE', #377, 0.1720000000000000100 ) ;
#473 = AXIS2_PLACEMENT_3D ( 'NONE', #641, #754, #62 ) ;
#474 = ORIENTED_EDGE ( 'NONE', *, *, #477, .F. ) ;
#475 = FACE_BOUND ( 'NONE', #679, .T. ) ;
#476 = FACE_OUTER_BOUND ( 'NONE', #690, .T. ) ;
#477 = EDGE_CURVE ( 'NONE', #677, #327, #300, .T. ) ;
#478 = EDGE_LOOP ( 'NONE', ( #722, #459, #76, #715 ) ) ;
#479 = ORIENTED_EDGE ( 'NONE', *, *, #73, .F. ) ;
#480 = DIRECTION ( 'NONE',  ( 0.0000000000000000000, 0.0000000000000000000, 1.000000000000000000 ) ) ;
#481 = CARTESIAN_POINT ( 'NONE',  ( 0.0000000000000000000, 0.0000000000000000000, 0.0000000000000000000 ) ) ;
#482 = AXIS2_PLACEMENT_3D ( 'NONE', #714, #321, #768 ) ;
#483 = EDGE_CURVE ( 'NONE', #303, #303, #561, .T. ) ;
#484 = VECTOR ( 'NONE', #735, 39.37007874015748100 ) ;
#485 = ORIENTED_EDGE ( 'NONE', *, *, #777, .F. ) ;
#486 = FACE_OUTER_BOUND ( 'NONE', #662, .T. ) ;
#487 =( CONVERSION_BASED_UNIT ( 'INCH', #523 ) LENGTH_UNIT ( ) NAMED_UNIT ( #209 ) );
#488 = ORIENTED_EDGE ( 'NONE', *, *, #726, .F. ) ;
#489 = FACE_BOUND ( 'NONE', #84, .T. ) ;
#490 = ADVANCED_FACE ( 'NONE', ( #447, #240 ), #773, .F. ) ;
#491 = ORIENTED_EDGE ( 'NONE', *, *, #596, .F. ) ;
#492 = CARTESIAN_POINT ( 'NONE',  ( 0.3420000000000000300, 0.1720000000000000100, -0.1544999999999998900 ) ) ;
#493 = AXIS2_PLACEMENT_3D ( 'NONE', #502, #808, #438 ) ;
#494 = CARTESIAN_POINT ( 'NONE',  ( 0.0000000000000000000, 0.0000000000000000000, 0.0000000000000000000 ) ) ;
#495 = VERTEX_POINT ( 'NONE', #65 ) ;
#496 = CARTESIAN_POINT ( 'NONE',  ( 0.0000000000000000000, 0.0000000000000000000, 0.0000000000000000000 ) ) ;
#497 = CIRCLE ( 'NONE', #532, 0.1720000000000000100 ) ;
#498 = ORIENTED_EDGE ( 'NONE', *, *, #726, .T. ) ;
#499 = ORIENTED_EDGE ( 'NONE', *, *, #521, .T. ) ;
#500 = DIRECTION ( 'NONE',  ( 0.0000000000000000000, -0.5000000000000001100, -0.8660254037844386000 ) ) ;
#501 = DIRECTION ( 'NONE',  ( 0.0000000000000000000, 0.0000000000000000000, 1.000000000000000000 ) ) ;
#502 = CARTESIAN_POINT ( 'NONE',  ( 0.3420000000000000300, 0.1720000000000000100, 0.0000000000000000000 ) ) ;
#503 = EDGE_CURVE ( 'NONE', #315, #315, #245, .T. ) ;
#504 = LINE ( 'NONE', #803, #821 ) ;
#505 = DIRECTION ( 'NONE',  ( 0.0000000000000000000, 0.0000000000000000000, 1.000000000000000000 ) ) ;
#506 = ADVANCED_FACE ( 'NONE', ( #450 ), #659, .T. ) ;
#507 = VERTEX_POINT ( 'NONE', #598 ) ;
#508 = LINE ( 'NONE', #320, #536 ) ;
#509 = CARTESIAN_POINT ( 'NONE',  ( 0.1759122333409323400, 0.0000000000000000000, 0.1060000000000000000 ) ) ;
#510 = ORIENTED_EDGE ( 'NONE', *, *, #621, .F. ) ;
#511 = FACE_OUTER_BOUND ( 'NONE', #385, .T. ) ;
#512 = DIRECTION ( 'NONE',  ( -1.000000000000000000, -0.0000000000000000000, -0.0000000000000000000 ) ) ;
#513 = VECTOR ( 'NONE', #363, 39.37007874015748100 ) ;
#514 = APPLICATION_CONTEXT ( 'automotive_design' ) ;
#515 = DIRECTION ( 'NONE',  ( 0.0000000000000000000, 0.0000000000000000000, -1.000000000000000000 ) ) ;
#516 = DIRECTION ( 'NONE',  ( 0.0000000000000000000, 0.0000000000000000000, 1.000000000000000000 ) ) ;
#517 = APPLICATION_CONTEXT ( 'automotive_design' ) ;
#518 = CARTESIAN_POINT ( 'NONE',  ( -0.1591917095467278200, 0.08920061658979724900, 0.1545000000000000300 ) ) ;
#519 = DIRECTION ( 'NONE',  ( 0.0000000000000000000, 0.0000000000000000000, 1.000000000000000000 ) ) ;
#520 = AXIS2_PLACEMENT_3D ( 'NONE', #790, #419, #23 ) ;
#521 = EDGE_CURVE ( 'NONE', #323, #323, #47, .T. ) ;
#522 = EDGE_CURVE ( 'NONE', #495, #334, #618, .T. ) ;
#523 = LENGTH_MEASURE_WITH_UNIT ( LENGTH_MEASURE( 0.02539999999999999900 ), #21 );
#524 = CIRCLE ( 'NONE', #672, 0.1720000000000000100 ) ;
#525 =( CONVERSION_BASED_UNIT ( 'INCH', #545 ) LENGTH_UNIT ( ) NAMED_UNIT ( #350 ) );
#526 = DIRECTION ( 'NONE',  ( -1.000000000000000000, -0.0000000000000000000, -0.0000000000000000000 ) ) ;
#527 = MECHANICAL_DESIGN_GEOMETRIC_PRESENTATION_REPRESENTATION (  '', ( #340 ), #217 ) ;
#528 = UNCERTAINTY_MEASURE_WITH_UNIT (LENGTH_MEASURE( 1.000000000000000100E-005 ), #487, 'distance_accuracy_value', 'NONE');
#529 = CARTESIAN_POINT ( 'NONE',  ( 0.4370000000000000000, 0.0000000000000000000, 0.0000000000000000000 ) ) ;
#530 = CYLINDRICAL_SURFACE ( 'NONE', #135, 0.1720000000000000100 ) ;
#531 = DIRECTION ( 'NONE',  ( 0.0000000000000000000, 0.0000000000000000000, 1.000000000000000000 ) ) ;
#532 = AXIS2_PLACEMENT_3D ( 'NONE', #529, #122, #585 ) ;
#533 = CIRCLE ( 'NONE', #694, 0.08550000000000000700 ) ;
#534 = EDGE_CURVE ( 'NONE', #67, #132, #237, .T. ) ;
#535 = EDGE_LOOP ( 'NONE', ( #434 ) ) ;
#536 = VECTOR ( 'NONE', #125, 39.37007874015748100 ) ;
#537 = DIRECTION ( 'NONE',  ( 0.0000000000000000000, 0.0000000000000000000, -1.000000000000000000 ) ) ;
#538 = CIRCLE ( 'NONE', #592, 0.1060000000000000000 ) ;
#539 = CYLINDRICAL_SURFACE ( 'NONE', #63, 0.08199999999999999000 ) ;
#540 = DIRECTION ( 'NONE',  ( 1.000000000000000000, 0.0000000000000000000, 0.0000000000000000000 ) ) ;
#541 = CARTESIAN_POINT ( 'NONE',  ( 0.3420000000000000300, -0.09600624933376673800, 0.1427122983097904600 ) ) ;
#542 = CARTESIAN_POINT ( 'NONE',  ( 0.2670000000000000700, 0.0000000000000000000, 0.0000000000000000000 ) ) ;
#543 = ADVANCED_FACE ( 'NONE', ( #708, #298 ), #838, .F. ) ;
#544 = DIRECTION ( 'NONE',  ( 0.0000000000000000000, 0.0000000000000000000, 1.000000000000000000 ) ) ;
#545 = LENGTH_MEASURE_WITH_UNIT ( LENGTH_MEASURE( 0.02539999999999999900 ), #54 );
#546 = FACE_BOUND ( 'NONE', #759, .T. ) ;
#547 = CARTESIAN_POINT ( 'NONE',  ( 0.3420000000000000300, 0.0000000000000000000, 0.0000000000000000000 ) ) ;
#548 = DIRECTION ( 'NONE',  ( 0.0000000000000000000, -0.4999999999999998300, 0.8660254037844388200 ) ) ;
#549 = FACE_OUTER_BOUND ( 'NONE', #381, .T. ) ;
#550 = CARTESIAN_POINT ( 'NONE',  ( 0.3420000000000000300, 0.1720000000000000100, 0.1545000000000000300 ) ) ;
#551 = DIRECTION ( 'NONE',  ( 0.0000000000000000000, 0.0000000000000000000, 1.000000000000000000 ) ) ;
#552 = EDGE_CURVE ( 'NONE', #121, #327, #650, .T. ) ;
#553 = LENGTH_MEASURE_WITH_UNIT ( LENGTH_MEASURE( 0.02539999999999999900 ), #234 );
#554 = CIRCLE ( 'NONE', #330, 0.1720000000000000100 ) ;
#555 = CARTESIAN_POINT ( 'NONE',  ( 0.0000000000000000000, -0.09600624933376657200, 0.1427122983097905400 ) ) ;
#556 =( NAMED_UNIT ( * ) SI_UNIT ( $, .STERADIAN. ) SOLID_ANGLE_UNIT ( ) );
#557 = AXIS2_PLACEMENT_3D ( 'NONE', #547, #137, #600 ) ;
#558 = FACE_OUTER_BOUND ( 'NONE', #91, .T. ) ;
#559 = CARTESIAN_POINT ( 'NONE',  ( 0.0000000000000000000, -0.1715956004356249400, -0.01178770169020918600 ) ) ;
#560 = STYLED_ITEM ( 'NONE', ( #586 ), #663 ) ;
#561 = CIRCLE ( 'NONE', #326, 0.08199999999999999000 ) ;
#562 = CIRCLE ( 'NONE', #720, 0.1050000000000000000 ) ;
#563 = CARTESIAN_POINT ( 'NONE',  ( 0.0000000000000000000, 0.0000000000000000000, 0.0000000000000000000 ) ) ;
#564 = DIRECTION ( 'NONE',  ( 0.0000000000000000000, 0.0000000000000000000, 1.000000000000000000 ) ) ;
#565 = AXIS2_PLACEMENT_3D ( 'NONE', #576, #512, #171 ) ;
#566 = CARTESIAN_POINT ( 'NONE',  ( 0.0000000000000000000, 0.0000000000000000000, 0.0000000000000000000 ) ) ;
#567 = ADVANCED_FACE ( 'NONE', ( #830, #678 ), #141, .F. ) ;
#568 = DIRECTION ( 'NONE',  ( -1.000000000000000000, 0.0000000000000000000, -0.0000000000000000000 ) ) ;
#569 = DIRECTION ( 'NONE',  ( -1.000000000000000000, -0.0000000000000000000, -0.0000000000000000000 ) ) ;
#570 = CIRCLE ( 'NONE', #292, 0.1720000000000000100 ) ;
#571 = LINE ( 'NONE', #747, #445 ) ;
#572 = CARTESIAN_POINT ( 'NONE',  ( 0.07249999999999999500, 0.0000000000000000000, 0.1424999999999999900 ) ) ;
#573 = AXIS2_PLACEMENT_3D ( 'NONE', #518, #634, #242 ) ;
#574 = DIRECTION ( 'NONE',  ( -1.000000000000000000, -0.0000000000000000000, -0.0000000000000000000 ) ) ;
#575 = CARTESIAN_POINT ( 'NONE',  ( 0.1870000000000000600, 0.0000000000000000000, 0.1200000000000000000 ) ) ;
#576 = CARTESIAN_POINT ( 'NONE',  ( 0.0000000000000000000, 0.0000000000000000000, 0.0000000000000000000 ) ) ;
#577 = FILL_AREA_STYLE ('',( #107 ) ) ;
#578 = PLANE ( 'NONE',  #272 ) ;
#579 = COLOUR_RGB ( '',0.7921568627450980000, 0.8196078431372548800, 0.9333333333333333500 ) ;
#580 = EDGE_CURVE ( 'NONE', #739, #207, #789, .T. ) ;
#581 = CIRCLE ( 'NONE', #482, 0.09499999999999998700 ) ;
#582 = CARTESIAN_POINT ( 'NONE',  ( 0.4370000000000000000, 0.0000000000000000000, 0.0000000000000000000 ) ) ;
#583 =( NAMED_UNIT ( * ) SI_UNIT ( $, .STERADIAN. ) SOLID_ANGLE_UNIT ( ) );
#584 = LINE ( 'NONE', #31, #712 ) ;
#585 = DIRECTION ( 'NONE',  ( 0.0000000000000000000, 0.0000000000000000000, 1.000000000000000000 ) ) ;
#586 = PRESENTATION_STYLE_ASSIGNMENT (( #416 ) ) ;
#587 = EDGE_CURVE ( 'NONE', #67, #6, #717, .T. ) ;
#588 = DIRECTION ( 'NONE',  ( 0.0000000000000000000, 0.0000000000000000000, -1.000000000000000000 ) ) ;
#589 = UNCERTAINTY_MEASURE_WITH_UNIT (LENGTH_MEASURE( 1.000000000000000100E-005 ), #701, 'distance_accuracy_value', 'NONE');
#590 = CIRCLE ( 'NONE', #258, 0.1720000000000000100 ) ;
#591 = CARTESIAN_POINT ( 'NONE',  ( 0.4370000000000000000, -0.07558935110185850700, -0.1544999999999998900 ) ) ;
#592 = AXIS2_PLACEMENT_3D ( 'NONE', #462, #61, #537 ) ;
#593 = DIRECTION ( 'NONE',  ( 0.0000000000000000000, 0.0000000000000000000, -1.000000000000000000 ) ) ;
#594 = LINE ( 'NONE', #492, #86 ) ;
#595 = LINE ( 'NONE', #443, #341 ) ;
#596 = EDGE_CURVE ( 'NONE', #807, #658, #841, .T. ) ;
#597 = FACE_OUTER_BOUND ( 'NONE', #247, .T. ) ;
#598 = CARTESIAN_POINT ( 'NONE',  ( 0.3420000000000000300, 0.07558935110185849300, -0.1544999999999998900 ) ) ;
#599 = ADVANCED_FACE ( 'NONE', ( #818 ), #836, .T. ) ;
#600 = DIRECTION ( 'NONE',  ( 0.0000000000000000000, 0.0000000000000000000, 1.000000000000000000 ) ) ;
#601 = DIRECTION ( 'NONE',  ( 1.000000000000000000, 0.0000000000000000000, 0.0000000000000000000 ) ) ;
#602 = DIRECTION ( 'NONE',  ( 0.0000000000000000000, -1.000000000000000000, 0.0000000000000000000 ) ) ;
#603 = CARTESIAN_POINT ( 'NONE',  ( 0.0000000000000000000, 0.0000000000000000000, 0.0000000000000000000 ) ) ;
#604 = AXIS2_PLACEMENT_3D ( 'NONE', #468, #403, #776 ) ;
#605 = CARTESIAN_POINT ( 'NONE',  ( 0.3420000000000000300, -0.07558935110185822900, 0.1545000000000000300 ) ) ;
#606 = FACE_OUTER_BOUND ( 'NONE', #109, .T. ) ;
#607 = DIRECTION ( 'NONE',  ( -0.0000000000000000000, 1.000000000000000000, 0.0000000000000000000 ) ) ;
#608 = AXIS2_PLACEMENT_3D ( 'NONE', #470, #69, #544 ) ;
#609 = ADVANCED_FACE ( 'NONE', ( #787 ), #343, .T. ) ;
#610 = CARTESIAN_POINT ( 'NONE',  ( 0.1049999999999999700, 0.08550000000000000700, 0.0000000000000000000 ) ) ;
#611 = CARTESIAN_POINT ( 'NONE',  ( 3.073863465859856500E-017, 0.1424999999999999900, 0.0000000000000000000 ) ) ;
#612 = CYLINDRICAL_SURFACE ( 'NONE', #87, 0.1200000000000000000 ) ;
#613 = CIRCLE ( 'NONE', #657, 0.1720000000000000100 ) ;
#614 = DIRECTION ( 'NONE',  ( -1.000000000000000000, -0.0000000000000000000, -0.0000000000000000000 ) ) ;
#615 = DIRECTION ( 'NONE',  ( -1.000000000000000000, -0.0000000000000000000, -0.0000000000000000000 ) ) ;
#616 = ADVANCED_FACE ( 'NONE', ( #816 ), #418, .T. ) ;
#617 = CARTESIAN_POINT ( 'NONE',  ( 0.0000000000000000000, 0.1715956004356249400, -0.01178770169020931400 ) ) ;
#618 = CIRCLE ( 'NONE', #557, 0.1720000000000000100 ) ;
#619 = CARTESIAN_POINT ( 'NONE',  ( 0.0000000000000000000, 0.09600624933376651600, -0.1427122983097906000 ) ) ;
#620 = DIRECTION ( 'NONE',  ( 0.0000000000000000000, -1.000000000000000000, 0.0000000000000000000 ) ) ;
#621 = EDGE_CURVE ( 'NONE', #507, #132, #782, .T. ) ;
#622 = ADVANCED_FACE ( 'NONE', ( #405, #721 ), #814, .F. ) ;
#623 = CARTESIAN_POINT ( 'NONE',  ( 0.4370000000000000000, -0.1784012331795943000, 9.484417715851561500E-017 ) ) ;
#624 = CARTESIAN_POINT ( 'NONE',  ( 0.2870000000000000300, 0.0000000000000000000, 0.1050000000000000000 ) ) ;
#625 = CARTESIAN_POINT ( 'NONE',  ( 0.3420000000000000300, 0.0000000000000000000, 0.0000000000000000000 ) ) ;
#626 = CARTESIAN_POINT ( 'NONE',  ( 0.0000000000000000000, 0.0000000000000000000, 0.0000000000000000000 ) ) ;
#627 = FACE_OUTER_BOUND ( 'NONE', #4, .T. ) ;
#628 = CARTESIAN_POINT ( 'NONE',  ( 0.0000000000000000000, 0.0000000000000000000, 0.0000000000000000000 ) ) ;
#629 = VERTEX_POINT ( 'NONE', #37 ) ;
#630 = SURFACE_STYLE_USAGE ( .BOTH. , #172 ) ;
#631 = FACE_OUTER_BOUND ( 'NONE', #92, .T. ) ;
#632 = CARTESIAN_POINT ( 'NONE',  ( 0.2670000000000000700, 0.0000000000000000000, 0.0000000000000000000 ) ) ;
#633 = AXIS2_PLACEMENT_3D ( 'NONE', #97, #569, #166 ) ;
#634 = DIRECTION ( 'NONE',  ( 0.0000000000000000000, 0.0000000000000000000, 1.000000000000000000 ) ) ;
#635 = STYLED_ITEM ( 'NONE', ( #283 ), #804 ) ;
#636 = FACE_BOUND ( 'NONE', #52, .T. ) ;
#637 = DIRECTION ( 'NONE',  ( 0.0000000000000000000, 0.0000000000000000000, 1.000000000000000000 ) ) ;
#638 = FACE_OUTER_BOUND ( 'NONE', #724, .T. ) ;
#639 = FACE_BOUND ( 'NONE', #390, .T. ) ;
#640 = DIRECTION ( 'NONE',  ( 0.0000000000000000000, 0.0000000000000000000, 1.000000000000000000 ) ) ;
#641 = CARTESIAN_POINT ( 'NONE',  ( 0.0000000000000000000, 0.0000000000000000000, 0.0000000000000000000 ) ) ;
#642 = ORIENTED_EDGE ( 'NONE', *, *, #833, .T. ) ;
#643 = CIRCLE ( 'NONE', #194, 0.1200000000000000000 ) ;
#644 = DIRECTION ( 'NONE',  ( 0.0000000000000000000, 0.0000000000000000000, -1.000000000000000000 ) ) ;
#645 = DIRECTION ( 'NONE',  ( -1.000000000000000000, -0.0000000000000000000, -0.0000000000000000000 ) ) ;
#646 = FACE_OUTER_BOUND ( 'NONE', #478, .T. ) ;
#647 = AXIS2_PLACEMENT_3D ( 'NONE', #611, #358, #796 ) ;
#648 = VERTEX_POINT ( 'NONE', #575 ) ;
#649 = CARTESIAN_POINT ( 'NONE',  ( 2.724839128102861000E-017, 0.0000000000000000000, 0.0000000000000000000 ) ) ;
#650 = LINE ( 'NONE', #72, #660 ) ;
#651 = AXIS2_PLACEMENT_3D ( 'NONE', #79, #415, #551 ) ;
#652 = ADVANCED_FACE ( 'NONE', ( #774, #71 ), #412, .F. ) ;
#653 = DIRECTION ( 'NONE',  ( 0.0000000000000000000, 0.0000000000000000000, -1.000000000000000000 ) ) ;
#654 = CYLINDRICAL_SURFACE ( 'NONE', #473, 0.1060000000000000000 ) ;
#655 = CARTESIAN_POINT ( 'NONE',  ( 0.0000000000000000000, 0.0000000000000000000, 0.0000000000000000000 ) ) ;
#656 = EDGE_CURVE ( 'NONE', #756, #756, #801, .T. ) ;
#657 = AXIS2_PLACEMENT_3D ( 'NONE', #100, #767, #764 ) ;
#658 = VERTEX_POINT ( 'NONE', #605 ) ;
#659 = CYLINDRICAL_SURFACE ( 'NONE', #604, 0.1720000000000000100 ) ;
#660 = VECTOR ( 'NONE', #548, 39.37007874015748100 ) ;
#661 = VERTEX_POINT ( 'NONE', #688 ) ;
#662 = EDGE_LOOP ( 'NONE', ( #346 ) ) ;
#663 = MANIFOLD_SOLID_BREP ( 'Split1[2]', #705 ) ;
#664 = CARTESIAN_POINT ( 'NONE',  ( -0.1591917095467278200, 0.08920061658979722100, -0.1544999999999998900 ) ) ;
#665 = LINE ( 'NONE', #301, #753 ) ;
#666 = ORIENTED_EDGE ( 'NONE', *, *, #154, .F. ) ;
#667 = DIMENSIONAL_EXPONENTS ( 1.000000000000000000, 0.0000000000000000000, 0.0000000000000000000, 0.0000000000000000000, 0.0000000000000000000, 0.0000000000000000000, 0.0000000000000000000 ) ;
#668 = VECTOR ( 'NONE', #261, 39.37007874015748900 ) ;
#669 = FILL_AREA_STYLE ('',( #212 ) ) ;
#670 = ORIENTED_EDGE ( 'NONE', *, *, #136, .T. ) ;
#671 = LINE ( 'NONE', #684, #775 ) ;
#672 = AXIS2_PLACEMENT_3D ( 'NONE', #223, #686, #290 ) ;
#673 = CARTESIAN_POINT ( 'NONE',  ( 0.3420000000000000300, 0.09600624933376669700, -0.1427122983097904900 ) ) ;
#674 = LINE ( 'NONE', #752, #155 ) ;
#675 = DIRECTION ( 'NONE',  ( -1.000000000000000000, -0.0000000000000000000, -0.0000000000000000000 ) ) ;
#676 = MECHANICAL_DESIGN_GEOMETRIC_PRESENTATION_REPRESENTATION (  '', ( #635 ), #797 ) ;
#677 = VERTEX_POINT ( 'NONE', #14 ) ;
#678 = FACE_BOUND ( 'NONE', #131, .T. ) ;
#679 = EDGE_LOOP ( 'NONE', ( #140 ) ) ;
#680 = LINE ( 'NONE', #427, #802 ) ;
#681 = PLANE ( 'NONE',  #439 ) ;
#682 = PRODUCT_DEFINITION_SHAPE ( 'NONE', 'NONE',  #138 ) ;
#683 = PLANE ( 'NONE',  #493 ) ;
#684 = CARTESIAN_POINT ( 'NONE',  ( 0.4370000000000000000, 0.08920061658979724900, 0.1545000000000000300 ) ) ;
#685 = AXIS2_PLACEMENT_3D ( 'NONE', #566, #574, #505 ) ;
#686 = DIRECTION ( 'NONE',  ( -1.000000000000000000, -0.0000000000000000000, -0.0000000000000000000 ) ) ;
#687 = LINE ( 'NONE', #80, #114 ) ;
#688 = CARTESIAN_POINT ( 'NONE',  ( 0.2670000000000000700, 0.0000000000000000000, 0.09499999999999998700 ) ) ;
#689 = CARTESIAN_POINT ( 'NONE',  ( -0.1591917095467278200, -0.08920061658979718000, -0.1544999999999998900 ) ) ;
#690 = EDGE_LOOP ( 'NONE', ( #420, #368, #85, #59 ) ) ;
#691 = FACE_OUTER_BOUND ( 'NONE', #737, .T. ) ;
#692 = CARTESIAN_POINT ( 'NONE',  ( 0.2670000000000000700, 0.0000000000000000000, 0.1200000000000000000 ) ) ;
#693 = VECTOR ( 'NONE', #94, 39.37007874015748100 ) ;
#694 = AXIS2_PLACEMENT_3D ( 'NONE', #461, #58, #531 ) ;
#695 = ORIENTED_EDGE ( 'NONE', *, *, #111, .T. ) ;
#696 = DIRECTION ( 'NONE',  ( 0.0000000000000000000, 0.0000000000000000000, 1.000000000000000000 ) ) ;
#697 = EDGE_CURVE ( 'NONE', #723, #41, #396, .T. ) ;
#698 = EDGE_LOOP ( 'NONE', ( #318, #336, #50, #282 ) ) ;
#699 = VECTOR ( 'NONE', #675, 39.37007874015748100 ) ;
#700 = CARTESIAN_POINT ( 'NONE',  ( 0.4370000000000000000, -0.1715956004356249100, 0.01178770169020950200 ) ) ;
#701 =( CONVERSION_BASED_UNIT ( 'INCH', #553 ) LENGTH_UNIT ( ) NAMED_UNIT ( #319 ) );
#702 = DIRECTION ( 'NONE',  ( 0.0000000000000000000, 0.0000000000000000000, 1.000000000000000000 ) ) ;
#703 = UNCERTAINTY_MEASURE_WITH_UNIT (LENGTH_MEASURE( 1.000000000000000100E-005 ), #525, 'distance_accuracy_value', 'NONE');
#704 = DIRECTION ( 'NONE',  ( -1.000000000000000000, -0.0000000000000000000, -0.0000000000000000000 ) ) ;
#705 = CLOSED_SHELL ( 'NONE', ( #750, #772, #622, #734, #310, #288, #652, #44, #400, #101, #333 ) ) ;
#706 = VERTEX_POINT ( 'NONE', #98 ) ;
#707 = AXIS2_PLACEMENT_3D ( 'NONE', #649, #252, #718 ) ;
#708 = FACE_OUTER_BOUND ( 'NONE', #276, .T. ) ;
#709 = CYLINDRICAL_SURFACE ( 'NONE', #565, 0.1720000000000000100 ) ;
#710 = DIRECTION ( 'NONE',  ( -1.000000000000000000, -0.0000000000000000000, -0.0000000000000000000 ) ) ;
#711 = CARTESIAN_POINT ( 'NONE',  ( 0.4370000000000000000, 0.07558935110185822900, 0.1545000000000000300 ) ) ;
#712 = VECTOR ( 'NONE', #500, 39.37007874015748100 ) ;
#713 = ORIENTED_EDGE ( 'NONE', *, *, #202, .T. ) ;
#714 = CARTESIAN_POINT ( 'NONE',  ( 0.2870000000000000300, 0.0000000000000000000, 0.0000000000000000000 ) ) ;
#715 = ORIENTED_EDGE ( 'NONE', *, *, #231, .T. ) ;
#716 = ORIENTED_EDGE ( 'NONE', *, *, #136, .F. ) ;
#717 = LINE ( 'NONE', #783, #668 ) ;
#718 = DIRECTION ( 'NONE',  ( 0.0000000000000000000, 0.0000000000000000000, 1.000000000000000000 ) ) ;
#719 = ADVANCED_FACE ( 'NONE', ( #489, #511 ), #273, .F. ) ;
#720 = AXIS2_PLACEMENT_3D ( 'NONE', #293, #749, #367 ) ;
#721 = FACE_OUTER_BOUND ( 'NONE', #813, .T. ) ;
#722 = ORIENTED_EDGE ( 'NONE', *, *, #822, .F. ) ;
#723 = VERTEX_POINT ( 'NONE', #353 ) ;
#724 = EDGE_LOOP ( 'NONE', ( #74, #359, #143, #402 ) ) ;
#725 = DIRECTION ( 'NONE',  ( -1.000000000000000000, -0.0000000000000000000, -0.0000000000000000000 ) ) ;
#726 = EDGE_CURVE ( 'NONE', #765, #507, #594, .T. ) ;
#727 = CARTESIAN_POINT ( 'NONE',  ( 0.0000000000000000000, 0.0000000000000000000, 0.0000000000000000000 ) ) ;
#728 = ORIENTED_EDGE ( 'NONE', *, *, #828, .T. ) ;
#729 = ORIENTED_EDGE ( 'NONE', *, *, #96, .F. ) ;
#730 = DIRECTION ( 'NONE',  ( 1.000000000000000000, 0.0000000000000000000, 0.0000000000000000000 ) ) ;
#731 = PRESENTATION_LAYER_ASSIGNMENT (  '', '', ( #560 ) ) ;
#732 = DIRECTION ( 'NONE',  ( -1.000000000000000000, -0.0000000000000000000, -0.0000000000000000000 ) ) ;
#733 = VERTEX_POINT ( 'NONE', #673 ) ;
#734 = ADVANCED_FACE ( 'NONE', ( #639, #51 ), #214, .F. ) ;
#735 = DIRECTION ( 'NONE',  ( -1.000000000000000000, -0.0000000000000000000, -0.0000000000000000000 ) ) ;
#736 = FACE_OUTER_BOUND ( 'NONE', #108, .T. ) ;
#737 = EDGE_LOOP ( 'NONE', ( #404 ) ) ;
#738 = DIRECTION ( 'NONE',  ( 1.000000000000000000, 0.0000000000000000000, 0.0000000000000000000 ) ) ;
#739 = VERTEX_POINT ( 'NONE', #278 ) ;
#740 = PRESENTATION_LAYER_ASSIGNMENT (  '', '', ( #635 ) ) ;
#741 = CYLINDRICAL_SURFACE ( 'NONE', #17, 0.1050000000000000000 ) ;
#742 = ORIENTED_EDGE ( 'NONE', *, *, #503, .F. ) ;
#743 = PLANE ( 'NONE',  #647 ) ;
#744 = DIRECTION ( 'NONE',  ( -1.000000000000000000, -0.0000000000000000000, -0.0000000000000000000 ) ) ;
#745 = LINE ( 'NONE', #623, #354 ) ;
#746 = DIRECTION ( 'NONE',  ( 0.0000000000000000000, 0.4999999999999997200, -0.8660254037844388200 ) ) ;
#747 = CARTESIAN_POINT ( 'NONE',  ( 0.3420000000000000300, -0.09080092488469576600, -0.1517281847254616200 ) ) ;
#748 = ORIENTED_EDGE ( 'NONE', *, *, #275, .T. ) ;
#749 = DIRECTION ( 'NONE',  ( -1.000000000000000000, -0.0000000000000000000, -0.0000000000000000000 ) ) ;
#750 = ADVANCED_FACE ( 'NONE', ( #631, #597 ), #110, .T. ) ;
#751 = CARTESIAN_POINT ( 'NONE',  ( 0.2870000000000000300, 0.0000000000000000000, 0.09499999999999998700 ) ) ;
#752 = CARTESIAN_POINT ( 'NONE',  ( 0.0000000000000000000, 0.1715956004356249100, 0.01178770169020945100 ) ) ;
#753 = VECTOR ( 'NONE', #824, 39.37007874015748900 ) ;
#754 = DIRECTION ( 'NONE',  ( -1.000000000000000000, -0.0000000000000000000, -0.0000000000000000000 ) ) ;
#755 =( NAMED_UNIT ( * ) PLANE_ANGLE_UNIT ( ) SI_UNIT ( $, .RADIAN. ) );
#756 = VERTEX_POINT ( 'NONE', #102 ) ;
#757 =( NAMED_UNIT ( * ) SI_UNIT ( $, .STERADIAN. ) SOLID_ANGLE_UNIT ( ) );
#758 =( GEOMETRIC_REPRESENTATION_CONTEXT ( 3 ) GLOBAL_UNCERTAINTY_ASSIGNED_CONTEXT ( ( #191 ) ) GLOBAL_UNIT_ASSIGNED_CONTEXT ( ( #297, #755, #375 ) ) REPRESENTATION_CONTEXT ( 'NONE', 'WORKASPACE' ) );
#759 = EDGE_LOOP ( 'NONE', ( #713 ) ) ;
#760 = PRODUCT ( 'HL379--5', 'HL379--5', '', ( #46 ) ) ;
#761 = DIRECTION ( 'NONE',  ( 1.000000000000000000, 0.0000000000000000000, 0.0000000000000000000 ) ) ;
#762 = ORIENTED_EDGE ( 'NONE', *, *, #522, .T. ) ;
#763 = FILL_AREA_STYLE_COLOUR ( '', #351 ) ;
#764 = DIRECTION ( 'NONE',  ( 0.0000000000000000000, 0.0000000000000000000, 1.000000000000000000 ) ) ;
#765 = VERTEX_POINT ( 'NONE', #157 ) ;
#766 = ORIENTED_EDGE ( 'NONE', *, *, #124, .F. ) ;
#767 = DIRECTION ( 'NONE',  ( -1.000000000000000000, -0.0000000000000000000, -0.0000000000000000000 ) ) ;
#768 = DIRECTION ( 'NONE',  ( 0.0000000000000000000, 0.0000000000000000000, 1.000000000000000000 ) ) ;
#769 = CIRCLE ( 'NONE', #145, 0.1260961894323342500 ) ;
#770 = CARTESIAN_POINT ( 'NONE',  ( -0.1591917095467278200, 0.1784012331795943600, 6.065455793024548000E-017 ) ) ;
#771 = EDGE_CURVE ( 'NONE', #739, #495, #129, .T. ) ;
#772 = ADVANCED_FACE ( 'NONE', ( #83, #691 ), #743, .F. ) ;
#773 = PLANE ( 'NONE',  #205 ) ;
#774 = FACE_OUTER_BOUND ( 'NONE', #153, .T. ) ;
#775 = VECTOR ( 'NONE', #620, 39.37007874015748100 ) ;
#776 = DIRECTION ( 'NONE',  ( 0.0000000000000000000, 0.0000000000000000000, 1.000000000000000000 ) ) ;
#777 = EDGE_CURVE ( 'NONE', #807, #677, #554, .T. ) ;
#778 = CARTESIAN_POINT ( 'NONE',  ( 0.1759122333409323400, 0.0000000000000000000, 0.0000000000000000000 ) ) ;
#779 = EDGE_CURVE ( 'NONE', #456, #132, #423, .T. ) ;
#780 = CARTESIAN_POINT ( 'NONE',  ( 0.2670000000000000700, 0.0000000000000000000, 0.0000000000000000000 ) ) ;
#781 = EDGE_LOOP ( 'NONE', ( #180, #188, #228, #244 ) ) ;
#782 = LINE ( 'NONE', #267, #826 ) ;
#783 = CARTESIAN_POINT ( 'NONE',  ( 0.4370000000000000000, 0.08920061658979722100, -0.1544999999999998900 ) ) ;
#784 = DIRECTION ( 'NONE',  ( 0.0000000000000000000, 0.0000000000000000000, 1.000000000000000000 ) ) ;
#785 = SURFACE_SIDE_STYLE ('',( #5 ) ) ;
#786 = ADVANCED_FACE ( 'NONE', ( #638 ), #681, .T. ) ;
#787 = FACE_OUTER_BOUND ( 'NONE', #149, .T. ) ;
#788 = ORIENTED_EDGE ( 'NONE', *, *, #1, .T. ) ;
#789 = CIRCLE ( 'NONE', #424, 0.1720000000000000100 ) ;
#790 = CARTESIAN_POINT ( 'NONE',  ( 0.4370000000000000000, 0.1720000000000000100, 0.0000000000000000000 ) ) ;
#791 = AXIS2_PLACEMENT_3D ( 'NONE', #269, #732, #352 ) ;
#792 = LINE ( 'NONE', #305, #287 ) ;
#793 = AXIS2_PLACEMENT_3D ( 'NONE', #463, #233, #397 ) ;
#794 = DIRECTION ( 'NONE',  ( -1.000000000000000000, -0.0000000000000000000, -0.0000000000000000000 ) ) ;
#795 = CIRCLE ( 'NONE', #88, 0.08199999999999999000 ) ;
#796 = DIRECTION ( 'NONE',  ( 0.0000000000000000000, 0.0000000000000000000, -1.000000000000000000 ) ) ;
#797 =( GEOMETRIC_REPRESENTATION_CONTEXT ( 3 ) GLOBAL_UNCERTAINTY_ASSIGNED_CONTEXT ( ( #589 ) ) GLOBAL_UNIT_ASSIGNED_CONTEXT ( ( #701, #304, #757 ) ) REPRESENTATION_CONTEXT ( 'NONE', 'WORKASPACE' ) );
#798 = DIRECTION ( 'NONE',  ( 1.000000000000000000, 0.0000000000000000000, 0.0000000000000000000 ) ) ;
#799 = DIRECTION ( 'NONE',  ( 0.0000000000000000000, -0.5000000000000001100, -0.8660254037844386000 ) ) ;
#800 = EDGE_CURVE ( 'NONE', #314, #807, #680, .T. ) ;
#801 = CIRCLE ( 'NONE', #791, 0.08199999999999997600 ) ;
#802 = VECTOR ( 'NONE', #744, 39.37007874015748100 ) ;
#803 = CARTESIAN_POINT ( 'NONE',  ( 0.3420000000000000300, -0.09080092488469576600, 0.1517281847254617600 ) ) ;
#804 = ADVANCED_BREP_SHAPE_REPRESENTATION ( 'HL379--5', ( #306, #663, #89 ), #758 ) ;
#805 = ADVANCED_FACE ( 'NONE', ( #627, #120 ), #741, .T. ) ;
#806 = DIRECTION ( 'NONE',  ( -1.000000000000000000, -0.0000000000000000000, -0.0000000000000000000 ) ) ;
#807 = VERTEX_POINT ( 'NONE', #222 ) ;
#808 = DIRECTION ( 'NONE',  ( 1.000000000000000000, 0.0000000000000000000, 0.0000000000000000000 ) ) ;
#809 = CARTESIAN_POINT ( 'NONE',  ( 2.724839128102861000E-017, 0.0000000000000000000, 0.1424999999999999900 ) ) ;
#810 = AXIS2_PLACEMENT_3D ( 'NONE', #664, #410, #11 ) ;
#811 = VECTOR ( 'NONE', #602, 39.37007874015748100 ) ;
#812 = CARTESIAN_POINT ( 'NONE',  ( 0.4370000000000000000, -0.09600624933376651600, -0.1427122983097906000 ) ) ;
#813 = EDGE_LOOP ( 'NONE', ( #422 ) ) ;
#814 = CYLINDRICAL_SURFACE ( 'NONE', #471, 0.08550000000000000700 ) ;
#815 = CIRCLE ( 'NONE', #633, 0.1050000000000000000 ) ;
#816 = FACE_OUTER_BOUND ( 'NONE', #239, .T. ) ;
#817 = EDGE_CURVE ( 'NONE', #648, #648, #643, .T. ) ;
#818 = FACE_OUTER_BOUND ( 'NONE', #90, .T. ) ;
#819 = DIRECTION ( 'NONE',  ( 0.0000000000000000000, 0.0000000000000000000, 1.000000000000000000 ) ) ;
#820 = DIRECTION ( 'NONE',  ( -1.000000000000000000, -0.0000000000000000000, -0.0000000000000000000 ) ) ;
#821 = VECTOR ( 'NONE', #429, 39.37007874015747400 ) ;
#822 = EDGE_CURVE ( 'NONE', #411, #6, #839, .T. ) ;
#823 = CARTESIAN_POINT ( 'NONE',  ( 0.0000000000000000000, 0.0000000000000000000, 0.0000000000000000000 ) ) ;
#824 = DIRECTION ( 'NONE',  ( 0.0000000000000000000, -0.4999999999999998300, 0.8660254037844386000 ) ) ;
#825 = EDGE_CURVE ( 'NONE', #314, #260, #671, .T. ) ;
#826 = VECTOR ( 'NONE', #730, 39.37007874015748100 ) ;
#827 = SURFACE_SIDE_STYLE ('',( #386 ) ) ;
#828 = EDGE_CURVE ( 'NONE', #456, #189, #570, .T. ) ;
#829 = DIRECTION ( 'NONE',  ( -1.000000000000000000, -0.0000000000000000000, -0.0000000000000000000 ) ) ;
#830 = FACE_OUTER_BOUND ( 'NONE', #18, .T. ) ;
#831 = PLANE ( 'NONE',  #75 ) ;
#832 = CIRCLE ( 'NONE', #284, 0.1720000000000000100 ) ;
#833 = EDGE_CURVE ( 'NONE', #495, #250, #571, .T. ) ;
#834 = DIRECTION ( 'NONE',  ( 0.0000000000000000000, 0.0000000000000000000, -1.000000000000000000 ) ) ;
#835 = CARTESIAN_POINT ( 'NONE',  ( 0.1870000000000000600, 0.1059999999999999700, 0.0000000000000000000 ) ) ;
#836 = CYLINDRICAL_SURFACE ( 'NONE', #66, 0.1720000000000000100 ) ;
#837 = DIRECTION ( 'NONE',  ( 0.0000000000000000000, 0.0000000000000000000, 1.000000000000000000 ) ) ;
#838 = CYLINDRICAL_SURFACE ( 'NONE', #249, 0.08199999999999999000 ) ;
#839 = LINE ( 'NONE', #617, #693 ) ;
#840 = DIRECTION ( 'NONE',  ( 0.0000000000000000000, 0.8660254037844387100, 0.4999999999999998900 ) ) ;
#841 = LINE ( 'NONE', #550, #811 ) ;
ENDSEC;
END-ISO-10303-21;
